<svg width="1511" height="704" viewBox="0 0 1511 704" fill="none" xmlns="http://www.w3.org/2000/svg">
<path d="M-247.142 257.238C-178.122 271.324 -115.134 296.082 -62.1061 329.968C16.1598 380.66 17.9965 418.618 89.6139 443.549C159.217 467.754 249.187 463.828 319.135 440.28C414.575 408.135 411.894 359.926 526.318 265.809C593.614 210.498 719.796 106.683 884.489 90.2588C967.695 81.9659 1053.85 96.6639 1133.93 110.31C1232.08 127.037 1247.88 140.813 1299.46 140.529C1360.73 140.206 1452.53 120.178 1574.29 22.8817" stroke="url(#paint0_linear_60_4162)" stroke-opacity="0.45" stroke-width="4" stroke-miterlimit="10"/>
<path d="M-247.664 266.259C-185.551 278.412 -128.092 299.153 -78.1564 327.445C-73.3745 330.196 -68.5785 333.041 -63.7364 335.974C14.9496 384.643 17.5305 420.768 88.1828 444.959C118.989 455.561 152.933 461.315 188.043 461.885C213.19 462.277 238.61 460.209 263.65 455.734C282.375 452.38 300.725 447.508 318.355 441.21C338.03 434.394 356.346 425.319 372.56 414.351C402.389 394.106 421.767 369.902 452.467 338.575C475.595 314.995 501.268 292.752 529.199 272.097C543.973 261.039 561.181 247.799 581.275 233.865C635.026 196.506 704.636 154.238 792.146 130.142C821.825 121.861 852.364 116.007 883.182 112.691C887.902 112.176 892.604 111.759 897.249 111.399C943.237 107.791 987.862 109.792 1033.84 114.436C1068.22 117.802 1101.11 123.496 1133.64 128.596C1147.28 130.811 1159.49 132.858 1170.53 134.84C1237.22 146.879 1255.44 155.964 1299.55 154.527C1333.07 153.432 1375.58 146.375 1427.63 124.622C1470.31 106.805 1519.81 78.8097 1576.3 36.3054" stroke="url(#paint1_linear_60_4162)" stroke-opacity="0.45" stroke-width="4" stroke-miterlimit="10"/>
<path d="M-248.051 275.307C-186.668 286.759 -129.68 306.586 -79.8636 333.821C-75.0884 336.454 -70.3015 339.165 -65.503 341.953C13.7672 388.598 17.1497 422.833 86.783 446.364C117.686 457.15 151.764 463.093 187.056 463.85C212.351 464.247 237.927 462.092 263.085 457.444C281.814 453.927 300.109 448.78 317.57 442.116C337.078 434.866 355.252 425.558 371.468 414.515C402.512 393.609 423.213 369.9 453.786 340.362C477.208 317.91 503.424 297.052 532.036 278.104C546.958 268.028 563.902 255.88 583.977 243.359C637.47 209.984 703.315 173.517 790.265 151.823C820.287 144.206 850.939 138.594 881.83 135.058C886.615 134.533 891.342 134.065 896.016 133.676C942.736 129.696 986.087 130.644 1032.78 133.914C1067.94 136.397 1100.52 141.947 1133.29 146.869C1146.9 148.897 1159.21 150.761 1170.48 152.541C1237.16 163.147 1255.82 171.211 1299.57 168.488C1332.91 166.415 1374.97 158.518 1427.28 136.558C1470 118.591 1520.23 90.8686 1578.32 49.776" stroke="url(#paint2_linear_60_4162)" stroke-opacity="0.45" stroke-width="4" stroke-miterlimit="10"/>
<path d="M-248.781 284.263C-187.989 295.022 -131.352 313.976 -81.5676 340.221C-76.8171 342.762 -72.0275 345.345 -67.2595 348.002C12.6557 392.589 16.6861 425.007 85.3187 447.778C117.818 458.552 149.227 465.112 185.975 465.853C211.441 466.259 237.196 464.014 262.491 459.183C281.23 455.496 299.47 450.065 316.754 443.028C336.105 435.344 354.162 425.801 370.407 414.674C402.602 393.118 424.601 369.956 455.083 342.224C478.821 320.887 505.61 301.446 534.902 284.298C550.131 275.18 566.683 264.143 586.707 253.04C640.197 223.372 702.012 192.912 788.395 173.575C818.763 166.629 849.562 161.26 880.557 157.509C885.371 156.956 890.255 156.44 894.796 156.048C940.61 151.958 986.434 151.112 1031.64 153.524C1067.59 155.1 1099.89 160.595 1133.01 165.202C1146.6 167.089 1158.98 168.752 1170.51 170.325C1237.14 179.481 1256.26 186.471 1299.64 182.537C1332.83 179.529 1374.52 170.707 1427 148.554C1469.82 130.573 1520.65 102.904 1580.31 63.1063" stroke="url(#paint3_linear_60_4162)" stroke-opacity="0.45" stroke-width="4" stroke-miterlimit="10"/>
<path d="M-249.34 293.266C-189.221 303.353 -133.002 321.408 -83.2754 346.598C-78.5389 349.045 -73.7381 351.483 -69.0198 354.028C11.3937 396.676 16.2654 427.03 83.8896 449.212C117.089 460.048 147.547 467.062 184.959 467.846C210.573 468.271 236.488 465.931 261.892 460.899C280.698 457.061 298.931 451.346 316.065 443.92C335.22 435.847 353.149 426.119 369.431 414.963C402.774 392.733 426.242 370.164 456.473 344.049C477.804 325.649 503.723 308.476 537.86 290.455C553.357 282.253 569.674 272.279 589.555 262.633C643.348 236.529 700.833 212.264 786.488 195.308C817.155 189.021 848.094 183.888 879.18 179.928C884.054 179.342 888.871 178.813 893.502 178.359C939.318 173.72 985.219 171.938 1030.71 173.03C1067.51 173.69 1099.35 179.182 1132.75 183.414C1146.15 185.185 1158.83 186.683 1170.6 188.006C1237.16 195.834 1256.72 201.633 1299.78 196.455C1332.83 192.489 1374.1 182.797 1426.78 160.471C1469.57 142.326 1521.1 114.912 1582.31 76.4601" stroke="url(#paint4_linear_60_4162)" stroke-opacity="0.45" stroke-width="4" stroke-miterlimit="10"/>
<path d="M-249.866 302.263C-190.43 311.694 -134.642 328.851 -84.9816 352.974C-80.2627 355.304 -75.4829 357.602 -70.7856 360.007C10.1911 400.49 15.8316 429.175 82.3908 450.608C116.293 461.53 145.8 468.997 183.844 469.83C209.63 470.266 235.725 467.828 261.26 462.595C280.048 458.613 298.19 452.634 315.089 444.855C334.061 436.37 351.871 426.413 368.182 415.174C402.712 392.312 427.691 370.402 457.607 345.911C479.715 327.873 506.496 312.293 540.559 296.626C556.389 289.331 572.478 280.467 592.102 272.174C646.627 249.428 699.45 231.552 784.53 216.905C814.096 211.81 846.787 206.081 877.788 202.23C882.722 201.611 887.471 201.067 892.192 200.552C937.939 195.375 983.824 192.663 1029.48 192.438C1067.06 192.193 1098.67 197.648 1132.39 201.639C1145.93 203.246 1158.51 204.496 1170.55 205.66C1237.06 212.275 1257.24 217.384 1299.75 210.519C1332.6 205.219 1373.53 195.005 1426.37 172.439C1469.17 154.079 1521.43 126.962 1584.19 89.8796" stroke="url(#paint5_linear_60_4162)" stroke-opacity="0.45" stroke-width="4" stroke-miterlimit="10"/>
<path d="M-250.428 311.242C-191.663 320.032 -136.297 336.3 -86.6894 359.351C-81.9879 361.564 -77.1935 363.74 -72.5493 366.01C9.04728 404.487 15.418 431.246 80.9262 452.022C115.428 462.998 144.052 470.932 182.795 471.828C208.701 472.257 234.918 469.728 260.533 464.33C279.359 460.178 297.461 453.919 314.175 445.781C332.918 436.866 350.599 426.691 366.967 415.404C402.645 391.868 429.25 370.503 458.704 347.756C481.608 329.981 509.304 316.128 543.224 302.803C559.452 296.405 577.402 291.423 594.646 281.932C653.608 271.266 697.678 247.383 782.444 238.76C812.386 235.738 845.416 228.762 876.257 224.719C881.256 224.091 886.094 223.486 890.747 222.957C940.56 217.247 978.781 213.559 1028.22 211.946C1066.59 210.77 1097.87 216.227 1131.9 219.885C1145.26 221.375 1158.07 222.423 1170.37 223.38C1236.7 228.564 1257.31 231.887 1299.65 224.354C1332.45 218.465 1372.92 207.003 1425.94 184.291C1468.8 165.921 1521.67 138.881 1586.05 103.159" stroke="url(#paint6_linear_60_4162)" stroke-opacity="0.45" stroke-width="4" stroke-miterlimit="10"/>
<path d="M-250.986 320.244C-192.898 328.394 -137.958 343.755 -88.3997 365.704C-83.6801 367.819 -78.9067 369.854 -74.3156 371.988C8.0545 408.39 15.1304 433.273 79.591 453.418C114.92 464.437 142.465 472.843 181.844 473.812C207.976 474.26 234.432 471.616 260.222 465.978C281.209 461.522 297.903 454.289 313.645 446.625C332.175 437.29 349.755 426.893 366.2 415.542C403.029 391.356 431.406 370.635 460.348 349.518C484.039 332.176 512.763 319.915 546.273 308.898C562.997 303.406 580.765 300.053 597.591 291.509C657.32 285.965 697.068 270.523 780.757 260.413C810.775 256.805 844.411 251.244 875.145 247.146C880.159 246.396 885.069 245.829 889.682 245.258C940.282 239.095 977.218 234.284 1027.38 231.582C1066.5 229.505 1097.48 234.935 1131.82 238.283C1145.17 239.633 1158.05 240.479 1170.61 241.229C1236.91 245.126 1257.97 247.282 1299.95 238.44C1332.61 231.615 1372.66 219.285 1425.88 196.375C1468.77 178.001 1522.31 151.051 1588.27 116.694" stroke="url(#paint7_linear_60_4162)" stroke-opacity="0.45" stroke-width="4" stroke-miterlimit="10"/>
<path d="M-251.517 329.218C-194.127 336.757 -139.632 351.205 -90.1178 372.01C-85.4122 374.032 -80.6241 375.945 -75.8969 377.892C6.95754 412.26 14.8315 435.231 78.1447 454.734C114.173 465.816 140.771 474.699 180.81 475.688C207.071 476.165 233.669 473.445 259.549 467.633C280.804 462.994 297.153 455.43 312.753 447.476C332.018 437.659 347.507 427.211 365.013 415.744C403.029 390.926 438.273 374.15 461.574 351.343C489.798 337.722 514.844 316.04 549.163 315.04C567.026 314.519 584.026 308.675 600.375 301.111C660.899 300.66 696.003 289.979 778.943 282.108C809.202 279.229 843.406 273.727 873.862 269.527C878.972 268.763 883.857 268.031 888.516 267.549C939.839 260.944 975.511 254.935 1026.36 251.102C1066.35 248.058 1096.94 253.499 1131.57 256.541C1144.89 257.751 1157.87 258.414 1170.67 258.938C1236.78 261.596 1258.46 262.392 1300.1 252.405C1332.65 244.593 1372.3 231.389 1425.66 208.292C1468.59 189.768 1522.66 163.073 1590.34 130.062" stroke="url(#paint8_linear_60_4162)" stroke-opacity="0.45" stroke-width="4" stroke-miterlimit="10"/>
<path d="M-252.079 338.197C-195.351 345.152 -141.282 358.728 -91.818 378.434C-87.1299 380.338 -82.3769 382.018 -77.6245 383.913C6.06776 416.195 14.3863 437.306 76.7162 456.167C113.473 467.284 139.091 476.648 179.765 477.71C206.191 478.182 232.957 475.364 258.955 469.372C280.478 464.549 296.471 456.584 311.972 448.406C330.816 438.412 346.057 427.619 363.924 415.931C403.084 390.415 440.456 374.684 462.957 353.121C492.36 340.351 519.31 319.533 552.115 321.15C570.055 322.028 587.324 317.315 603.127 310.718C664.446 315.36 694.946 309.48 777.098 303.808C807.594 301.635 842.083 296.281 872.578 291.908L887.266 289.71C939.371 282.629 973.855 275.483 1025.32 270.482C1066.12 266.503 1096.35 271.973 1131.29 274.682C1144.6 275.752 1157.64 276.214 1170.7 276.507C1236.64 277.972 1258.9 277.437 1300.21 266.258C1332.6 257.464 1371.86 243.386 1425.39 220.12C1468.34 201.474 1523.22 174.968 1592.35 143.317" stroke="url(#paint9_linear_60_4162)" stroke-opacity="0.45" stroke-width="4" stroke-miterlimit="10"/>
<path d="M-252.643 347.152C-196.639 353.559 -143.051 366.244 -93.6598 384.783C-88.971 386.472 -84.218 388.152 -79.4971 389.836C4.74026 420.052 13.889 439.245 75.214 457.54C112.695 468.667 137.498 478.512 178.675 479.642C205.254 480.149 232.186 477.242 258.287 471.05C280.111 466.038 295.737 457.818 311.085 449.28C329.488 438.97 344.536 427.99 362.768 416.104C403.112 389.933 442.572 375.204 464.084 354.936C494.695 342.99 523.684 336.021 554.807 327.275C573.375 327.078 590.358 325.947 605.748 320.32C667.844 330.154 693.665 329.015 775.082 325.461C805.836 324.134 840.828 319.064 871.128 314.266C876.335 313.487 881.316 312.741 885.912 312.054C938.674 303.655 971.928 296.191 1024.14 290.05C1065.79 285.131 1095.63 290.612 1130.91 293.006C1144.19 293.912 1157.38 294.21 1170.53 294.25C1236.29 294.522 1259.01 292.628 1300.07 280.242C1332.35 270.485 1371.19 255.538 1424.95 232.07C1467.91 213.325 1523.35 187.023 1594.16 156.7" stroke="url(#paint10_linear_60_4162)" stroke-opacity="0.45" stroke-width="4" stroke-miterlimit="10"/>
<path d="M-253.173 356.126C-197.798 361.963 -144.601 373.745 -95.2102 391.112C-90.5536 392.806 -85.7929 394.317 -81.093 395.861C3.87873 423.959 13.6683 441.287 73.8424 458.917C112.059 470.126 135.718 480.452 177.691 481.63C204.499 482.156 231.673 479.133 257.943 472.704C280.163 467.489 295.48 458.956 310.429 450.167C328.561 439.587 343.311 428.365 361.825 416.173C403.288 389.357 444.901 375.621 465.488 356.639C497.278 345.545 526.98 340.262 557.773 333.263C576.748 334.248 593.666 334.442 608.607 329.767C671.456 344.629 692.661 348.437 773.312 347.007C804.314 346.455 839.74 341.44 869.923 336.516C875.194 335.727 880.176 334.981 884.803 334.289C938.281 325.4 970.299 316.711 1023.2 309.486C1065.64 303.637 1095.15 309.143 1130.75 311.203C1144.01 311.992 1157.16 312.033 1170.78 311.931C1236.36 311.057 1259.79 307.742 1300.38 294.183C1332.52 283.443 1370.96 267.647 1424.89 243.986C1467.87 225.143 1524.13 199.006 1596.39 170.067" stroke="url(#paint11_linear_60_4162)" stroke-opacity="0.45" stroke-width="4" stroke-miterlimit="10"/>
<path d="M-253.738 365.081C-199.028 370.388 -146.267 381.283 -96.9204 397.465C-92.2316 399.154 -87.5095 400.408 -82.8271 401.835C2.90775 427.786 13.3382 443.249 72.4075 460.303C111.348 471.523 134.028 482.331 176.668 483.577C203.577 484.116 230.858 481.013 257.181 474.42C279.377 469.041 294.738 460.143 309.542 451.041C327.114 440.234 341.693 428.751 360.686 416.463C403.329 388.968 447.034 376.258 466.725 358.534C499.723 348.263 529.988 344.547 560.585 339.537C579.932 341.686 596.821 343.223 611.281 339.505C674.928 359.484 691.472 368.15 771.388 368.838C802.641 369.086 838.45 363.774 868.504 359.084C873.839 358.286 878.853 357.536 883.481 356.843C937.738 347.455 968.65 338.62 1022.09 329.259C1065.19 321.709 1094.48 327.988 1130.41 329.785C1143.77 330.389 1157.24 330.449 1170.75 329.963C1236.17 327.967 1260.17 323.227 1300.41 308.476C1332.44 296.749 1370.46 280.107 1424.56 256.254C1467.72 237.288 1524.49 211.337 1598.34 183.762" stroke="url(#paint12_linear_60_4162)" stroke-opacity="0.45" stroke-width="4" stroke-miterlimit="10"/>
<path d="M-255.053 369.032C-200.993 373.861 -148.665 383.902 -99.3665 398.907C-94.7128 400.362 -89.9585 401.611 -85.265 402.894C1.20078 426.703 12.3363 440.291 70.233 456.755C109.906 468.033 131.606 479.322 174.878 480.617C201.952 481.176 229.408 477.983 255.845 471.2C278.466 465.591 293.424 456.418 308.083 447.003C325.103 435.8 339.386 424.099 358.844 411.622C402.648 383.547 448.493 371.736 467.263 355.321C501.435 345.879 532.306 343.793 562.687 340.633C582.409 343.969 599.234 346.831 613.248 344.088C677.69 369.161 689.632 382.867 768.705 385.379C800.241 386.421 836.478 381.117 866.443 376.274L881.453 373.812C936.626 364.837 965.977 353.032 1020.24 343.475C1064.32 335.682 1093.09 341.299 1129.31 342.692C1142.8 343.144 1156.39 343.019 1170 342.317C1235.09 339.222 1259.82 332.987 1299.7 317.072C1331.6 304.358 1369.24 286.866 1423.5 262.82C1466.65 243.761 1524.14 217.989 1599.57 191.779" stroke="url(#paint13_linear_60_4162)" stroke-opacity="0.45" stroke-width="4" stroke-miterlimit="10"/>
<path d="M-256.761 370.794C-203.381 375.068 -151.511 384.164 -102.28 397.885C-97.608 399.242 -92.8747 400.35 -88.2022 401.492C-0.837799 423.182 10.8241 435.018 67.6984 450.798C108.128 462.082 128.82 473.881 172.759 475.243C200.004 475.784 227.631 472.461 254.162 465.451C277.017 459.639 291.747 450.261 306.117 440.459C322.798 429.187 336.936 417.173 356.595 404.499C401.572 375.698 449.516 364.959 467.393 349.826C502.773 341.208 534.828 336.936 564.418 339.465C585.622 341.289 601.324 348.288 614.726 346.282C679.932 376.453 687.24 395.205 765.567 399.764C797.329 401.658 834.056 396.328 863.84 391.368C869.303 390.551 874.353 389.603 878.935 388.822C934.888 379.348 962.946 366.373 1017.92 355.658C1062.78 346.912 1091.23 352.577 1127.75 353.566C1141.35 353.897 1155.05 353.588 1168.75 352.642C1233.65 348.476 1258.98 340.74 1298.51 323.657C1330.27 309.937 1367.51 291.595 1421.95 267.38C1465.09 248.227 1523.29 222.635 1600.29 197.649" stroke="url(#paint14_linear_60_4162)" stroke-opacity="0.45" stroke-width="4" stroke-miterlimit="10"/>
<path d="M-258.316 372.485C-205.584 376.275 -154.154 384.473 -104.987 396.927C-100.3 398.162 -95.5558 399.126 -90.9329 400.155C-2.85516 419.587 9.40845 429.515 65.1633 444.841C106.285 456.141 126.002 468.445 170.765 469.827C198.168 470.482 225.988 467.131 252.65 459.962C275.801 453.939 290.243 444.174 304.39 434.19C320.675 422.691 334.572 410.377 354.755 397.481C400.852 368.035 450.92 358.317 467.933 344.437C504.446 336.581 537.456 334.295 566.462 338.418C588.251 341.517 603.687 349.584 616.778 348.796C682.75 384.089 685.421 407.862 763.021 414.372C795.041 417.111 832.125 411.752 861.87 406.751L877.047 404.096C933.751 394.151 960.546 379.979 1016.25 368.151C1061.94 358.419 1090.03 364.282 1126.88 364.863C1140.59 365.093 1154.4 364.624 1168.2 363.46C1232.88 358.251 1258.83 348.987 1298.03 330.735C1329.64 316.034 1366.46 296.846 1421.1 272.433C1478.83 245.928 1539.18 223.069 1601.42 204.127" stroke="url(#paint15_linear_60_4162)" stroke-opacity="0.45" stroke-width="4" stroke-miterlimit="10"/>
<path d="M-260.109 373.232C-208.007 376.592 -157.012 383.925 -107.918 395.118C-103.217 396.232 -98.4904 397.078 -93.8885 397.968C-4.99038 415.196 7.8673 423.385 62.5069 438.066C104.417 449.367 123.094 462.186 168.363 463.659C195.939 464.309 223.936 460.818 250.682 453.395C274.066 447.169 288.266 437.106 302.203 426.818C318.061 415.096 331.719 402.507 352.203 389.423C399.482 359.321 451.546 350.644 467.76 338.008C505.495 331.069 539.309 330.646 567.854 336.297C590.203 340.723 605.428 350.017 618.034 350.162C684.802 390.548 682.807 419.372 759.648 427.836C791.927 431.422 829.46 425.995 859.048 420.826C864.587 419.853 869.733 418.892 874.308 418.064C931.888 407.604 957.297 392.301 1013.65 379.347C1060.12 368.662 1087.87 374.479 1125.05 374.82C1138.88 374.898 1152.79 374.222 1166.68 372.798C1231.17 366.565 1257.7 355.731 1296.57 336.334C1328.03 320.627 1364.46 300.612 1419.26 275.983C1477.52 249.304 1538.83 226.946 1602.19 209.272" stroke="url(#paint16_linear_60_4162)" stroke-opacity="0.45" stroke-width="4" stroke-miterlimit="10"/>
<path d="M-262.174 372.178C-210.693 375.097 -160.133 381.544 -111.132 391.438C-106.448 392.435 -101.706 393.16 -97.122 393.932C-7.38196 408.883 6.17738 415.174 59.5689 429.42C102.236 440.727 119.908 454.078 165.838 455.573C193.57 456.254 221.737 452.674 248.579 445.054C272.224 438.598 286.185 428.259 299.88 417.674C315.353 405.794 328.762 392.86 349.611 379.577C398.042 348.825 452.287 341.112 467.548 329.79C506.458 323.68 541.03 325.248 569.21 332.412C592.03 338.226 607.126 348.639 619.284 349.736C686.818 395.244 680.122 429.099 756.265 439.485C788.74 443.949 826.763 438.498 856.23 433.179C861.798 432.178 866.973 431.188 871.544 430.337C929.811 419.416 953.953 402.891 1010.99 388.831C1058.27 377.164 1085.7 383.053 1123.13 383.07C1137.09 383.001 1151.12 382.14 1165.1 380.494C1229.41 373.261 1256.5 360.838 1295.02 340.295C1326.34 323.652 1362.41 302.712 1417.38 277.914C1476.05 250.991 1538.23 229.074 1602.59 212.631" stroke="url(#paint17_linear_60_4162)" stroke-opacity="0.45" stroke-width="4" stroke-miterlimit="10"/>
<path d="M-264.204 371.119C-213.342 373.64 -163.225 379.212 -114.339 387.782C-109.641 388.657 -104.924 389.218 -100.357 389.874C-9.73234 402.611 4.08569 407.119 56.6331 420.773C100.021 432.069 116.721 445.948 163.286 447.514C191.186 448.241 219.539 444.56 246.477 436.713C270.38 430.003 284.11 419.436 297.592 408.524C312.659 396.346 325.808 383.212 347.021 369.731C396.646 338.394 453.03 331.58 467.334 321.549C502.859 316.546 538.633 318.958 570.533 328.508C593.795 335.738 608.823 347.237 620.503 349.314C688.833 399.916 677.406 438.83 752.884 451.133C785.56 456.5 824.058 450.929 853.382 445.536C859.042 444.498 864.214 443.485 868.81 442.582C927.785 431.125 950.788 413.575 1008.5 398.29C1056.52 385.674 1083.7 391.602 1121.44 391.285C1134.56 391.162 1148.17 389.413 1163.68 388.142C1228.02 382.888 1255.48 365.915 1293.67 344.204C1324.83 326.485 1360.52 304.788 1415.66 279.798C1474.81 252.623 1537.9 231.118 1603.24 215.857" stroke="url(#paint18_linear_60_4162)" stroke-opacity="0.45" stroke-width="4" stroke-miterlimit="10"/>
<path d="M-266.268 370.065C-215.999 372.197 -166.311 376.887 -117.552 384.102C-112.843 384.832 -108.139 385.3 -103.561 385.81C-12.1941 396.046 2.41026 399.001 53.6956 412.127C97.8726 423.424 113.403 437.836 160.764 439.451C188.878 440.21 217.458 436.422 244.535 428.348C268.663 421.389 282.159 410.57 295.431 399.355C310.005 386.964 322.98 373.545 344.559 359.866C395.353 327.78 453.894 321.983 467.251 313.313C503.886 309.251 540.307 313.227 571.907 324.739C595.511 333.377 610.54 345.976 621.739 349.01C690.863 404.705 674.675 448.684 749.49 462.927C782.395 469.168 821.34 463.507 850.614 458.001C856.303 456.935 861.532 455.865 866.096 454.967C925.848 442.987 947.544 424.174 1005.99 407.871C1054.85 394.269 1081.56 400.339 1119.76 399.618C1133.97 398.941 1148.18 397.707 1162.35 395.922C1226.6 389.39 1254.52 371.104 1292.4 348.243C1323.38 329.523 1358.71 306.995 1413.89 281.832C1473.48 254.449 1537.45 233.417 1603.68 219.426" stroke="url(#paint19_linear_60_4162)" stroke-opacity="0.45" stroke-width="4" stroke-miterlimit="10"/>
<path d="M-268.331 369.011C-218.629 370.774 -169.356 374.574 -120.735 380.395C-116.043 381.007 -111.354 381.382 -106.801 381.728C-14.5842 389.732 0.600257 390.855 50.9017 403.555C95.6858 414.737 110.215 429.706 158.208 431.37C186.447 432.18 215.172 428.306 242.304 420.026C266.69 412.814 279.983 401.738 292.981 390.229C307.26 377.619 319.897 363.916 341.872 350.035C393.785 317.302 454.554 312.559 466.898 305.021C504.738 301.831 541.886 307.313 573.244 320.713C597.133 330.815 612.187 344.462 622.937 348.448C692.828 409.264 671.898 458.448 746.09 474.458C779.196 481.602 818.587 475.85 847.716 470.247C853.466 469.147 858.723 468.049 863.28 467.104C923.84 454.597 944.216 434.643 1003.38 417.228C1053.05 402.621 1079.41 408.814 1117.86 407.746C1132.18 406.971 1146.51 405.554 1160.76 403.5C1224.91 395.692 1253.29 376.093 1290.84 352.064C1321.7 332.357 1356.68 308.974 1412.04 283.711C1472.11 256.092 1536.97 235.505 1604.08 222.762" stroke="url(#paint20_linear_60_4162)" stroke-opacity="0.45" stroke-width="4" stroke-miterlimit="10"/>
<path d="M-270.331 367.947C-213.755 369.88 -162.807 372.847 -123.912 376.734C-119.174 377.22 -114.509 377.43 -109.998 377.712C-16.9288 383.293 -1.17193 382.752 47.8395 394.736C93.5194 405.975 107.173 421.458 155.704 423.209C184.103 424.057 213.004 420.083 240.219 411.587C264.859 404.098 277.956 392.812 290.709 380.981C304.56 368.148 316.959 354.17 339.298 340.091C392.395 306.703 455.317 302.952 466.718 296.799C505.744 294.511 543.557 301.488 574.615 316.707C598.756 328.276 615.146 341.843 624.205 347.924C708.25 404.517 669.116 468.19 742.725 486.009C776.003 494.083 815.934 488.202 844.916 482.502C850.727 481.369 855.977 480.224 860.563 479.251C921.802 466.236 940.889 445.136 1000.81 426.627C1051.28 411.015 1077.29 417.308 1116.08 415.854C1130.53 415.261 1145 413.664 1159.3 411.084C1222.98 399.926 1252.2 381.064 1289.44 355.907C1320.12 335.176 1354.67 310.971 1410.32 285.427C1470.9 257.576 1536.69 237.425 1604.65 225.905" stroke="url(#paint21_linear_60_4162)" stroke-opacity="0.45" stroke-width="4" stroke-miterlimit="10"/>
<path d="M-272.426 366.898C-215.284 368.436 -164.809 370.445 -127.156 373.059C-122.406 373.4 -117.759 373.493 -113.266 373.658C-19.2787 376.806 -3.01018 374.634 44.8818 386.164C91.347 397.382 103.971 413.449 153.134 415.248C181.715 416.136 210.814 412.059 238.131 403.34C262.99 395.555 275.859 384.064 288.367 371.911C301.855 358.845 313.854 344.616 336.687 330.32C390.932 296.258 455.817 293.552 466.515 288.628C511.373 286.696 548.589 298.246 575.951 312.896C600.288 325.991 616.671 340.826 625.403 347.577C708.067 411.407 666.297 478.104 739.293 497.76C772.74 506.742 813.21 500.732 842.046 494.934C847.914 493.745 853.229 492.591 857.779 491.599C919.791 478.038 937.615 455.74 998.234 436.17C1049.48 419.582 1075.15 425.998 1114.24 424.164C1128.81 423.431 1143.39 421.641 1157.76 418.821C1221.34 406.747 1251.07 386.23 1288 359.9C1318.49 338.169 1352.7 313.132 1408.58 287.385C1451.89 267.441 1515.58 243.301 1605.18 229.267" stroke="url(#paint22_linear_60_4162)" stroke-opacity="0.45" stroke-width="4" stroke-miterlimit="10"/>
<path d="M-274.491 365.844C-216.806 367.061 -166.82 367.996 -130.366 369.403C-125.608 369.575 -120.979 369.552 -116.486 369.716C-21.7987 370.297 -4.82214 366.489 41.9434 377.518C88.709 388.547 100.781 405.319 150.608 407.162C179.348 408.114 208.632 403.944 236.027 394.999C261.101 386.895 273.814 375.237 286.079 362.785C299.175 349.515 311.029 334.973 334.098 320.497C389.544 285.897 456.532 284.072 466.305 280.434C512.372 279.326 549.914 292.835 577.307 309.011C601.783 323.472 618.047 339.712 626.606 347.062C707.514 418.041 663.422 487.883 735.895 509.315C769.486 519.256 810.459 513.099 839.214 507.194C845.11 505.976 850.45 504.771 855.126 503.736C917.867 489.564 934.452 466.232 995.757 445.531C1047.8 427.962 1073.16 434.496 1112.56 432.282C1127.26 431.416 1141.95 429.442 1156.4 426.39C1219.87 413.375 1250.04 391.214 1286.7 363.729C1317.01 340.997 1350.86 315.129 1406.98 289.18C1450.34 269.132 1514.67 245.158 1605.87 232.536" stroke="url(#paint23_linear_60_4162)" stroke-opacity="0.45" stroke-width="4" stroke-miterlimit="10"/>
<path d="M-276.521 364.785C-218.332 365.64 -168.828 365.547 -133.57 365.77C-128.802 365.797 -124.186 365.68 -119.731 365.587C-24.2556 363.755 -6.63185 358.343 39.0108 368.895C87.0326 379.975 97.5614 397.193 148.055 399.104C176.968 400.122 206.449 395.849 233.925 386.658C259.211 378.211 271.767 366.385 283.794 353.658C296.491 340.137 308.078 325.348 331.54 310.646C388.088 275.284 457.218 271.082 466.095 272.216C511.912 278.007 551.201 287.382 578.665 305.125C603.258 321.027 619.582 338.549 627.875 346.753C706.742 424.732 660.552 497.901 732.535 521.104C766.265 531.98 807.771 525.648 836.383 519.668C842.372 518.413 847.709 517.184 852.284 516.141C915.812 501.515 931.062 476.949 993.088 455.136C1045.91 436.567 1070.92 443.247 1110.66 440.648C1125.49 439.646 1140.29 437.487 1154.81 434.207C1218.18 420.276 1248.81 396.442 1285.14 367.812C1315.32 344.167 1348.79 317.351 1405.11 291.204C1448.49 271.058 1513.54 247.287 1606.29 236.012" stroke="url(#paint24_linear_60_4162)" stroke-opacity="0.45" stroke-width="4" stroke-miterlimit="10"/>
<path d="M-278.585 363.731C-219.842 364.336 -170.881 363.033 -136.79 362.043C-132.014 361.902 -127.412 361.692 -122.943 361.477C-26.721 357.166 -8.41092 350.193 36.0696 360.225C85.0445 371.306 94.2724 389.053 145.52 390.947C174.605 392.008 204.278 387.632 231.84 378.219C257.269 369.416 269.708 357.464 281.468 344.49C293.795 330.69 305.119 315.677 328.949 300.801C386.68 264.783 457.872 264.481 465.88 263.976C514.714 260.946 552.452 281.91 579.89 301.236C598.521 314.794 614.969 329.908 628.96 346.327C705.73 431.148 657.531 507.798 729.152 532.753C762.99 544.569 805.071 538.127 833.565 532.021C839.584 530.738 844.977 529.452 849.453 528.4C913.679 513.168 927.675 487.474 990.464 464.615C1044.02 445.027 1068.77 451.914 1108.8 448.888C1123.77 447.748 1138.68 445.396 1153.26 441.875C1216.56 427.022 1247.56 401.46 1283.66 371.74C1313.6 346.959 1346.74 319.451 1403.33 293.121C1446.76 272.872 1512.43 249.271 1606.79 239.356" stroke="url(#paint25_linear_60_4162)" stroke-opacity="0.45" stroke-width="4" stroke-miterlimit="10"/>
<path d="M-280.648 362.677C-221.483 362.812 -172.971 360.477 -140.002 358.364C-30.9081 351.361 -12.19 341.625 33.1332 351.579C82.7403 362.494 91.1845 380.932 142.977 382.959C172.235 384.085 202.106 379.614 229.752 369.972C282.07 351.143 278.991 320.472 326.359 290.955C385.237 254.263 458.606 255.548 465.669 255.758C559.778 258.41 613.482 325.236 630.308 345.886C704.884 437.348 654.704 517.666 725.737 544.406C766.964 559.922 821.004 546.885 846.751 540.64C911.728 524.937 924.464 498.069 987.938 474.079C1059.46 447.019 1079.2 467.593 1151.85 449.547C1267.72 420.656 1276.93 353.356 1401.44 295.029C1444.89 274.681 1511.25 251.265 1607.2 242.715" stroke="url(#paint26_linear_60_4162)" stroke-opacity="0.45" stroke-width="4" stroke-miterlimit="10"/>
<path d="M-278.476 365.34C-220.338 365.629 -172.568 363.835 -139.577 361.863C-33.2664 355.802 -13.7462 346.377 31.3234 356.393C80.0383 367.273 88.977 385.064 139.527 387.349C168.185 388.535 197.468 384.432 224.781 375.402C276.634 358.292 274.246 328.284 320.968 299.724C378.65 264.263 449.705 264.794 457.883 264.551C534.382 262.163 583.909 309.864 608.622 335.575C613.679 340.82 617.456 345.419 620.444 348.702C695.729 434.582 648.314 511.64 718.079 536.49C759.722 551.274 814.163 537.842 841.02 531.551C865.638 525.831 888.969 516.737 909.728 504.769C930.996 493.194 950.661 480.782 984.354 469.451C994.679 465.992 1003.97 463.549 1012.33 461.391C1062.94 448.292 1084.76 458.631 1145.52 441.335C1169.04 434.685 1191.22 425.229 1211.13 413.368C1265.19 381.367 1294.88 333.884 1379.41 289.815C1384.36 287.224 1389.56 284.645 1395 282.077C1438.82 261.316 1506.11 237.114 1603.45 227.973" stroke="url(#paint27_linear_60_4162)" stroke-opacity="0.45" stroke-width="4" stroke-miterlimit="10"/>
<path d="M-276.302 368.004C-219.322 368.466 -172.195 366.984 -139.123 365.333C-35.6635 360.202 -15.4304 351.148 29.5176 361.23C77.3409 371.861 86.8014 389.406 135.945 391.735C164.029 392.992 192.749 389.267 219.751 380.865C271.024 365.373 269.518 336.212 315.542 308.474C372.085 274.403 440.88 272.356 450.033 273.353C522.294 281.068 573.542 315.241 598.617 339.2C603.718 344.08 607.399 348.478 610.321 351.532C686.236 431.962 641.786 505.563 710.229 528.603C752.092 542.661 807.098 528.833 835.061 522.472C859.892 516.838 883.616 508.15 905.183 496.794C926.924 485.96 947.095 474.74 980.58 464.875C990.994 461.786 1000.42 459.801 1008.77 457.642C1059.23 444.567 1079.76 452.23 1138.97 433.134C1162.07 425.614 1183.76 415.558 1203.25 403.333C1255.16 371.654 1286.43 322.428 1372.6 277.061C1377.63 274.443 1382.89 271.792 1388.37 269.153C1432.52 247.984 1500.74 222.997 1599.5 213.237" stroke="url(#paint28_linear_60_4162)" stroke-opacity="0.45" stroke-width="4" stroke-miterlimit="10"/>
<path d="M-274.129 370.668C-218.309 371.279 -171.84 370.23 -138.748 368.936C-38.118 364.658 -17.0975 356.036 27.6577 366.147C74.5713 376.628 84.5578 393.735 132.537 396.19C160.028 397.489 188.153 394.097 214.777 386.272C265.271 372.379 264.809 344.042 310.148 317.22C365.538 284.445 431.889 280.779 442.24 282.099C499.875 289.94 551.049 311.149 588.638 342.774C593.782 347.288 597.4 351.481 600.225 354.334C676.678 429.136 635.297 499.529 702.321 520.772C744.536 534.108 800.003 519.853 829.081 513.468C854.126 507.882 878.233 499.59 900.58 488.875C922.858 478.774 943.572 468.764 976.746 460.332C987.319 457.649 996.847 456.104 1005.2 453.945C1055.58 440.857 1074.68 445.937 1132.3 424.999C1154.94 416.594 1176.14 405.95 1195.26 393.388C1244.99 361.867 1278.04 311.108 1365.64 264.378C1370.7 261.709 1376.01 259.009 1381.58 256.278C1426.07 234.724 1495.25 208.946 1595.4 198.596" stroke="url(#paint29_linear_60_4162)" stroke-opacity="0.45" stroke-width="4" stroke-miterlimit="10"/>
<path d="M-271.959 373.308C-217.293 374.116 -171.453 373.472 -138.258 372.425C-40.4579 369.001 -18.6177 360.807 25.8196 370.989C71.7948 381.347 82.4289 397.951 128.991 400.594C155.926 402.004 183.51 399.018 209.828 391.843C259.81 379.58 260.124 352.036 304.807 326.101C359.016 294.436 422.898 294.247 434.458 290.915C503.926 290.728 552.876 325.794 578.701 346.413C583.885 350.539 587.404 354.508 590.362 357.149C667.427 426.384 629.09 493.404 694.656 512.81C737.287 525.414 793.124 510.768 823.34 504.309C848.622 498.777 873.124 490.881 896.221 480.824C919.068 471.451 940.232 462.688 973.187 455.652C983.884 453.358 993.514 452.275 1001.93 450.107C1052.25 437.028 1069.89 439.432 1126.13 416.717C1149.96 407.078 1168.96 395.53 1187.76 383.248C1235.39 351.993 1269.99 299.473 1359.22 251.52C1364.29 248.8 1369.66 246.044 1375.33 243.25C1420.17 221.259 1490.29 194.697 1591.83 183.756" stroke="url(#paint30_linear_60_4162)" stroke-opacity="0.45" stroke-width="4" stroke-miterlimit="10"/>
<path d="M-269.819 375.976C-216.409 376.949 -171.103 376.695 -137.726 375.765C-42.8228 373.181 -20.306 365.555 24.1173 375.643C69.1611 385.926 80.2143 402.037 125.644 404.801C151.97 406.299 178.952 403.678 204.865 397.105C254.065 386.202 255.425 359.721 299.424 334.701C352.479 304.548 413.956 303.882 426.729 299.651C494.036 298.855 542.524 331.05 568.785 349.978C574.014 353.738 577.468 357.501 580.459 359.923C658.098 423.548 622.905 487.205 686.959 504.852C730.006 516.724 786.24 501.661 817.538 495.183C849.41 488.596 871.344 480.363 891.833 472.802C915.249 464.156 936.654 453.493 969.564 450.982C979.301 450.296 988.999 448.724 998.436 446.302C1048.72 433.228 1064.87 433.083 1119.67 408.454C1142.61 398.159 1161.15 385.939 1180.1 373.109C1225.65 342.19 1261.79 287.979 1352.59 238.667C1357.72 235.891 1363.15 233.07 1368.87 230.205C1414.06 207.829 1485.11 180.481 1588.07 168.921" stroke="url(#paint31_linear_60_4162)" stroke-opacity="0.45" stroke-width="4" stroke-miterlimit="10"/>
<path d="M-267.643 378.663C-215.262 379.79 -170.713 379.961 -137.427 379.306C-45.2705 377.469 -21.9235 370.34 22.3139 380.504C66.5514 390.668 78.0522 406.258 122.168 409.243C160.606 411.835 191.358 405.439 200.033 402.586C246.276 387.296 250.821 367.607 294.168 343.498C346.038 314.646 405.185 313.564 419.078 308.472C484.195 307.094 532.174 336.329 558.975 353.598C564.216 356.998 567.607 360.555 570.602 362.785C648.814 420.801 616.851 481.01 679.407 496.992C722.935 508.123 779.47 492.656 811.91 486.127C844.35 479.598 866.607 471.771 887.583 464.83C911.536 456.917 933.855 447.097 966.085 446.41C975.822 446.266 985.611 444.97 995.084 442.572C1045.31 429.507 1059.99 426.808 1113.32 400.295C1135.41 389.338 1153.39 376.437 1172.3 363.181C1215.82 332.758 1253.53 276.663 1345.87 225.997C1351.03 223.168 1356.51 220.291 1362.32 217.366C1407.87 194.576 1479.85 166.443 1584.2 154.269" stroke="url(#paint32_linear_60_4162)" stroke-opacity="0.45" stroke-width="4" stroke-miterlimit="10"/>
<path d="M-265.481 381.257C-214.247 382.627 -170.356 383.231 -137.012 382.735C-47.7068 381.611 -23.5512 375.055 20.4934 385.248C63.7247 395.275 75.8514 410.437 118.71 413.586C156.12 416.332 186.116 410.814 194.93 408.013C240.339 393.517 245.918 375.467 288.644 352.263C339.326 324.688 396.022 323.256 411.149 317.19C474.105 315.204 521.454 341.329 548.86 357.144C552.949 359.772 556.833 362.567 560.496 365.517C639.217 417.934 610.577 474.656 671.446 489.026C715.483 499.387 772.315 483.493 805.872 476.964C838.147 470.651 861.428 463.078 882.927 456.776C907.448 449.591 930.708 440.777 962.197 441.731C971.963 442.14 981.923 441.12 991.518 438.73C1041.71 425.647 1054.89 420.445 1106.79 391.995C1128.05 380.373 1145.41 366.847 1164.41 353.053C1205.91 322.932 1245.17 265.17 1339.05 213.15C1344.25 210.267 1349.79 207.334 1355.67 204.349C1401.49 181.161 1474.47 152.233 1580.24 139.463" stroke="url(#paint33_linear_60_4162)" stroke-opacity="0.45" stroke-width="4" stroke-miterlimit="10"/>
<path d="M-263.315 383.873C-213.244 385.37 -170.026 386.313 -136.562 386.183C-50.1321 385.824 -25.1715 379.816 18.841 390.014C61.166 399.914 73.8083 414.568 115.375 417.863C151.949 420.734 181.028 416.119 190.11 413.349C234.728 399.713 241.459 383.212 283.4 360.914C332.896 334.641 387.331 332.806 403.521 325.935C464.283 323.345 510.973 346.603 539.066 360.642C543.148 363.004 547.028 365.544 550.686 368.252C629.978 415.037 604.653 468.226 663.842 481.03C708.391 490.645 765.496 474.375 800.163 467.8C832.749 461.584 856.639 454.35 878.628 448.692C904.78 442.061 931.729 438.132 958.667 437.023C970.137 436.382 979.958 437.017 988.231 434.989C1038.35 421.893 1050.05 414.236 1100.51 383.826C1120.82 371.58 1137.71 357.335 1156.84 343.045C1196.4 313.404 1237.09 253.779 1332.63 200.385C1337.85 197.476 1343.48 194.458 1349.46 191.387C1395.67 167.734 1469.63 138.062 1576.69 124.716" stroke="url(#paint34_linear_60_4162)" stroke-opacity="0.45" stroke-width="4" stroke-miterlimit="10"/>
<path d="M-260.815 387.612C-211.906 389.258 -169.309 390.653 -135.814 390.733C-52.3666 391.083 -26.6009 385.625 17.0364 395.951C58.4873 405.719 71.6164 419.893 111.926 423.353C147.343 426.397 175.759 422.622 185.112 419.907C229.014 407.191 236.657 392.179 278.043 370.778C326.322 345.811 378.431 343.583 395.74 335.851C454.405 332.642 500.151 352.886 529.105 365.433C533.182 367.523 537.066 369.8 540.739 372.252C620.343 413.442 598.651 463.027 656.099 474.298C701.226 483.158 758.538 466.522 794.348 459.895C827.183 453.809 851.715 446.91 874.195 441.895C899.822 436.171 924.193 434.125 955.098 433.588C966.799 433.391 976.648 434.428 984.871 432.288C1034.93 419.201 1045.18 409.084 1094.18 376.667C1113.61 363.788 1129.95 348.886 1149.15 334.057C1186.82 304.939 1228.94 243.45 1325.89 188.697C1331.16 185.709 1336.82 182.663 1342.88 179.507C1389.44 155.516 1464.23 125.026 1572.8 111.047" stroke="url(#paint35_linear_60_4162)" stroke-opacity="0.45" stroke-width="4" stroke-miterlimit="10"/>
<path d="M-257.726 397.503C-209.973 399.322 -168.049 401.057 -134.473 401.459C-53.7217 402.452 -27.1335 397.66 16.2935 407.898C56.8382 417.538 70.4898 431.252 109.539 434.852C143.928 438.05 171.553 435.135 181.208 432.47C224.401 420.721 232.982 407.147 273.716 386.657C320.759 362.878 370.563 360.398 389.017 351.754C445.446 348.09 487.769 369.396 520.231 376.182C524.788 378.751 528.709 380.795 531.81 382.196C611.82 417.754 593.769 463.782 649.412 473.53C695.14 481.582 752.661 464.58 789.585 457.93C822.669 451.974 847.842 445.409 870.806 440.992C897.002 435.995 922.054 435.426 952.381 436.075C964.313 436.322 974.189 437.761 982.376 435.603C1032.4 422.52 1041.18 410.064 1088.69 375.552C1107.28 362.083 1123.05 346.499 1142.33 331.108C1178.14 302.531 1221.66 239.136 1320.15 183.03C1325.46 180.019 1331.18 176.899 1337.31 173.67C1384.25 149.382 1460.07 118.093 1569.95 103.631" stroke="url(#paint36_linear_60_4162)" stroke-opacity="0.45" stroke-width="4" stroke-miterlimit="10"/>
<path d="M-254.721 406.378C-208.028 408.356 -166.772 410.454 -133.122 411.132C-55.2002 412.764 -27.6573 408.642 15.4301 419.026C55.065 428.516 69.2392 441.769 106.999 445.538C140.356 448.866 167.176 446.717 177.181 444.191C219.703 433.452 229.187 421.296 269.397 401.697C315.329 379.281 362.697 376.328 382.303 366.818C436.521 362.433 478.091 381.341 511.326 386.051C515.022 387.972 518.893 389.716 522.918 391.274C603.244 421.262 588.895 463.483 642.729 471.9C689.091 479.14 746.756 461.782 784.797 455.132C818.159 449.278 843.974 443.047 867.403 439.325C894.168 435.056 919.94 436.005 949.779 437.78C961.912 438.498 971.844 440.311 980.014 438.036C1029.94 424.945 1037.3 410.047 1083.33 373.533C1100.94 359.492 1116.28 343.232 1135.55 327.293C1169.51 299.304 1214.38 233.961 1314.4 176.477C1319.71 173.292 1325.53 170.222 1331.74 166.949C1378.99 142.112 1455.66 110.145 1567.03 94.8866" stroke="url(#paint37_linear_60_4162)" stroke-opacity="0.45" stroke-width="4" stroke-miterlimit="10"/>
<path d="M-251.556 415.229C-206.053 417.385 -165.433 419.842 -131.766 420.852C-56.6837 423.052 -28.5111 419.625 14.5477 430.037C53.2764 439.4 67.973 452.192 104.473 456.102C136.865 459.574 162.549 456.424 173.138 455.819C215.988 453.423 225.372 435.329 264.805 416.683C309.466 395.652 354.561 392.226 375.316 381.827C427.372 376.833 468.111 393.26 502.28 395.869C505.974 397.547 509.84 399.03 513.853 400.305C594.46 424.704 583.881 463.134 636.03 470.177C682.991 476.586 740.839 458.913 780.022 452.212C813.666 446.483 840.093 440.615 864.01 437.514C891.344 433.972 917.779 436.496 947.164 439.414C959.532 440.6 969.452 442.773 977.643 440.639C1027.53 427.529 1033.49 410.259 1077.96 371.683C1094.86 357.031 1109.54 340.105 1128.95 323.594C1161 296.226 1207.31 228.898 1308.86 169.943C1314.24 166.842 1320.07 163.578 1326.35 160.151C1373.93 134.906 1451.56 102.056 1564.33 86.2768" stroke="url(#paint38_linear_60_4162)" stroke-opacity="0.45" stroke-width="4" stroke-miterlimit="10"/>
<path d="M-248.452 424.114C-204.092 426.536 -164.191 429.244 -130.414 430.549C-58.1705 433.317 -29.2005 430.607 13.669 441.072C51.4879 450.283 66.693 462.521 101.935 466.811C133.331 470.433 158.228 467.95 169.084 467.592C210.985 466.103 221.546 449.506 260.359 431.766C303.782 411.901 346.604 408.218 368.475 396.934C418.341 391.36 458.434 405.229 493.156 405.818C496.847 407.26 500.71 408.48 504.71 409.469C585.536 428.311 578.92 462.92 628.967 468.652C676.681 474.159 734.583 456.192 774.851 449.495C808.773 443.868 835.845 438.358 860.253 435.9C888.156 433.087 915.26 437.231 944.164 441.107C956.741 442.811 966.714 445.335 974.869 443.182C1024.69 430.082 1029.31 410.453 1072.32 369.778C1088.37 354.535 1102.5 336.951 1121.95 319.86C1152.38 293.093 1199.84 223.798 1302.95 163.653C1308.37 160.468 1314.27 157.194 1320.64 153.833C1368.59 128.198 1447.12 94.5669 1561.31 78.1923" stroke="url(#paint39_linear_60_4162)" stroke-opacity="0.45" stroke-width="4" stroke-miterlimit="10"/>
<path d="M-245.351 432.975C-202.262 435.468 -162.919 438.618 -129.061 440.245C-59.5674 443.521 -29.8859 441.613 12.7873 452.083C49.7321 461.162 65.4451 473.061 99.4093 477.375C129.777 481.15 153.887 479.335 165.041 479.22C205.98 478.759 217.729 463.515 255.892 446.709C298.095 428.127 338.594 424.074 361.613 411.901C409.319 405.717 448.484 417.119 484.139 415.608C487.836 416.803 491.694 417.754 495.671 418.449C576.538 431.858 574.007 462.364 622.137 466.924C670.267 471.484 728.545 453.389 769.948 446.595C804.116 441.074 831.83 435.898 856.793 434.075C885.233 431.994 912.986 437.62 941.476 442.681C954.262 444.903 964.28 447.732 972.407 445.607C1022.16 432.493 1025.48 410.549 1066.76 367.764C1082.04 351.944 1095.6 333.703 1115.1 316.008C1143.79 289.931 1192.53 218.605 1297.13 156.994C1302.56 153.789 1308.54 150.503 1314.98 146.934C1363.18 120.806 1442.67 86.3853 1558.27 69.5136" stroke="url(#paint40_linear_60_4162)" stroke-opacity="0.45" stroke-width="4" stroke-miterlimit="10"/>
<path d="M-242.254 441.812C-200.225 444.464 -161.618 447.963 -127.683 449.89C-61.1319 453.702 -30.5817 452.548 11.9021 463.071C47.9407 472.023 64.2369 483.428 96.8337 487.826C126.237 491.746 149.56 490.599 160.981 490.731C200.971 491.177 213.865 477.436 251.441 461.53C292.386 444.212 330.57 439.836 354.674 426.784C400.182 419.973 438.548 428.887 475.009 425.295C478.738 426.24 482.602 426.933 486.557 427.369C567.794 435.343 569.115 461.733 615.3 465.15C664.44 468.77 722.472 450.353 765.039 443.647C799.449 438.21 827.808 433.392 853.197 432.222C882.206 430.869 910.582 438.242 938.648 444.204C951.657 447.039 961.678 450.106 969.801 447.957C1019.53 434.872 1021.55 410.588 1061.19 365.681C1075.66 349.288 1088.78 330.468 1108.17 312.095C1135.19 286.699 1185.14 213.351 1291.27 150.362C1296.76 147.101 1302.77 143.684 1309.29 140.11C1357.91 113.705 1438.33 78.4747 1555.34 60.8907" stroke="url(#paint41_linear_60_4162)" stroke-opacity="0.45" stroke-width="4" stroke-miterlimit="10"/>
<path d="M-239.146 450.72C-198.274 453.545 -160.343 457.36 -126.323 459.633C-62.5935 463.915 -31.2319 463.573 11.034 474.175C46.1593 482.954 62.9173 493.931 94.318 498.461C114.83 501.129 135.785 502.457 156.949 502.429C195.987 503.759 210.026 491.52 246.985 476.543C286.674 460.489 322.717 455.644 347.887 441.811C391.209 434.442 428.8 440.819 466.071 435.169C469.818 435.857 473.676 436.28 477.596 436.433C558.749 439.016 564.298 461.163 608.477 463.469C658.384 466.066 716.543 448.06 760.107 440.775C794.73 434.995 823.771 431.007 849.679 430.453C879.161 429.842 908.246 438.879 935.899 445.811C949.074 449.099 959.187 452.559 967.278 450.415C1016.94 437.316 1017.72 410.73 1055.7 363.681C1069.36 346.74 1081.88 327.22 1101.36 308.261C1126.68 283.574 1177.82 208.181 1285.5 143.815C1291.03 140.596 1297.07 137.038 1303.65 133.398C1352.63 106.532 1433.99 70.5406 1552.39 52.366" stroke="url(#paint42_linear_60_4162)" stroke-opacity="0.45" stroke-width="4" stroke-miterlimit="10"/>
<path d="M-236.042 459.604C-196.167 462.579 -159.043 466.706 -124.978 469.283C-64.0764 473.988 -31.932 474.485 10.1767 485.135C44.328 493.772 61.6441 504.307 91.7523 508.983C111.786 511.877 132.236 513.613 152.923 514.173C191.067 516.331 206.19 505.627 242.539 491.627C280.964 476.79 314.61 471.73 341.046 456.918C382.203 448.917 418.995 452.807 457.039 445.081C460.813 445.502 464.665 445.662 468.545 445.558C549.825 442.838 559.52 460.635 601.667 461.882C652.362 463.381 710.504 445.258 755.221 437.991C790.125 432.337 819.776 428.688 846.175 428.778C876.29 428.885 905.859 439.619 933.195 447.507C946.487 451.351 956.709 455.106 964.768 452.967C1014.39 439.849 1013.95 410.96 1050.19 361.78C1063.11 344.257 1075.11 324.121 1094.53 304.55C1118.28 280.576 1170.56 203.123 1279.8 137.351C1285.34 134.01 1291.48 130.462 1298.15 126.737C1347.5 99.4817 1429.86 62.6949 1549.58 43.9158" stroke="url(#paint43_linear_60_4162)" stroke-opacity="0.45" stroke-width="4" stroke-miterlimit="10"/>
<path d="M-232.971 468.494C-194.384 471.637 -157.743 476.052 -123.615 479.049C-65.6344 484.216 -32.5787 485.533 9.30847 496.24C42.6178 504.74 60.4026 514.894 89.2399 519.64C108.778 522.653 128.687 524.689 148.838 525.736C186.115 528.692 202.329 519.571 237.965 506.514C275.166 492.936 306.496 487.554 334.077 471.829C373.044 463.247 409.034 464.627 447.912 454.792C451.712 454.955 455.558 454.851 459.399 454.483C540.812 446.506 554.532 459.803 594.726 460.076C646.207 460.452 704.334 442.236 750.211 435.035C785.361 429.487 815.654 426.173 842.543 426.906C873.227 427.742 903.344 440.163 930.331 449.011C943.775 453.431 954.064 457.414 962.13 455.322C1011.69 442.214 1010.1 410.985 1044.58 359.678C1056.73 341.601 1068.35 320.853 1087.57 300.642C1109.85 277.39 1163.15 197.991 1273.94 130.72C1279.51 127.327 1285.71 123.722 1292.47 119.936C1342.15 92.2958 1425.38 54.7098 1546.59 35.3959" stroke="url(#paint44_linear_60_4162)" stroke-opacity="0.45" stroke-width="4" stroke-miterlimit="10"/>
<path d="M-229.866 477.378C-192.433 480.718 -156.382 485.364 -122.254 488.793C-66.9487 494.311 -33.2604 496.562 8.43393 507.298C40.8657 515.642 59.1373 525.317 86.6891 530.255C105.754 533.474 125.156 535.863 144.802 537.41C181.213 541.166 198.451 533.613 233.602 521.489C269.54 509.129 298.59 503.442 327.322 486.852C364.129 477.661 399.315 476.531 439.006 464.661C442.833 464.462 446.662 464.089 450.471 463.542C532.499 453.967 549.824 459.073 588.007 458.427C640.251 457.542 698.348 438.9 745.384 432.195C780.775 427.161 811.749 423.792 839.13 425.17C870.382 426.733 900.987 440.874 927.686 450.65C941.281 455.645 951.68 459.923 959.71 457.812C1009.24 444.709 1006.52 411.187 1039.17 357.762C1050.57 339.103 1061.67 317.764 1080.85 296.841C1101.47 274.339 1156 192.75 1268.17 124.219C1273.81 120.761 1280.04 117.11 1286.87 113.267C1336.88 85.1706 1421.08 46.8179 1543.67 26.8431" stroke="url(#paint45_linear_60_4162)" stroke-opacity="0.45" stroke-width="4" stroke-miterlimit="10"/>
<path d="M-226.765 486.239C-190.493 489.729 -155.092 494.64 -120.905 498.466C-68.374 504.328 -33.9567 507.498 7.55183 518.309C39.0738 526.503 57.8393 535.745 84.1628 540.819C108.528 545.541 127.868 547.429 140.767 549.085C176.336 553.588 194.601 547.627 229.146 536.503C260.382 526.355 290.886 514.785 320.468 501.865C352.982 488.152 386.983 474.264 429.964 474.502C433.836 474.317 437.7 473.674 441.41 472.598C523.246 454.276 544.975 458.293 581.187 456.77C634.214 454.524 692.299 436.028 740.488 429.341C776.25 424.371 807.744 421.403 835.612 423.401C867.418 425.814 898.529 441.577 924.939 452.281C938.654 457.856 949.192 462.4 957.219 460.266C1006.65 447.153 1002.86 411.305 1033.58 355.777C1044.24 336.536 1054.93 314.636 1073.91 293.05C1092.89 271.463 1148.74 187.739 1262.29 117.662C1267.95 114.209 1274.36 110.453 1281.17 106.541C1331.55 78.055 1416.64 38.9218 1540.69 18.3233" stroke="url(#paint46_linear_60_4162)" stroke-opacity="0.45" stroke-width="4" stroke-miterlimit="10"/>
<path d="M-223.662 495.123C-188.547 498.786 -153.788 503.794 -119.511 508.227C-69.786 514.438 -34.604 518.545 6.68306 529.414C37.456 537.433 56.5868 546.262 81.6177 551.482C104.99 556.376 123.754 558.804 136.73 560.759C171.491 566.006 190.714 561.622 224.686 551.493C258.06 541.548 279.762 531.987 313.616 516.902C344.11 503.3 377.728 496.523 420.954 484.339C424.927 483.218 428.822 482.683 432.384 481.672C514.499 458.191 540.119 457.465 574.367 455.113C628.126 451.395 686.285 433.174 735.559 426.492C771.599 421.624 803.739 419.014 832.09 421.609C864.451 424.656 896.028 442.214 922.186 453.865C936.02 460.019 946.825 464.81 954.691 462.7C1004.05 449.597 999.224 411.394 1028.14 353.674C1038.09 333.846 1048.4 311.429 1067.14 289.113C1084.8 268.107 1141.54 182.456 1256.6 111.007C1262.32 107.497 1268.65 103.704 1275.64 99.6929C1326.35 70.8219 1412.42 30.8984 1537.82 9.69076" stroke="url(#paint47_linear_60_4162)" stroke-opacity="0.45" stroke-width="4" stroke-miterlimit="10"/>
<path d="M-220.401 503.96C-186.443 507.796 -152.267 513.082 -118.008 517.83C-71.0293 524.356 -35.1574 529.34 5.95431 540.354C35.6889 548.242 55.4743 556.614 79.2483 561.998C101.588 567.023 119.644 569.988 132.841 572.316C166.825 578.301 187.007 575.495 220.408 566.383C252.48 557.614 272.203 548.23 306.925 531.915C335.495 518.41 368.125 509.198 412.076 494.18C415.985 492.853 419.925 491.953 423.519 490.722C505.982 462.096 536.161 460.879 567.707 453.432C621.476 440.938 675.968 430.993 730.831 423.661C767.145 418.872 799.898 416.624 828.843 419.895C861.773 423.67 893.773 442.958 919.61 455.541C933.532 462.281 944.376 467.329 952.342 465.228C1001.67 452.106 995.768 411.577 1022.84 351.861C1032.08 331.47 1042.09 308.525 1060.52 285.466C1076.71 265.229 1134.42 177.449 1251.01 104.646C1256.75 101.085 1263.05 97.2494 1270.22 93.1627C1321.3 63.855 1408.27 23.151 1535.09 1.37122" stroke="url(#paint48_linear_60_4162)" stroke-opacity="0.45" stroke-width="4" stroke-miterlimit="10"/>
<path d="M-217.842 510.296C-185.041 514.305 -151.466 519.753 -117.069 524.982C-72.8105 531.771 -36.2815 537.853 4.78757 548.802C33.6306 556.44 53.9273 564.497 76.4374 569.999C97.7527 575.201 115.132 578.697 128.474 581.339C161.774 588.023 182.82 586.81 215.65 578.716C246.451 571.117 264.311 562.012 299.757 544.178C326.464 530.736 358.248 519.165 402.754 501.266C406.628 499.705 410.518 498.478 414.174 496.998C497.055 463.265 530.86 456.197 560.575 449.024C614.886 435.855 670.042 425.499 725.619 418.033C762.179 413.35 795.577 411.46 824.884 415.395C858.423 419.939 890.803 440.892 916.531 454.281C930.508 461.609 941.429 466.957 949.488 464.818C998.748 451.683 991.872 408.813 1016.99 346.975C1025.51 325.974 1035.31 302.534 1053.34 278.746C1068.13 259.245 1126.77 169.365 1244.9 95.1839C1250.67 91.5709 1257.14 87.6602 1264.28 83.5315C1315.69 53.8153 1403.62 12.3211 1531.84 -10.0727" stroke="url(#paint49_linear_60_4162)" stroke-opacity="0.45" stroke-width="4" stroke-miterlimit="10"/>
<path d="M-215.675 513.582C-184.031 517.765 -151.002 523.294 -116.781 529.099C-75.2438 536.153 -37.9181 543.167 2.71154 554.253C30.6875 561.806 51.4388 569.388 72.6851 575.007C93.0075 580.382 109.704 584.363 123.244 587.453C155.861 594.838 177.765 595.194 209.996 588.146C239.523 581.694 255.672 573.013 291.708 553.632C316.598 540.342 347.622 526.326 392.518 505.547C396.392 503.772 400.266 502.212 403.919 500.493C487.34 461.587 524.504 448.636 552.558 441.783C607.18 428.467 666.829 416.24 719.496 409.625C756.328 404.997 790.342 403.492 820.172 408.066C854.241 413.296 887.015 436.007 912.604 450.445C926.673 458.382 937.854 463.929 945.784 461.81C995.016 448.703 987.126 403.45 1010.32 339.533C1018.13 317.944 1027.79 294.023 1045.31 269.475C1058.74 250.728 1118.28 158.752 1237.94 83.1935C1243.77 79.5475 1250.27 75.5618 1257.5 71.3485C1309.28 41.2423 1398.11 -1.03238 1527.73 -24.0917" stroke="url(#paint50_linear_60_4162)" stroke-opacity="0.45" stroke-width="4" stroke-miterlimit="10"/>
<path d="M-213.371 516.681C-182.855 521.008 -150.34 526.614 -116.193 533.028C-76.3086 540.287 -37.1676 549.13 1.06839 559.521C28.1702 566.941 49.2583 574.138 69.3977 579.827C88.6701 585.431 104.712 589.868 118.44 593.337C150.409 601.44 173.137 603.346 204.772 597.368C233.054 592.035 247.609 583.903 284.089 562.878C307.262 549.534 337.582 533.232 382.744 509.616C386.583 507.607 390.44 505.715 394.126 503.776C478.055 459.701 518.102 439.672 544.97 434.335C601.11 423.255 660.008 407.553 713.836 401.003C750.939 396.43 785.576 395.359 815.893 400.553C850.531 406.511 883.678 431.055 909.104 446.378C923.196 454.909 934.579 460.713 942.513 458.617C991.674 445.473 982.709 397.87 1004.05 331.864C1011.38 307.236 1022.69 283.079 1037.7 259.925C1049.79 241.881 1110.2 147.838 1231.37 70.9066C1237.23 67.209 1243.79 63.1669 1251.1 58.8925C1303.21 28.3777 1393.01 -14.6871 1524.03 -38.2904" stroke="url(#paint51_linear_60_4162)" stroke-opacity="0.45" stroke-width="4" stroke-miterlimit="10"/>
<path d="M-211.153 519.648C-139.107 530.705 -68.7642 545.75 -0.692551 564.662C108.815 595.112 140.576 615.656 199.426 606.441C242.286 599.716 250.422 584.917 372.816 513.541C464.869 459.857 510.907 433.097 537.264 426.761C632.009 404.236 735.397 378.433 811.493 392.891C866.349 403.307 916.974 460.981 939.093 455.088C1004.65 437.576 965.283 354.331 1030 250.198C1040.78 232.852 1102.04 136.769 1224.75 58.461C1272.38 28.0674 1369.17 -25.1069 1520.26 -52.7179" stroke="url(#paint52_linear_60_4162)" stroke-opacity="0.45" stroke-width="4" stroke-miterlimit="10"/>
<defs>
<linearGradient id="paint0_linear_60_4162" x1="660.775" y1="121.351" x2="700.8" y2="388.77" gradientUnits="userSpaceOnUse">
<stop stop-color="#DCE6F9"/>
<stop offset="0.5" stop-color="#CA064D"/>
<stop offset="1" stop-color="#DCE6F9"/>
</linearGradient>
<linearGradient id="paint1_linear_60_4162" x1="661.169" y1="130.234" x2="700.133" y2="390.567" gradientUnits="userSpaceOnUse">
<stop stop-color="#DCE6F9"/>
<stop offset="0.5" stop-color="#CA064D"/>
<stop offset="1" stop-color="#DCE6F9"/>
</linearGradient>
<linearGradient id="paint2_linear_60_4162" x1="661.634" y1="139.155" x2="699.529" y2="392.351" gradientUnits="userSpaceOnUse">
<stop stop-color="#DCE6F9"/>
<stop offset="0.5" stop-color="#CA064D"/>
<stop offset="1" stop-color="#DCE6F9"/>
</linearGradient>
<linearGradient id="paint3_linear_60_4162" x1="661.916" y1="147.96" x2="698.77" y2="394.194" gradientUnits="userSpaceOnUse">
<stop stop-color="#DCE6F9"/>
<stop offset="0.5" stop-color="#CA064D"/>
<stop offset="1" stop-color="#DCE6F9"/>
</linearGradient>
<linearGradient id="paint4_linear_60_4162" x1="662.289" y1="156.822" x2="698.09" y2="396.024" gradientUnits="userSpaceOnUse">
<stop stop-color="#DCE6F9"/>
<stop offset="0.5" stop-color="#CA064D"/>
<stop offset="1" stop-color="#DCE6F9"/>
</linearGradient>
<linearGradient id="paint5_linear_60_4162" x1="662.615" y1="165.692" x2="697.361" y2="397.843" gradientUnits="userSpaceOnUse">
<stop stop-color="#DCE6F9"/>
<stop offset="0.5" stop-color="#CA064D"/>
<stop offset="1" stop-color="#DCE6F9"/>
</linearGradient>
<linearGradient id="paint6_linear_60_4162" x1="662.921" y1="174.541" x2="696.617" y2="399.682" gradientUnits="userSpaceOnUse">
<stop stop-color="#DCE6F9"/>
<stop offset="0.5" stop-color="#CA064D"/>
<stop offset="1" stop-color="#DCE6F9"/>
</linearGradient>
<linearGradient id="paint7_linear_60_4162" x1="663.391" y1="183.389" x2="696.038" y2="401.517" gradientUnits="userSpaceOnUse">
<stop stop-color="#DCE6F9"/>
<stop offset="0.5" stop-color="#CA064D"/>
<stop offset="1" stop-color="#DCE6F9"/>
</linearGradient>
<linearGradient id="paint8_linear_60_4162" x1="663.809" y1="192.222" x2="695.398" y2="403.282" gradientUnits="userSpaceOnUse">
<stop stop-color="#DCE6F9"/>
<stop offset="0.5" stop-color="#CA064D"/>
<stop offset="1" stop-color="#DCE6F9"/>
</linearGradient>
<linearGradient id="paint9_linear_60_4162" x1="664.195" y1="201.058" x2="694.742" y2="405.156" gradientUnits="userSpaceOnUse">
<stop stop-color="#DCE6F9"/>
<stop offset="0.5" stop-color="#CA064D"/>
<stop offset="1" stop-color="#DCE6F9"/>
</linearGradient>
<linearGradient id="paint10_linear_60_4162" x1="664.466" y1="209.889" x2="693.967" y2="406.993" gradientUnits="userSpaceOnUse">
<stop stop-color="#DCE6F9"/>
<stop offset="0.5" stop-color="#CA064D"/>
<stop offset="1" stop-color="#DCE6F9"/>
</linearGradient>
<linearGradient id="paint11_linear_60_4162" x1="664.964" y1="218.709" x2="693.422" y2="408.849" gradientUnits="userSpaceOnUse">
<stop stop-color="#DCE6F9"/>
<stop offset="0.5" stop-color="#CA064D"/>
<stop offset="1" stop-color="#DCE6F9"/>
</linearGradient>
<linearGradient id="paint12_linear_60_4162" x1="665.283" y1="227.532" x2="692.697" y2="410.692" gradientUnits="userSpaceOnUse">
<stop stop-color="#DCE6F9"/>
<stop offset="0.5" stop-color="#CA064D"/>
<stop offset="1" stop-color="#DCE6F9"/>
</linearGradient>
<linearGradient id="paint13_linear_60_4162" x1="664.916" y1="231.34" x2="692.77" y2="417.442" gradientUnits="userSpaceOnUse">
<stop stop-color="#DCE6F9"/>
<stop offset="0.5" stop-color="#CA064D"/>
<stop offset="1" stop-color="#DCE6F9"/>
</linearGradient>
<linearGradient id="paint14_linear_60_4162" x1="664.092" y1="232.97" x2="693.033" y2="426.334" gradientUnits="userSpaceOnUse">
<stop stop-color="#DCE6F9"/>
<stop offset="0.5" stop-color="#CA064D"/>
<stop offset="1" stop-color="#DCE6F9"/>
</linearGradient>
<linearGradient id="paint15_linear_60_4162" x1="663.502" y1="234.517" x2="693.664" y2="436.041" gradientUnits="userSpaceOnUse">
<stop stop-color="#DCE6F9"/>
<stop offset="0.5" stop-color="#CA064D"/>
<stop offset="1" stop-color="#DCE6F9"/>
</linearGradient>
<linearGradient id="paint16_linear_60_4162" x1="662.64" y1="235.124" x2="694.169" y2="445.779" gradientUnits="userSpaceOnUse">
<stop stop-color="#DCE6F9"/>
<stop offset="0.5" stop-color="#CA064D"/>
<stop offset="1" stop-color="#DCE6F9"/>
</linearGradient>
<linearGradient id="paint17_linear_60_4162" x1="661.46" y1="233.938" x2="694.945" y2="457.667" gradientUnits="userSpaceOnUse">
<stop stop-color="#DCE6F9"/>
<stop offset="0.5" stop-color="#CA064D"/>
<stop offset="1" stop-color="#DCE6F9"/>
</linearGradient>
<linearGradient id="paint18_linear_60_4162" x1="660.426" y1="232.73" x2="695.864" y2="469.507" gradientUnits="userSpaceOnUse">
<stop stop-color="#DCE6F9"/>
<stop offset="0.5" stop-color="#CA064D"/>
<stop offset="1" stop-color="#DCE6F9"/>
</linearGradient>
<linearGradient id="paint19_linear_60_4162" x1="659.245" y1="231.544" x2="696.656" y2="481.497" gradientUnits="userSpaceOnUse">
<stop stop-color="#DCE6F9"/>
<stop offset="0.5" stop-color="#CA064D"/>
<stop offset="1" stop-color="#DCE6F9"/>
</linearGradient>
<linearGradient id="paint20_linear_60_4162" x1="658.066" y1="230.357" x2="697.414" y2="493.252" gradientUnits="userSpaceOnUse">
<stop stop-color="#DCE6F9"/>
<stop offset="0.5" stop-color="#CA064D"/>
<stop offset="1" stop-color="#DCE6F9"/>
</linearGradient>
<linearGradient id="paint21_linear_60_4162" x1="657.014" y1="229.152" x2="698.303" y2="505.015" gradientUnits="userSpaceOnUse">
<stop stop-color="#DCE6F9"/>
<stop offset="0.5" stop-color="#CA064D"/>
<stop offset="1" stop-color="#DCE6F9"/>
</linearGradient>
<linearGradient id="paint22_linear_60_4162" x1="655.884" y1="227.958" x2="699.138" y2="516.955" gradientUnits="userSpaceOnUse">
<stop stop-color="#DCE6F9"/>
<stop offset="0.5" stop-color="#CA064D"/>
<stop offset="1" stop-color="#DCE6F9"/>
</linearGradient>
<linearGradient id="paint23_linear_60_4162" x1="654.847" y1="226.75" x2="700.043" y2="528.719" gradientUnits="userSpaceOnUse">
<stop stop-color="#DCE6F9"/>
<stop offset="0.5" stop-color="#CA064D"/>
<stop offset="1" stop-color="#DCE6F9"/>
</linearGradient>
<linearGradient id="paint24_linear_60_4162" x1="653.684" y1="225.561" x2="700.852" y2="540.704" gradientUnits="userSpaceOnUse">
<stop stop-color="#DCE6F9"/>
<stop offset="0.5" stop-color="#CA064D"/>
<stop offset="1" stop-color="#DCE6F9"/>
</linearGradient>
<linearGradient id="paint25_linear_60_4162" x1="652.552" y1="224.368" x2="701.676" y2="552.584" gradientUnits="userSpaceOnUse">
<stop stop-color="#DCE6F9"/>
<stop offset="0.5" stop-color="#CA064D"/>
<stop offset="1" stop-color="#DCE6F9"/>
</linearGradient>
<linearGradient id="paint26_linear_60_4162" x1="651.373" y1="223.182" x2="702.454" y2="564.47" gradientUnits="userSpaceOnUse">
<stop stop-color="#DCE6F9"/>
<stop offset="0.5" stop-color="#CA064D"/>
<stop offset="1" stop-color="#DCE6F9"/>
</linearGradient>
<linearGradient id="paint27_linear_60_4162" x1="651.923" y1="226.088" x2="701.119" y2="554.786" gradientUnits="userSpaceOnUse">
<stop stop-color="#DCE6F9"/>
<stop offset="0.5" stop-color="#CA064D"/>
<stop offset="1" stop-color="#DCE6F9"/>
</linearGradient>
<linearGradient id="paint28_linear_60_4162" x1="652.377" y1="229.009" x2="699.688" y2="545.112" gradientUnits="userSpaceOnUse">
<stop stop-color="#DCE6F9"/>
<stop offset="0.5" stop-color="#CA064D"/>
<stop offset="1" stop-color="#DCE6F9"/>
</linearGradient>
<linearGradient id="paint29_linear_60_4162" x1="652.75" y1="231.942" x2="698.185" y2="535.509" gradientUnits="userSpaceOnUse">
<stop stop-color="#DCE6F9"/>
<stop offset="0.5" stop-color="#CA064D"/>
<stop offset="1" stop-color="#DCE6F9"/>
</linearGradient>
<linearGradient id="paint30_linear_60_4162" x1="653.393" y1="234.811" x2="696.944" y2="525.787" gradientUnits="userSpaceOnUse">
<stop stop-color="#DCE6F9"/>
<stop offset="0.5" stop-color="#CA064D"/>
<stop offset="1" stop-color="#DCE6F9"/>
</linearGradient>
<linearGradient id="paint31_linear_60_4162" x1="653.927" y1="237.719" x2="695.59" y2="516.089" gradientUnits="userSpaceOnUse">
<stop stop-color="#DCE6F9"/>
<stop offset="0.5" stop-color="#CA064D"/>
<stop offset="1" stop-color="#DCE6F9"/>
</linearGradient>
<linearGradient id="paint32_linear_60_4162" x1="654.415" y1="240.659" x2="694.207" y2="506.524" gradientUnits="userSpaceOnUse">
<stop stop-color="#DCE6F9"/>
<stop offset="0.5" stop-color="#CA064D"/>
<stop offset="1" stop-color="#DCE6F9"/>
</linearGradient>
<linearGradient id="paint33_linear_60_4162" x1="654.858" y1="243.51" x2="692.766" y2="496.788" gradientUnits="userSpaceOnUse">
<stop stop-color="#DCE6F9"/>
<stop offset="0.5" stop-color="#CA064D"/>
<stop offset="1" stop-color="#DCE6F9"/>
</linearGradient>
<linearGradient id="paint34_linear_60_4162" x1="655.498" y1="246.355" x2="691.53" y2="487.1" gradientUnits="userSpaceOnUse">
<stop stop-color="#DCE6F9"/>
<stop offset="0.5" stop-color="#CA064D"/>
<stop offset="1" stop-color="#DCE6F9"/>
</linearGradient>
<linearGradient id="paint35_linear_60_4162" x1="655.811" y1="248.11" x2="690.318" y2="478.668" gradientUnits="userSpaceOnUse">
<stop stop-color="#DCE6F9"/>
<stop offset="0.5" stop-color="#CA064D"/>
<stop offset="1" stop-color="#DCE6F9"/>
</linearGradient>
<linearGradient id="paint36_linear_60_4162" x1="654.604" y1="240.494" x2="690.374" y2="479.485" gradientUnits="userSpaceOnUse">
<stop stop-color="#DCE6F9"/>
<stop offset="0.5" stop-color="#CA064D"/>
<stop offset="1" stop-color="#DCE6F9"/>
</linearGradient>
<linearGradient id="paint37_linear_60_4162" x1="653.303" y1="231.575" x2="690.715" y2="481.537" gradientUnits="userSpaceOnUse">
<stop stop-color="#DCE6F9"/>
<stop offset="0.5" stop-color="#CA064D"/>
<stop offset="1" stop-color="#DCE6F9"/>
</linearGradient>
<linearGradient id="paint38_linear_60_4162" x1="652.197" y1="222.754" x2="691.244" y2="483.645" gradientUnits="userSpaceOnUse">
<stop stop-color="#DCE6F9"/>
<stop offset="0.5" stop-color="#CA064D"/>
<stop offset="1" stop-color="#DCE6F9"/>
</linearGradient>
<linearGradient id="paint39_linear_60_4162" x1="650.934" y1="214.431" x2="691.539" y2="485.725" gradientUnits="userSpaceOnUse">
<stop stop-color="#DCE6F9"/>
<stop offset="0.5" stop-color="#CA064D"/>
<stop offset="1" stop-color="#DCE6F9"/>
</linearGradient>
<linearGradient id="paint40_linear_60_4162" x1="649.615" y1="205.506" x2="691.854" y2="487.719" gradientUnits="userSpaceOnUse">
<stop stop-color="#DCE6F9"/>
<stop offset="0.5" stop-color="#CA064D"/>
<stop offset="1" stop-color="#DCE6F9"/>
</linearGradient>
<linearGradient id="paint41_linear_60_4162" x1="648.354" y1="196.639" x2="692.205" y2="489.627" gradientUnits="userSpaceOnUse">
<stop stop-color="#DCE6F9"/>
<stop offset="0.5" stop-color="#CA064D"/>
<stop offset="1" stop-color="#DCE6F9"/>
</linearGradient>
<linearGradient id="paint42_linear_60_4162" x1="647.09" y1="187.862" x2="692.557" y2="491.646" gradientUnits="userSpaceOnUse">
<stop stop-color="#DCE6F9"/>
<stop offset="0.5" stop-color="#CA064D"/>
<stop offset="1" stop-color="#DCE6F9"/>
</linearGradient>
<linearGradient id="paint43_linear_60_4162" x1="645.903" y1="179.168" x2="692.987" y2="493.752" gradientUnits="userSpaceOnUse">
<stop stop-color="#DCE6F9"/>
<stop offset="0.5" stop-color="#CA064D"/>
<stop offset="1" stop-color="#DCE6F9"/>
</linearGradient>
<linearGradient id="paint44_linear_60_4162" x1="644.606" y1="170.396" x2="693.288" y2="495.653" gradientUnits="userSpaceOnUse">
<stop stop-color="#DCE6F9"/>
<stop offset="0.5" stop-color="#CA064D"/>
<stop offset="1" stop-color="#DCE6F9"/>
</linearGradient>
<linearGradient id="paint45_linear_60_4162" x1="643.355" y1="161.593" x2="693.664" y2="497.725" gradientUnits="userSpaceOnUse">
<stop stop-color="#DCE6F9"/>
<stop offset="0.5" stop-color="#CA064D"/>
<stop offset="1" stop-color="#DCE6F9"/>
</linearGradient>
<linearGradient id="paint46_linear_60_4162" x1="642.075" y1="152.818" x2="694.001" y2="499.756" gradientUnits="userSpaceOnUse">
<stop stop-color="#DCE6F9"/>
<stop offset="0.5" stop-color="#CA064D"/>
<stop offset="1" stop-color="#DCE6F9"/>
</linearGradient>
<linearGradient id="paint47_linear_60_4162" x1="640.844" y1="143.941" x2="694.397" y2="501.749" gradientUnits="userSpaceOnUse">
<stop stop-color="#DCE6F9"/>
<stop offset="0.5" stop-color="#CA064D"/>
<stop offset="1" stop-color="#DCE6F9"/>
</linearGradient>
<linearGradient id="paint48_linear_60_4162" x1="639.791" y1="135.371" x2="694.939" y2="503.836" gradientUnits="userSpaceOnUse">
<stop stop-color="#DCE6F9"/>
<stop offset="0.5" stop-color="#CA064D"/>
<stop offset="1" stop-color="#DCE6F9"/>
</linearGradient>
<linearGradient id="paint49_linear_60_4162" x1="638.077" y1="123.696" x2="695.632" y2="508.244" gradientUnits="userSpaceOnUse">
<stop stop-color="#DCE6F9"/>
<stop offset="0.5" stop-color="#CA064D"/>
<stop offset="1" stop-color="#DCE6F9"/>
</linearGradient>
<linearGradient id="paint50_linear_60_4162" x1="635.774" y1="109.408" x2="696.617" y2="515.929" gradientUnits="userSpaceOnUse">
<stop stop-color="#DCE6F9"/>
<stop offset="0.5" stop-color="#CA064D"/>
<stop offset="1" stop-color="#DCE6F9"/>
</linearGradient>
<linearGradient id="paint51_linear_60_4162" x1="633.743" y1="94.9589" x2="697.917" y2="523.735" gradientUnits="userSpaceOnUse">
<stop stop-color="#DCE6F9"/>
<stop offset="0.5" stop-color="#CA064D"/>
<stop offset="1" stop-color="#DCE6F9"/>
</linearGradient>
<linearGradient id="paint52_linear_60_4162" x1="631.628" y1="80.2836" x2="699.183" y2="531.648" gradientUnits="userSpaceOnUse">
<stop stop-color="#DCE6F9"/>
<stop offset="0.5" stop-color="#CA064D"/>
<stop offset="1" stop-color="#DCE6F9"/>
</linearGradient>
</defs>
</svg>
