<svg width="153" height="153" viewBox="0 0 153 153" fill="none" xmlns="http://www.w3.org/2000/svg">
<g clip-path="url(#clip0_56_3442)">
<path d="M65.4765 102.011C63.3838 102.66 61.3467 103.296 59.2865 103.94C59.0678 102.389 58.9332 100.908 58.6419 99.4587C57.3684 93.1228 54.8859 87.3373 50.7713 82.2915C48.1006 79.0163 45.6223 75.607 43.8648 71.7285C41.5693 66.6629 40.6104 61.351 41.0499 55.8165C42.0144 43.67 48.4687 35.1782 58.9172 29.4942C65.0326 26.1674 71.6465 24.7126 78.6118 25.0873C83.7317 25.3627 88.5947 26.7017 93.2158 28.9265C93.6312 29.1266 93.7846 29.3642 93.7733 29.8384C93.7365 31.3712 93.7595 32.9055 93.7595 34.5555C93.4734 34.4039 93.2544 34.293 93.0403 34.1736C87.0328 30.8236 80.6079 29.1792 73.7406 29.9077C63.7885 30.9634 55.5848 35.2553 49.8953 43.6911C46.3406 48.9616 45.2299 54.8697 45.8234 61.1661C46.4299 67.6006 49.3311 72.9899 53.3186 77.8723C56.3208 81.5482 58.9774 85.424 60.6429 89.886C61.5706 92.3714 62.2633 94.9445 63.0628 97.4778C63.09 97.5639 63.1259 97.6473 63.1797 97.7906C67.2419 96.5342 71.2826 95.2845 75.3992 94.0113C75.3992 92.6818 75.4034 91.3411 75.3978 90.0005C75.3938 89.0575 75.6617 87.9734 75.2849 87.2111C74.9084 86.4496 73.8847 86.0047 73.1374 85.4306C71.1176 83.8788 69.1014 82.322 67.0646 80.7927C66.703 80.5212 66.5723 80.2456 66.5763 79.7984C66.5985 77.3195 66.5667 74.84 66.6027 72.3615C66.6105 71.8198 66.421 71.515 66.0109 71.2037C62.7426 68.7221 59.4855 66.2258 56.2453 63.7078C56.0155 63.5292 55.8301 63.1456 55.8233 62.8526C55.7838 61.1536 55.7947 59.4531 55.8113 57.7533C55.8149 57.3841 55.7313 57.1787 55.3677 56.992C53.8681 56.2219 53.1787 54.661 53.5434 53.0014C53.8534 51.5902 55.1909 50.4349 56.6557 50.3128C58.2863 50.177 59.7412 51.0888 60.3345 52.6186C60.9499 54.2052 60.2613 56.1361 58.7257 56.9379C58.2911 57.1648 58.1804 57.41 58.1897 57.8593C58.2167 59.1573 58.1838 60.4566 58.2129 61.7545C58.2184 61.997 58.3343 62.3231 58.514 62.4627C61.1224 64.4874 63.7503 66.4871 66.3746 68.4913C66.4074 68.5163 66.4547 68.5225 66.5601 68.5615C66.5698 68.3662 66.5858 68.1921 66.5859 68.018C66.5873 63.0835 66.5945 58.1489 66.5703 53.2144C66.5686 52.8826 66.4065 52.4802 66.1837 52.2323C64.6066 50.4774 62.9843 48.7633 61.4049 47.0105C61.1948 46.7773 61.1099 46.4078 61.0334 46.0856C60.9751 45.8397 60.9996 45.5667 61.0257 45.3096C61.1357 44.2245 61.0057 43.392 59.8894 42.6976C58.5749 41.8799 58.3062 40.0756 58.9345 38.6241C59.5314 37.2449 60.9929 36.3975 62.5429 36.5319C64.0493 36.6624 65.2742 37.7546 65.6491 39.3017C65.9994 40.7471 65.3499 42.2762 64.0613 43.0903C63.8035 43.2532 63.3768 43.4961 63.3888 43.6784C63.4391 44.447 63.0297 45.2901 63.6668 45.9821C65.3129 47.7698 66.9728 49.5449 68.5961 51.353C68.8175 51.5995 68.9681 52.0042 68.9712 52.3373C68.9995 55.3779 68.9878 58.4187 68.9878 61.5652C69.2108 61.4272 69.3654 61.3484 69.5012 61.2449C71.976 59.357 74.4436 57.4597 76.9272 55.5835C77.2672 55.3265 77.3807 55.055 77.376 54.6375C77.3541 52.7017 77.3521 50.7654 77.3769 48.8296C77.3826 48.3818 77.2731 48.1181 76.8587 47.891C75.4194 47.1018 74.7536 45.5773 75.0978 43.9936C75.411 42.5525 76.697 41.4349 78.257 41.248C79.6886 41.0765 81.1978 41.9859 81.8351 43.4039C82.5613 45.0201 81.9286 46.9854 80.3375 47.8627C79.8742 48.1181 79.7433 48.3945 79.7499 48.9012C79.7793 51.191 79.7492 53.4816 79.7742 55.7715C79.7791 56.225 79.6344 56.4962 79.2778 56.767C76.0094 59.2484 72.7618 61.7572 69.4904 64.2345C69.1056 64.5258 68.9767 64.8229 68.9784 65.2897C68.9942 69.7284 68.9939 74.1672 68.9788 78.6059C68.9773 79.0689 69.0688 79.3945 69.487 79.6601C70.021 79.9993 70.5029 80.4205 71.0423 80.8332C73.0982 79.263 75.1414 77.7103 77.1681 76.1363C77.2995 76.0342 77.3569 75.768 77.3581 75.5776C77.3712 73.4999 77.3781 71.422 77.348 69.3447C77.3449 69.1376 77.1328 68.8518 76.9388 68.742C75.4901 67.9222 74.772 66.4251 75.0908 64.7983C75.3614 63.4179 76.6988 62.1898 78.0793 62.0539C79.8026 61.8843 81.2442 62.7235 81.8793 64.266C82.536 65.8608 81.8661 67.8413 80.3067 68.6514C79.8315 68.8983 79.7526 69.1703 79.7556 69.6263C79.7709 71.9401 79.7508 74.254 79.7735 76.5676C79.7777 76.9897 79.6542 77.251 79.3178 77.5041C77.3771 78.9644 75.4538 80.4478 73.5254 81.9244C73.3784 82.037 73.2378 82.1578 73.0133 82.3407C74.2208 83.2691 75.386 84.165 76.5851 85.087C78.3629 83.7285 80.1224 82.3845 81.8812 81.0397C83.1551 80.0657 84.4428 79.1088 85.689 78.1005C85.9363 77.9005 86.1623 77.5017 86.163 77.1941C86.1872 66.4514 86.1779 55.7087 86.1994 44.966C86.2004 44.4526 85.9518 44.2885 85.5928 44.0798C84.0084 43.1589 83.386 41.2319 84.1269 39.6072C84.9304 37.8453 86.7853 37.0481 88.6027 37.6835C90.2636 38.2642 91.2518 40.091 90.832 41.842C90.5349 43.0814 89.7276 43.8922 88.58 44.3923C88.58 51.9802 88.58 59.5534 88.58 67.2207C88.7818 67.103 88.9401 67.0317 89.0744 66.9291C91.5478 65.0391 94.0118 63.1368 96.4964 61.2619C96.8613 60.9865 96.9855 60.7013 96.9816 60.2583C96.9617 58.0154 96.9611 55.7723 96.9824 53.5295C96.9865 53.0981 96.858 52.8686 96.4698 52.6564C94.9838 51.844 94.3152 50.2439 94.7307 48.6275C95.1264 47.0884 96.5613 45.9931 98.1765 45.9973C99.7878 46.0014 101.205 47.1 101.604 48.654C102.014 50.2515 101.331 51.8498 99.8321 52.6683C99.4441 52.8803 99.3222 53.1072 99.3258 53.5397C99.3479 56.1602 99.3258 58.7812 99.347 61.4017C99.3508 61.8716 99.2147 62.17 98.8328 62.4595C95.5627 64.9385 92.3145 67.4466 89.0456 69.9274C88.689 70.198 88.544 70.4667 88.5485 70.9196C88.5726 73.3513 88.5447 75.7834 88.5724 78.215C88.5781 78.7162 88.4299 79.0298 88.0307 79.3323C84.7788 81.7964 81.5481 84.2885 78.2965 86.7531C77.921 87.0377 77.7698 87.3267 77.7733 87.8024C77.7968 91.0605 77.7765 94.3189 77.804 97.5769C77.8081 98.0612 77.6752 98.2826 77.2107 98.4233C73.3142 99.6033 69.4241 100.805 65.4765 102.011ZM87.9854 42.0421C88.4984 41.6645 88.7801 41.1369 88.4361 40.5833C88.2238 40.2418 87.7518 39.945 87.35 39.867C86.8204 39.7641 86.3568 40.1434 86.2734 40.6715C86.2155 41.0387 86.33 41.5171 86.5434 41.8231C86.853 42.2671 87.3758 42.3041 87.9854 42.0421ZM77.5484 44.211C77.2758 44.6702 77.2727 45.1709 77.6518 45.5098C77.9337 45.7618 78.3834 45.9415 78.7601 45.9446C79.3087 45.9492 79.74 45.511 79.716 44.9986C79.6963 44.5762 79.4328 44.0334 79.0982 43.7884C78.5958 43.4203 78.0182 43.6038 77.5484 44.211ZM79.6926 65.9723C79.8641 64.9436 79.2203 64.2065 78.3313 64.4154C77.7265 64.5575 77.324 64.9935 77.4061 65.5546C77.4659 65.9637 77.8226 66.4719 78.1889 66.6611C78.7706 66.9615 79.3175 66.6737 79.6926 65.9723ZM58.0445 54.4043C58.3296 53.8756 58.2539 53.3277 57.7959 53.0236C57.4614 52.8016 56.872 52.6744 56.5373 52.8229C56.2011 52.9721 55.8451 53.5208 55.856 53.8837C55.8669 54.2499 56.2442 54.729 56.5929 54.9322C57.1101 55.2337 57.6296 54.9936 58.0445 54.4043ZM98.828 48.5696C98.2692 48.2505 97.7363 48.2837 97.2934 48.7585C96.9221 49.1566 96.8584 49.633 97.1358 50.1218C97.4861 50.7391 98.2756 50.9208 98.8381 50.5218C99.4706 50.0729 99.4992 49.3476 98.828 48.5696ZM61.1628 39.4782C60.902 40.0869 60.9343 40.7158 61.5342 41.0126C61.9016 41.1943 62.5096 41.1615 62.8914 40.9786C63.4714 40.7006 63.5193 39.8231 63.1032 39.3223C62.6062 38.7242 61.8965 38.7461 61.1628 39.4782Z" fill="white"/>
<path d="M104.727 70.4268C107.46 64.7488 108.072 58.8464 107.004 52.6887C108.588 52.6887 110.136 52.6887 111.827 52.6887C111.943 53.9117 112.107 55.1647 112.174 56.423C112.635 65.1138 109.805 72.7218 104.557 79.5403C102.876 81.7245 101.101 83.8612 99.6555 86.1968C96.813 90.7888 94.9764 95.7964 94.2608 101.175C94.1432 102.059 94.1557 102.967 94.1837 103.861C94.1992 104.357 94.0306 104.557 93.5729 104.697C90.0392 105.777 86.5125 106.881 82.9844 107.98C75.9943 110.157 69.0046 112.336 62.0148 114.514C61.12 114.793 60.2252 115.072 59.2299 115.382C59.2299 113.771 59.2174 112.248 59.2498 110.726C59.2529 110.579 59.5099 110.363 59.6895 110.306C62.7855 109.322 65.8878 108.359 68.9888 107.391C75.3251 105.414 81.6546 103.414 88.0047 101.482C89.0346 101.169 89.5424 100.839 89.7438 99.6078C90.8708 92.7189 93.4441 86.3951 97.6064 80.7517C99.5362 78.1352 101.475 75.5251 103.365 72.8795C103.895 72.1374 104.263 71.2795 104.727 70.4268Z" fill="white"/>
<path d="M82.2795 119.676C77.9565 121.02 73.6868 122.344 69.4188 123.674C66.2518 124.66 63.0873 125.654 59.9208 126.642C59.7217 126.704 59.5142 126.74 59.2301 126.806C59.2301 125.236 59.2148 123.712 59.253 122.19C59.2569 122.032 59.5543 121.805 59.757 121.74C62.246 120.95 64.7441 120.188 67.2371 119.41C73.5242 117.448 79.8092 115.479 86.0964 113.518C88.6781 112.712 91.2634 111.918 93.9409 111.089C93.9409 112.696 93.9583 114.242 93.9134 115.786C93.909 115.937 93.541 116.139 93.3086 116.213C89.6535 117.372 85.9929 118.513 82.2795 119.676Z" fill="white"/>
<path d="M77.8285 127.572C80.0977 126.859 82.3146 126.169 84.6559 125.44C84.6559 126.54 84.6559 127.563 84.6559 128.587C84.6559 130.356 84.6585 130.364 82.9427 130.903C78.3893 132.333 73.8337 133.756 69.2783 135.18C69.0569 135.249 68.8298 135.3 68.564 135.371C68.564 133.714 68.564 132.116 68.564 130.452C71.6297 129.501 74.703 128.548 77.8285 127.572Z" fill="white"/>
<path d="M106.82 35.8416C106.82 36.8543 106.82 37.7961 106.82 38.7854C103.949 38.7854 101.106 38.7854 98.2144 38.7854C98.2144 35.9416 98.2144 33.0794 98.2144 30.1814C101.067 30.1814 103.91 30.1814 106.82 30.1814C106.82 32.0547 106.82 33.9128 106.82 35.8416Z" fill="white"/>
<path d="M111.191 44.0868C111.191 45.6127 111.191 47.0706 111.191 48.5772C109.437 48.5772 107.73 48.5772 105.976 48.5772C105.976 46.8797 105.976 45.1701 105.976 43.4125C107.676 43.4125 109.384 43.4125 111.15 43.4125C111.163 43.6125 111.177 43.8157 111.191 44.0868Z" fill="white"/>
<path d="M113.334 36.0903C113.967 36.0903 114.53 36.0903 115.134 36.0903C115.134 37.3417 115.134 38.5538 115.134 39.8017C113.928 39.8017 112.714 39.8017 111.451 39.8017C111.451 38.5886 111.451 37.3801 111.451 36.0903C112.052 36.0903 112.658 36.0903 113.334 36.0903Z" fill="white"/>
<path d="M116.469 32.3678C116.558 32.1991 116.643 32.0069 116.734 32.0041C117.505 31.9799 118.277 31.9903 119.073 31.9903C119.073 32.87 119.073 33.6837 119.073 34.5389C118.212 34.5389 117.379 34.5389 116.469 34.5389C116.469 33.8288 116.469 33.1305 116.469 32.3678Z" fill="white"/>
<path d="M112.765 30.9122C112.368 30.9122 112.041 30.9122 111.668 30.9122C111.668 30.2134 111.668 29.5411 111.668 28.8144C112.328 28.8144 113.014 28.8144 113.736 28.8144C113.736 29.4911 113.736 30.1617 113.736 30.9122C113.429 30.9122 113.132 30.9122 112.765 30.9122Z" fill="white"/>
<path d="M115.602 44.3315C115.921 44.3315 116.176 44.3315 116.448 44.3315C116.448 44.9163 116.448 45.4473 116.448 45.9768C115.9 45.9768 115.392 45.9768 114.846 45.9768C114.846 45.4348 114.846 44.9286 114.846 44.3657C115.086 44.3538 115.312 44.3426 115.602 44.3315Z" fill="white"/>
<path d="M87.9354 42.0661C87.3756 42.304 86.8528 42.267 86.5432 41.8231C86.3298 41.5171 86.2153 41.0387 86.2733 40.6715C86.3567 40.1434 86.8202 39.7641 87.3498 39.867C87.7516 39.945 88.2237 40.2418 88.4359 40.5833C88.78 41.1369 88.4982 41.6645 87.9354 42.0661Z" fill="white"/>
<path d="M77.5786 44.1658C78.0179 43.6038 78.5956 43.4204 79.098 43.7884C79.4325 44.0334 79.696 44.5762 79.7158 44.9986C79.7398 45.511 79.3084 45.9492 78.7598 45.9446C78.3831 45.9415 77.9335 45.7618 77.6516 45.5098C77.2725 45.1709 77.2756 44.6702 77.5786 44.1658Z" fill="white"/>
<path d="M79.6649 66.021C79.3173 66.6738 78.7704 66.9616 78.1888 66.6611C77.8224 66.4719 77.4657 65.9637 77.4059 65.5546C77.3238 64.9935 77.7264 64.5575 78.3311 64.4154C79.2201 64.2065 79.864 64.9436 79.6649 66.021Z" fill="white"/>
<path d="M58.0146 54.4486C57.6296 54.9936 57.1101 55.2337 56.5929 54.9322C56.2442 54.729 55.8669 54.2499 55.856 53.8837C55.8451 53.5207 56.2011 52.9721 56.5373 52.8229C56.872 52.6744 57.4614 52.8016 57.7959 53.0236C58.2539 53.3277 58.3296 53.8756 58.0146 54.4486Z" fill="white"/>
<path d="M98.8699 48.6038C99.499 49.3475 99.4704 50.0729 98.8379 50.5218C98.2754 50.9208 97.4859 50.7391 97.1356 50.1218C96.8582 49.633 96.9219 49.1566 97.2932 48.7585C97.7361 48.2837 98.269 48.2505 98.8699 48.6038Z" fill="white"/>
<path d="M61.1903 39.4294C61.8965 38.7461 62.6062 38.7242 63.1031 39.3223C63.5192 39.8231 63.4714 40.7006 62.8914 40.9786C62.5096 41.1616 61.9015 41.1943 61.5342 41.0126C60.9343 40.7158 60.902 40.0869 61.1903 39.4294Z" fill="white"/>
</g>
<defs>
<clipPath id="clip0_56_3442">
<rect width="153" height="153" fill="white"/>
</clipPath>
</defs>
</svg>
