<svg width="1511" height="575" viewBox="0 0 1511 575" fill="none" xmlns="http://www.w3.org/2000/svg">
<path d="M-7.6665 6.10352e-05C330.86 29.4213 800.298 363.821 756.977 480.102C728.569 556.33 395.748 554.618 304.819 568.366C180.819 587.088 415.61 516.999 463.429 435.97C520.245 339.682 434.004 86.5521 707.594 131.059C946.362 169.921 998.064 295.791 1169.22 292.876C1324.02 290.201 1444.61 184.552 1521.95 96.2879" stroke="url(#paint0_linear_60_4782)" stroke-opacity="0.45" stroke-width="4" stroke-miterlimit="10"/>
<path d="M-7.69043 7.71649C316.632 40.5212 768.245 364.369 732.143 475.782C708.47 548.774 393.262 546.34 309.128 558.697C192.49 575.802 417.267 508.44 464.684 430.701C521.499 337.489 443.094 95.2448 707.215 138.16C942.834 176.341 990.394 305.139 1163.09 305.326C1318.17 305.166 1443.52 201.803 1524.27 115.425" stroke="url(#paint1_linear_60_4782)" stroke-opacity="0.45" stroke-width="4" stroke-miterlimit="10"/>
<path d="M-7.71826 15.3925C302.4 51.5806 736.187 364.851 707.33 471.422C688.391 541.178 390.772 538.022 313.432 548.988C204.133 564.42 418.919 499.841 465.934 425.378C522.75 335.242 452.204 103.91 706.833 145.221C939.303 182.733 982.72 314.794 1156.98 317.736C1312.32 320.411 1442.43 219.028 1526.61 134.522" stroke="url(#paint2_linear_60_4782)" stroke-opacity="0.45" stroke-width="4" stroke-miterlimit="10"/>
<path d="M-7.71826 23.1224C288.196 62.7074 704.157 365.346 682.52 467.116C668.316 533.595 388.286 529.757 317.74 539.332C215.733 553 420.6 491.242 467.189 420.069C524.17 332.995 461.318 112.577 706.477 152.269C935.776 189.125 975.002 324.316 1150.82 330.134C1306.43 335.336 1441.32 236.266 1528.93 153.606" stroke="url(#paint3_linear_60_4782)" stroke-opacity="0.45" stroke-width="4" stroke-miterlimit="10"/>
<path d="M-7.74072 30.8254C274.112 73.7939 672.105 365.773 657.712 462.783C648.243 525.972 385.826 521.452 322.074 529.57C227.381 541.606 422.306 482.656 468.445 414.76C525.521 330.762 470.433 121.256 706.1 159.33C932.25 195.518 967.309 333.691 1144.74 342.544C1300.56 350.314 1440.28 253.491 1531.28 172.703" stroke="url(#paint4_linear_60_4782)" stroke-opacity="0.45" stroke-width="4" stroke-miterlimit="10"/>
<path d="M-7.76416 38.5285C259.932 84.8938 640.052 366.175 632.879 458.451C628.144 518.31 383.364 513.147 326.383 519.874C239.076 530.172 424.058 474.057 469.7 409.451C526.894 328.515 479.548 129.948 705.745 166.404C928.699 201.937 959.592 343.132 1138.61 354.968C1294.69 365.292 1439.26 270.716 1533.62 191.813" stroke="url(#paint5_linear_60_4782)" stroke-opacity="0.45" stroke-width="4" stroke-miterlimit="10"/>
<path d="M-7.76416 46.2451C245.752 95.9938 607.975 366.375 608.07 454.131C608.07 510.607 380.807 504.816 330.691 510.165C250.723 518.684 425.81 465.472 470.955 404.155C528.291 326.269 488.638 138.601 705.319 173.479C925.124 208.33 951.804 352.547 1132.45 367.392C1288.7 380.23 1438.05 287.994 1535.92 210.924" stroke="url(#paint6_linear_60_4782)" stroke-opacity="0.45" stroke-width="4" stroke-miterlimit="10"/>
<path d="M-7.7876 53.9479C231.548 107.08 575.851 366.576 583.26 449.798C587.995 502.863 378.487 496.471 335.023 500.469C262.371 507.156 427.633 456.886 472.328 398.832C529.854 323.942 497.753 147.521 705.106 180.526C921.621 214.989 944.205 361.922 1126.49 379.789C1283.04 395.141 1437.13 305.219 1538.4 230.008" stroke="url(#paint7_linear_60_4782)" stroke-opacity="0.45" stroke-width="4" stroke-miterlimit="10"/>
<path d="M-7.81006 61.6513C217.369 118.18 543.633 366.697 558.428 445.465C567.756 495.067 376.145 488.113 339.333 490.761C274.066 495.468 429.457 448.301 473.489 393.55C531.181 321.762 506.631 156.241 704.634 187.601C917.976 221.422 936.418 371.284 1120.26 392.213C1277.03 410.053 1435.95 322.471 1540.63 249.118" stroke="url(#paint8_linear_60_4782)" stroke-opacity="0.45" stroke-width="4" stroke-miterlimit="10"/>
<path d="M-7.81006 69.3539C203.189 129.266 511.319 366.71 533.619 441.132C547.444 487.23 373.825 479.714 343.642 481.065C285.785 483.646 431.232 439.714 474.744 388.241C532.696 319.515 515.84 164.906 704.373 194.689C914.544 227.868 928.819 380.645 1114.25 404.65C1271.25 424.964 1434.97 339.722 1543.09 268.242" stroke="url(#paint9_linear_60_4782)" stroke-opacity="0.45" stroke-width="4" stroke-miterlimit="10"/>
<path d="M-7.83301 77.057C189.009 140.366 478.816 366.643 508.81 436.799C526.991 479.353 371.695 471.289 347.833 471.369C297.551 471.53 433.056 431.142 475.881 382.931C534.117 317.255 524.813 173.612 703.782 201.75C910.757 234.3 920.865 389.966 1107.91 417.06C1265.14 439.795 1433.65 356.96 1545.17 287.339" stroke="url(#paint10_linear_60_4782)" stroke-opacity="0.45" stroke-width="4" stroke-miterlimit="10"/>
<path d="M-7.85645 84.7735C174.829 151.453 446.1 366.496 484.001 432.48C506.372 471.436 369.044 465.017 352.283 461.66C309.956 464.335 435.139 422.57 477.254 377.636C535.821 315.008 534.07 182.292 703.522 208.824C907.348 240.72 913.29 399.274 1101.89 429.484C1259.39 454.693 1432.68 374.212 1547.64 306.45" stroke="url(#paint11_linear_60_4782)" stroke-opacity="0.45" stroke-width="4" stroke-miterlimit="10"/>
<path d="M-7.85645 92.4761C160.625 162.552 413.052 366.295 459.168 428.146C485.54 463.505 366.629 456.872 356.592 451.964C321.698 453.195 437.246 414.011 478.509 372.326C537.479 312.761 543.16 190.971 703.143 215.858C903.797 247.112 905.596 408.541 1095.79 441.867C1253.54 469.51 1431.59 391.423 1549.98 325.52" stroke="url(#paint12_linear_60_4782)" stroke-opacity="0.45" stroke-width="4" stroke-miterlimit="10"/>
<path d="M-7.87891 100.18C146.446 173.639 379.651 366.108 434.359 423.814C464.472 455.589 364.192 448.728 360.973 442.256C333.488 442.028 439.402 405.452 479.836 367.031C539.279 310.515 552.346 199.637 702.86 222.96C900.342 253.558 897.998 417.849 1089.75 454.318C1247.77 484.368 1430.64 408.702 1552.37 344.657" stroke="url(#paint13_linear_60_4782)" stroke-opacity="0.45" stroke-width="4" stroke-miterlimit="10"/>
<path d="M-7.90674 107.882C132.262 184.739 345.841 365.987 409.546 419.48C443.162 447.711 361.773 440.583 365.206 432.559C345.155 430.861 441.481 396.92 481.015 361.681C541.027 308.188 561.385 208.262 702.406 229.981C896.739 259.923 890.253 427.063 1083.54 466.688C1241.85 499.159 1429.43 425.9 1554.64 363.714" stroke="url(#paint14_linear_60_4782)" stroke-opacity="0.45" stroke-width="4" stroke-miterlimit="10"/>
<path d="M-7.90674 115.586C118.082 195.826 311.681 366.054 384.713 415.148C421.619 439.929 359.335 432.44 369.538 422.864C356.897 419.708 443.706 388.401 482.27 356.426C542.944 306.115 570.5 216.955 702.028 237.096C893.212 266.356 882.607 436.358 1077.44 479.153C1236.05 514.003 1428.34 443.178 1556.98 382.865" stroke="url(#paint15_linear_60_4782)" stroke-opacity="0.45" stroke-width="4" stroke-miterlimit="10"/>
<path d="M-7.93066 123.288C103.901 206.925 276.999 366.389 359.903 410.815C399.934 432.279 356.92 424.295 373.846 413.155C368.638 408.541 446.002 379.922 483.524 351.116C544.956 303.962 579.614 225.608 701.672 244.13C889.685 272.708 874.984 445.532 1071.31 491.536C1230.22 528.767 1427.25 460.39 1559.3 401.935" stroke="url(#paint16_linear_60_4782)" stroke-opacity="0.45" stroke-width="4" stroke-miterlimit="10"/>
<path d="M-7.9541 131.005C89.6977 218.011 242.2 367.084 335.094 406.495C378.203 424.776 354.482 416.15 378.155 403.459C380.381 397.388 448.394 371.47 484.684 345.807C547.04 301.875 588.657 234.26 701.199 251.231C886.063 279.114 867.29 454.799 1065.1 503.986C1224.33 543.585 1426.1 477.668 1561.55 421.072" stroke="url(#paint17_linear_60_4782)" stroke-opacity="0.45" stroke-width="4" stroke-miterlimit="10"/>
<path d="M-7.9541 138.708C75.5175 229.112 207.353 368.141 310.284 402.162C356.494 417.435 355.476 410.053 382.464 393.764C393.708 386.97 450.855 363.005 486.057 340.511C549.454 299.883 597.889 242.886 700.939 258.306C882.654 285.48 859.786 464.001 1059.07 516.411C1218.65 558.376 1425.1 494.906 1563.99 440.183" stroke="url(#paint18_linear_60_4782)" stroke-opacity="0.45" stroke-width="4" stroke-miterlimit="10"/>
<path d="M-7.97656 146.451C61.3385 240.238 172.697 369.598 285.571 397.869C335.071 410.279 351.287 400.985 386.915 384.094C404.789 375.616 453.508 354.767 487.432 335.242C552.083 298.051 607.123 251.565 700.68 265.406C879.27 291.845 852.33 473.241 1053.08 528.861C1213.01 573.18 1424.13 512.197 1566.43 459.319" stroke="url(#paint19_linear_60_4782)" stroke-opacity="0.45" stroke-width="4" stroke-miterlimit="10"/>
<path d="M-8 154.115C47.1585 251.298 138.371 371.244 260.643 393.497C313.6 403.139 347.784 392.159 391.106 374.36C415.915 364.156 455.97 346.463 488.568 329.907C554.664 296.326 616.19 260.071 700.183 272.401C875.743 297.944 844.802 482.202 1046.83 541.205C1207.24 587.758 1422.92 529.356 1568.66 478.35" stroke="url(#paint20_linear_60_4782)" stroke-opacity="0.45" stroke-width="4" stroke-miterlimit="10"/>
<path d="M-8 161.817C32.9782 262.384 104.471 373.115 235.834 389.163C405.499 409.959 536.317 255.912 699.828 279.502C872.216 304.39 837.132 491.563 1040.72 553.655C1201.39 602.682 1421.86 546.648 1571 497.487" stroke="url(#paint21_linear_60_4782)" stroke-opacity="0.45" stroke-width="4" stroke-miterlimit="10"/>
<defs>
<linearGradient id="paint0_linear_60_4782" x1="757.142" y1="6.10352e-05" x2="757.142" y2="571.424" gradientUnits="userSpaceOnUse">
<stop stop-color="#DCE6F9"/>
<stop offset="0.55" stop-color="#CA064D"/>
<stop offset="1" stop-color="#DCE6F9"/>
</linearGradient>
<linearGradient id="paint1_linear_60_4782" x1="758.29" y1="7.71649" x2="758.29" y2="561.377" gradientUnits="userSpaceOnUse">
<stop stop-color="#DCE6F9"/>
<stop offset="0.55" stop-color="#CA064D"/>
<stop offset="1" stop-color="#DCE6F9"/>
</linearGradient>
<linearGradient id="paint2_linear_60_4782" x1="759.446" y1="15.3925" x2="759.446" y2="551.287" gradientUnits="userSpaceOnUse">
<stop stop-color="#DCE6F9"/>
<stop offset="0.55" stop-color="#CA064D"/>
<stop offset="1" stop-color="#DCE6F9"/>
</linearGradient>
<linearGradient id="paint3_linear_60_4782" x1="760.606" y1="23.1224" x2="760.606" y2="541.242" gradientUnits="userSpaceOnUse">
<stop stop-color="#DCE6F9"/>
<stop offset="0.55" stop-color="#CA064D"/>
<stop offset="1" stop-color="#DCE6F9"/>
</linearGradient>
<linearGradient id="paint4_linear_60_4782" x1="761.767" y1="30.8254" x2="761.767" y2="531.14" gradientUnits="userSpaceOnUse">
<stop stop-color="#DCE6F9"/>
<stop offset="0.55" stop-color="#CA064D"/>
<stop offset="1" stop-color="#DCE6F9"/>
</linearGradient>
<linearGradient id="paint5_linear_60_4782" x1="762.928" y1="38.5285" x2="762.928" y2="521.1" gradientUnits="userSpaceOnUse">
<stop stop-color="#DCE6F9"/>
<stop offset="0.55" stop-color="#CA064D"/>
<stop offset="1" stop-color="#DCE6F9"/>
</linearGradient>
<linearGradient id="paint6_linear_60_4782" x1="764.076" y1="46.2451" x2="764.076" y2="511.065" gradientUnits="userSpaceOnUse">
<stop stop-color="#DCE6F9"/>
<stop offset="0.55" stop-color="#CA064D"/>
<stop offset="1" stop-color="#DCE6F9"/>
</linearGradient>
<linearGradient id="paint7_linear_60_4782" x1="765.307" y1="53.9479" x2="765.307" y2="501.069" gradientUnits="userSpaceOnUse">
<stop stop-color="#DCE6F9"/>
<stop offset="0.55" stop-color="#CA064D"/>
<stop offset="1" stop-color="#DCE6F9"/>
</linearGradient>
<linearGradient id="paint8_linear_60_4782" x1="766.409" y1="61.6513" x2="766.409" y2="491.085" gradientUnits="userSpaceOnUse">
<stop stop-color="#DCE6F9"/>
<stop offset="0.55" stop-color="#CA064D"/>
<stop offset="1" stop-color="#DCE6F9"/>
</linearGradient>
<linearGradient id="paint9_linear_60_4782" x1="767.64" y1="69.3539" x2="767.64" y2="481.173" gradientUnits="userSpaceOnUse">
<stop stop-color="#DCE6F9"/>
<stop offset="0.55" stop-color="#CA064D"/>
<stop offset="1" stop-color="#DCE6F9"/>
</linearGradient>
<linearGradient id="paint10_linear_60_4782" x1="768.67" y1="77.057" x2="768.67" y2="471.929" gradientUnits="userSpaceOnUse">
<stop stop-color="#DCE6F9"/>
<stop offset="0.55" stop-color="#CA064D"/>
<stop offset="1" stop-color="#DCE6F9"/>
</linearGradient>
<linearGradient id="paint11_linear_60_4782" x1="769.89" y1="84.7735" x2="769.89" y2="464.244" gradientUnits="userSpaceOnUse">
<stop stop-color="#DCE6F9"/>
<stop offset="0.55" stop-color="#CA064D"/>
<stop offset="1" stop-color="#DCE6F9"/>
</linearGradient>
<linearGradient id="paint12_linear_60_4782" x1="771.062" y1="92.4761" x2="771.062" y2="455.908" gradientUnits="userSpaceOnUse">
<stop stop-color="#DCE6F9"/>
<stop offset="0.55" stop-color="#CA064D"/>
<stop offset="1" stop-color="#DCE6F9"/>
</linearGradient>
<linearGradient id="paint13_linear_60_4782" x1="772.247" y1="100.18" x2="772.247" y2="461.109" gradientUnits="userSpaceOnUse">
<stop stop-color="#DCE6F9"/>
<stop offset="0.55" stop-color="#CA064D"/>
<stop offset="1" stop-color="#DCE6F9"/>
</linearGradient>
<linearGradient id="paint14_linear_60_4782" x1="773.367" y1="107.882" x2="773.367" y2="474.655" gradientUnits="userSpaceOnUse">
<stop stop-color="#DCE6F9"/>
<stop offset="0.55" stop-color="#CA064D"/>
<stop offset="1" stop-color="#DCE6F9"/>
</linearGradient>
<linearGradient id="paint15_linear_60_4782" x1="774.539" y1="115.586" x2="774.539" y2="488.381" gradientUnits="userSpaceOnUse">
<stop stop-color="#DCE6F9"/>
<stop offset="0.55" stop-color="#CA064D"/>
<stop offset="1" stop-color="#DCE6F9"/>
</linearGradient>
<linearGradient id="paint16_linear_60_4782" x1="775.687" y1="123.288" x2="775.687" y2="502.127" gradientUnits="userSpaceOnUse">
<stop stop-color="#DCE6F9"/>
<stop offset="0.55" stop-color="#CA064D"/>
<stop offset="1" stop-color="#DCE6F9"/>
</linearGradient>
<linearGradient id="paint17_linear_60_4782" x1="776.799" y1="131.005" x2="776.799" y2="516.038" gradientUnits="userSpaceOnUse">
<stop stop-color="#DCE6F9"/>
<stop offset="0.55" stop-color="#CA064D"/>
<stop offset="1" stop-color="#DCE6F9"/>
</linearGradient>
<linearGradient id="paint18_linear_60_4782" x1="778.019" y1="138.708" x2="778.019" y2="530.026" gradientUnits="userSpaceOnUse">
<stop stop-color="#DCE6F9"/>
<stop offset="0.55" stop-color="#CA064D"/>
<stop offset="1" stop-color="#DCE6F9"/>
</linearGradient>
<linearGradient id="paint19_linear_60_4782" x1="779.227" y1="146.451" x2="779.227" y2="544.143" gradientUnits="userSpaceOnUse">
<stop stop-color="#DCE6F9"/>
<stop offset="0.55" stop-color="#CA064D"/>
<stop offset="1" stop-color="#DCE6F9"/>
</linearGradient>
<linearGradient id="paint20_linear_60_4782" x1="780.328" y1="154.115" x2="780.328" y2="558.208" gradientUnits="userSpaceOnUse">
<stop stop-color="#DCE6F9"/>
<stop offset="0.55" stop-color="#CA064D"/>
<stop offset="1" stop-color="#DCE6F9"/>
</linearGradient>
<linearGradient id="paint21_linear_60_4782" x1="781.5" y1="161.817" x2="781.5" y2="572.595" gradientUnits="userSpaceOnUse">
<stop stop-color="#DCE6F9"/>
<stop offset="0.55" stop-color="#CA064D"/>
<stop offset="1" stop-color="#DCE6F9"/>
</linearGradient>
</defs>
</svg>
