<svg width="853" height="545" viewBox="0 0 853 545" fill="none" xmlns="http://www.w3.org/2000/svg">
<path d="M143.735 506.753C259.446 410.048 287.019 353.04 290.176 318.605C293.698 280.174 268.386 252.643 286.964 240.934C298.859 233.437 320.239 237.799 362.052 249.868C488.849 286.466 501.345 306.692 541.216 293.767C597.072 275.666 611.132 223.452 691.493 184.551C750.516 155.98 808.075 152.605 849.025 154.674" stroke="url(#paint0_linear_57_3659)" stroke-opacity="0.45" stroke-width="4" stroke-miterlimit="10"/>
<path d="M139.008 505.149C251.357 410.958 281.987 353.645 287.255 320.226C293.141 282.881 268.748 256.964 287.398 245.911C299.388 238.805 320.376 243.105 360.762 254.758C483.493 290.158 496.764 310.329 536.214 297.274C592.178 278.633 603.538 224.487 684.095 183.852C685.852 182.966 687.586 182.106 689.334 181.267C747.066 153.595 805.307 149.893 846.887 151.512" stroke="url(#paint1_linear_57_3659)" stroke-opacity="0.45" stroke-width="4" stroke-miterlimit="10"/>
<path d="M134.291 503.54C243.271 411.871 276.949 354.328 284.343 321.846C292.583 285.64 269.127 261.281 287.842 250.886C299.93 244.17 320.529 248.408 359.48 259.647C478.125 293.855 492.191 314.048 531.227 300.774C587.298 281.709 595.963 225.488 676.711 183.146C678.482 182.217 680.248 181.29 682.036 180.409C740.405 151.642 801.359 147.114 844.759 148.343" stroke="url(#paint2_linear_57_3659)" stroke-opacity="0.45" stroke-width="4" stroke-miterlimit="10"/>
<path d="M129.568 501.935C235.19 412.77 271.878 355.116 281.426 323.468C291.982 288.474 269.51 265.601 288.279 255.865C300.473 249.539 320.662 253.72 358.192 264.538C472.766 297.558 487.616 317.719 526.235 304.277C582.412 284.723 588.385 226.47 669.321 182.442C671.117 181.465 672.913 180.491 674.722 179.558C733.496 149.237 797.396 144.342 842.615 145.18" stroke="url(#paint3_linear_57_3659)" stroke-opacity="0.45" stroke-width="4" stroke-miterlimit="10"/>
<path d="M124.845 500.329C227.107 413.681 266.757 356.021 278.508 325.091C291.311 291.394 269.904 269.919 288.719 260.843C301.021 254.907 320.805 259.028 356.908 269.429C467.405 301.257 483.043 321.386 521.243 307.778C577.54 287.725 580.808 227.431 661.93 181.734C663.753 180.711 665.577 179.686 667.425 178.695C726.722 147.067 793.447 141.56 840.493 142.009" stroke="url(#paint4_linear_57_3659)" stroke-opacity="0.45" stroke-width="4" stroke-miterlimit="10"/>
<path d="M120.122 498.723C219.026 414.59 261.561 357.061 275.596 326.712C290.529 294.416 270.299 274.241 289.163 265.818C301.579 260.274 320.95 264.334 355.626 274.319C462.051 304.952 478.475 325.045 516.255 311.279C572.666 290.722 573.229 228.375 654.547 181.031C656.395 179.955 658.241 178.878 660.127 177.839C719.948 144.912 789.505 138.781 838.366 138.843" stroke="url(#paint5_linear_57_3659)" stroke-opacity="0.45" stroke-width="4" stroke-miterlimit="10"/>
<path d="M115.402 497.116C210.941 415.497 256.256 358.254 272.676 328.335C289.568 297.554 270.709 278.562 289.599 270.797C302.134 265.644 321.09 269.647 354.335 279.211C456.687 308.651 473.903 328.703 511.259 314.782C567.795 293.714 565.638 229.307 647.155 180.329C649.034 179.2 650.9 178.073 652.816 176.987C713.161 142.77 785.547 136.01 836.226 135.68" stroke="url(#paint6_linear_57_3659)" stroke-opacity="0.45" stroke-width="4" stroke-miterlimit="10"/>
<path d="M110.679 495.51C202.857 416.405 243.602 359.68 269.76 329.957C280.634 301.941 271.118 282.888 290.039 275.774C302.694 271.016 321.231 274.952 353.053 284.106C451.329 312.354 469.335 332.36 506.27 318.289C562.925 296.704 558.044 230.23 639.766 179.631C641.667 178.454 643.566 177.272 645.517 176.134C706.393 140.632 781.607 133.229 834.102 132.516" stroke="url(#paint7_linear_57_3659)" stroke-opacity="0.45" stroke-width="4" stroke-miterlimit="10"/>
<path d="M105.956 493.904C194.774 417.312 237.401 360.626 266.844 331.579C278.768 305.05 271.53 287.219 290.479 280.752C303.257 276.39 321.371 280.258 351.765 288.993C445.956 316.053 464.764 336.002 501.278 321.785C558.053 299.678 550.437 231.132 632.375 178.922C634.299 177.695 636.225 176.462 638.212 175.273C699.622 138.494 777.645 130.451 831.967 129.345" stroke="url(#paint8_linear_57_3659)" stroke-opacity="0.45" stroke-width="4" stroke-miterlimit="10"/>
<path d="M101.233 492.298C186.69 418.22 231.199 361.575 263.926 333.201C276.9 308.159 271.944 291.554 290.918 285.728C303.819 281.766 321.514 285.566 350.478 293.884C440.607 319.749 460.196 339.644 496.285 325.286C553.183 302.65 542.821 232.031 624.986 178.216C626.934 176.94 628.888 175.656 630.908 174.415C692.856 136.363 773.692 127.673 829.834 126.177" stroke="url(#paint9_linear_57_3659)" stroke-opacity="0.45" stroke-width="4" stroke-miterlimit="10"/>
<path d="M96.5118 490.692C178.608 419.127 224.997 362.523 261.009 334.825C275.034 311.27 272.358 295.896 291.355 290.707C304.381 287.149 321.656 290.876 349.191 298.772C435.243 323.442 455.626 343.281 491.292 328.786C548.31 305.615 535.195 232.92 617.595 177.51C619.569 176.182 621.55 174.85 623.601 173.558C686.095 134.236 769.738 124.894 827.7 123.009" stroke="url(#paint10_linear_57_3659)" stroke-opacity="0.45" stroke-width="4" stroke-miterlimit="10"/>
<path d="M91.7886 489.085C170.521 420.038 218.8 363.468 258.097 336.449C273.172 314.382 272.774 300.245 291.795 295.69C304.943 292.54 321.798 296.188 347.906 303.671C429.884 327.148 451.057 346.922 486.305 332.293C543.445 308.581 527.564 233.813 610.21 176.813C612.209 175.434 614.209 174.055 616.303 172.712C679.344 132.124 765.791 122.126 825.572 119.852" stroke="url(#paint11_linear_57_3659)" stroke-opacity="0.45" stroke-width="4" stroke-miterlimit="10"/>
<path d="M87.0659 487.479C162.438 420.945 212.591 364.42 255.177 338.068C271.302 317.488 273.179 304.595 292.235 300.662C305.502 297.924 321.94 301.492 346.62 308.558C424.532 330.838 446.488 350.548 481.31 335.793C538.567 311.531 519.911 234.689 602.819 176.105C604.84 174.676 606.877 173.244 609.002 171.846C672.6 129.999 761.839 119.336 823.443 116.677" stroke="url(#paint12_linear_57_3659)" stroke-opacity="0.45" stroke-width="4" stroke-miterlimit="10"/>
<path d="M82.3494 485.87C154.354 421.853 206.39 365.369 252.262 339.692C269.436 320.6 273.582 308.953 292.676 305.639C306.061 303.317 322.082 306.799 345.336 313.448C419.166 334.539 441.918 354.177 476.319 339.295C533.695 314.477 512.248 235.562 595.429 175.401C597.475 173.92 599.541 172.438 601.693 170.992C665.848 127.882 757.883 116.565 821.317 113.508" stroke="url(#paint13_linear_57_3659)" stroke-opacity="0.45" stroke-width="4" stroke-miterlimit="10"/>
<path d="M77.6226 484.266C146.269 422.761 200.189 366.316 249.345 341.312C267.569 323.709 273.982 313.314 293.116 310.619C306.614 308.715 322.225 312.109 344.042 318.345C413.799 338.243 437.337 357.803 471.32 342.802C528.811 317.424 504.573 236.449 588.033 174.702C590.103 173.171 592.198 171.64 594.381 170.142C659.103 125.772 753.924 113.794 819.168 110.352" stroke="url(#paint14_linear_57_3659)" stroke-opacity="0.45" stroke-width="4" stroke-miterlimit="10"/>
<path d="M72.8999 482.66C138.185 423.669 193.986 367.264 246.427 342.935C265.704 326.818 274.375 317.681 293.555 315.594C307.163 314.113 322.365 317.416 342.765 323.23C408.445 341.935 432.769 361.417 466.337 346.297C523.94 320.352 496.897 237.314 580.653 173.997C582.747 172.415 584.871 170.834 587.097 169.281C652.376 123.653 749.979 111.01 817.04 107.176" stroke="url(#paint15_linear_57_3659)" stroke-opacity="0.45" stroke-width="4" stroke-miterlimit="10"/>
<path d="M68.1771 481.054C130.103 424.577 187.785 368.217 243.511 344.557C263.825 329.93 274.764 322.053 293.995 320.572C307.707 319.517 322.508 322.723 341.477 328.118C403.083 345.629 428.191 365.03 461.343 349.795C519.054 323.275 489.2 238.183 573.26 173.284C575.377 171.65 577.531 170.021 579.78 168.421C645.648 121.541 746.033 108.23 814.91 104.013" stroke="url(#paint16_linear_57_3659)" stroke-opacity="0.45" stroke-width="4" stroke-miterlimit="10"/>
<path d="M63.4525 479.445C122.017 425.482 181.579 369.158 240.591 346.177C261.967 333.035 275.144 326.423 294.429 325.547C308.242 324.913 322.646 328.028 340.188 333.009C397.72 349.327 423.611 368.644 456.35 353.298C514.169 326.201 481.497 239.059 565.874 172.586C568.012 170.9 570.198 169.222 572.477 167.571C638.928 119.43 742.075 105.458 812.78 100.852" stroke="url(#paint17_linear_57_3659)" stroke-opacity="0.45" stroke-width="4" stroke-miterlimit="10"/>
<path d="M58.7313 477.839C113.935 426.398 180.617 382.533 237.678 347.802C259.03 334.805 275.525 330.803 294.872 330.527C308.784 330.324 322.792 333.339 338.907 337.903C392.363 353.03 419.033 372.258 451.361 356.803C509.276 329.117 473.781 239.93 558.483 171.879C560.643 170.144 562.864 168.414 565.172 166.713C632.208 117.317 738.115 102.682 810.646 97.6795" stroke="url(#paint18_linear_57_3659)" stroke-opacity="0.45" stroke-width="4" stroke-miterlimit="10"/>
<path d="M54.0091 476.234C105.854 427.297 169.168 374.43 234.761 349.422C258.423 340.401 275.896 335.179 295.311 335.503C309.318 335.732 322.932 338.645 337.619 342.793C387.004 356.726 414.447 375.864 446.368 360.303C504.375 332.026 466.054 240.8 551.092 171.174C553.276 169.386 555.528 167.611 557.868 165.855C625.585 115.251 734.169 99.9015 808.52 94.5103" stroke="url(#paint19_linear_57_3659)" stroke-opacity="0.45" stroke-width="4" stroke-miterlimit="10"/>
<path d="M49.2868 474.629C97.766 428.208 162.775 373.779 231.845 351.044C256.346 342.981 276.265 339.561 295.751 340.481C309.848 341.143 323.075 343.954 336.333 347.684C381.644 360.425 409.894 379.537 441.377 363.806C499.41 334.808 458.217 241.641 543.703 170.471C545.906 168.631 548.192 166.808 550.563 165.001C618.835 113.115 730.216 97.1236 806.381 91.3457" stroke="url(#paint20_linear_57_3659)" stroke-opacity="0.45" stroke-width="4" stroke-miterlimit="10"/>
<path d="M44.5646 473.024C89.6826 429.118 156.772 372.957 228.928 352.669C337.705 322.087 384.033 393.837 436.387 367.307C496.069 337.065 448.22 237.559 543.261 164.145C612.084 110.982 726.272 94.343 804.25 88.1812" stroke="url(#paint21_linear_57_3659)" stroke-opacity="0.45" stroke-width="4" stroke-miterlimit="10"/>
<defs>
<linearGradient id="paint0_linear_57_3659" x1="104.941" y1="428.573" x2="811.068" y2="78.1799" gradientUnits="userSpaceOnUse">
<stop offset="0.26" stop-color="#DCE6F9"/>
<stop offset="0.5" stop-color="#CA064D" stop-opacity="0.52"/>
<stop offset="0.825" stop-color="#DCE6F9"/>
</linearGradient>
<linearGradient id="paint1_linear_57_3659" x1="102.044" y1="430.658" x2="810.869" y2="78.9258" gradientUnits="userSpaceOnUse">
<stop offset="0.26" stop-color="#DCE6F9"/>
<stop offset="0.5" stop-color="#CA064D" stop-opacity="0.52"/>
<stop offset="0.825" stop-color="#DCE6F9"/>
</linearGradient>
<linearGradient id="paint2_linear_57_3659" x1="99.1555" y1="432.733" x2="810.679" y2="79.662" gradientUnits="userSpaceOnUse">
<stop offset="0.26" stop-color="#DCE6F9"/>
<stop offset="0.5" stop-color="#CA064D" stop-opacity="0.52"/>
<stop offset="0.825" stop-color="#DCE6F9"/>
</linearGradient>
<linearGradient id="paint3_linear_57_3659" x1="96.2623" y1="434.816" x2="810.476" y2="80.4108" gradientUnits="userSpaceOnUse">
<stop offset="0.26" stop-color="#DCE6F9"/>
<stop offset="0.5" stop-color="#CA064D" stop-opacity="0.52"/>
<stop offset="0.825" stop-color="#DCE6F9"/>
</linearGradient>
<linearGradient id="paint4_linear_57_3659" x1="94.3261" y1="438.826" x2="811.249" y2="83.0757" gradientUnits="userSpaceOnUse">
<stop offset="0.26" stop-color="#DCE6F9"/>
<stop offset="0.5" stop-color="#CA064D" stop-opacity="0.52"/>
<stop offset="0.825" stop-color="#DCE6F9"/>
</linearGradient>
<linearGradient id="paint5_linear_57_3659" x1="92.3885" y1="442.833" x2="812.015" y2="85.7408" gradientUnits="userSpaceOnUse">
<stop offset="0.26" stop-color="#DCE6F9"/>
<stop offset="0.5" stop-color="#CA064D" stop-opacity="0.52"/>
<stop offset="0.825" stop-color="#DCE6F9"/>
</linearGradient>
<linearGradient id="paint6_linear_57_3659" x1="90.4508" y1="446.834" x2="812.768" y2="88.4071" gradientUnits="userSpaceOnUse">
<stop offset="0.26" stop-color="#DCE6F9"/>
<stop offset="0.5" stop-color="#CA064D" stop-opacity="0.52"/>
<stop offset="0.825" stop-color="#DCE6F9"/>
</linearGradient>
<linearGradient id="paint7_linear_57_3659" x1="88.5061" y1="450.826" x2="813.529" y2="91.057" gradientUnits="userSpaceOnUse">
<stop offset="0.26" stop-color="#DCE6F9"/>
<stop offset="0.5" stop-color="#CA064D" stop-opacity="0.52"/>
<stop offset="0.825" stop-color="#DCE6F9"/>
</linearGradient>
<linearGradient id="paint8_linear_57_3659" x1="86.5546" y1="454.805" x2="814.277" y2="93.696" gradientUnits="userSpaceOnUse">
<stop offset="0.26" stop-color="#DCE6F9"/>
<stop offset="0.5" stop-color="#CA064D" stop-opacity="0.52"/>
<stop offset="0.825" stop-color="#DCE6F9"/>
</linearGradient>
<linearGradient id="paint9_linear_57_3659" x1="84.5959" y1="458.769" x2="815.019" y2="96.3205" gradientUnits="userSpaceOnUse">
<stop offset="0.26" stop-color="#DCE6F9"/>
<stop offset="0.5" stop-color="#CA064D" stop-opacity="0.52"/>
<stop offset="0.825" stop-color="#DCE6F9"/>
</linearGradient>
<linearGradient id="paint10_linear_57_3659" x1="82.6281" y1="462.713" x2="815.749" y2="98.9249" gradientUnits="userSpaceOnUse">
<stop offset="0.26" stop-color="#DCE6F9"/>
<stop offset="0.5" stop-color="#CA064D" stop-opacity="0.52"/>
<stop offset="0.825" stop-color="#DCE6F9"/>
</linearGradient>
<linearGradient id="paint11_linear_57_3659" x1="80.6479" y1="466.633" x2="816.469" y2="101.506" gradientUnits="userSpaceOnUse">
<stop offset="0.26" stop-color="#DCE6F9"/>
<stop offset="0.5" stop-color="#CA064D" stop-opacity="0.52"/>
<stop offset="0.825" stop-color="#DCE6F9"/>
</linearGradient>
<linearGradient id="paint12_linear_57_3659" x1="78.6441" y1="470.507" x2="817.171" y2="104.037" gradientUnits="userSpaceOnUse">
<stop offset="0.26" stop-color="#DCE6F9"/>
<stop offset="0.5" stop-color="#CA064D" stop-opacity="0.52"/>
<stop offset="0.825" stop-color="#DCE6F9"/>
</linearGradient>
<linearGradient id="paint13_linear_57_3659" x1="76.6215" y1="474.327" x2="817.848" y2="106.517" gradientUnits="userSpaceOnUse">
<stop offset="0.26" stop-color="#DCE6F9"/>
<stop offset="0.5" stop-color="#CA064D" stop-opacity="0.52"/>
<stop offset="0.825" stop-color="#DCE6F9"/>
</linearGradient>
<linearGradient id="paint14_linear_57_3659" x1="74.5495" y1="478.073" x2="818.462" y2="108.93" gradientUnits="userSpaceOnUse">
<stop offset="0.26" stop-color="#DCE6F9"/>
<stop offset="0.5" stop-color="#CA064D" stop-opacity="0.52"/>
<stop offset="0.825" stop-color="#DCE6F9"/>
</linearGradient>
<linearGradient id="paint15_linear_57_3659" x1="72.4219" y1="481.697" x2="819.042" y2="111.211" gradientUnits="userSpaceOnUse">
<stop offset="0.26" stop-color="#DCE6F9"/>
<stop offset="0.5" stop-color="#CA064D" stop-opacity="0.52"/>
<stop offset="0.825" stop-color="#DCE6F9"/>
</linearGradient>
<linearGradient id="paint16_linear_57_3659" x1="68.5639" y1="481.834" x2="817.884" y2="110.007" gradientUnits="userSpaceOnUse">
<stop offset="0.26" stop-color="#DCE6F9"/>
<stop offset="0.5" stop-color="#CA064D" stop-opacity="0.52"/>
<stop offset="0.825" stop-color="#DCE6F9"/>
</linearGradient>
<linearGradient id="paint17_linear_57_3659" x1="64.6566" y1="481.871" x2="816.677" y2="108.705" gradientUnits="userSpaceOnUse">
<stop offset="0.26" stop-color="#DCE6F9"/>
<stop offset="0.5" stop-color="#CA064D" stop-opacity="0.52"/>
<stop offset="0.825" stop-color="#DCE6F9"/>
</linearGradient>
<linearGradient id="paint18_linear_57_3659" x1="60.7493" y1="481.906" x2="815.47" y2="107.4" gradientUnits="userSpaceOnUse">
<stop offset="0.26" stop-color="#DCE6F9"/>
<stop offset="0.5" stop-color="#CA064D" stop-opacity="0.52"/>
<stop offset="0.825" stop-color="#DCE6F9"/>
</linearGradient>
<linearGradient id="paint19_linear_57_3659" x1="56.8455" y1="481.95" x2="814.272" y2="106.102" gradientUnits="userSpaceOnUse">
<stop offset="0.26" stop-color="#DCE6F9"/>
<stop offset="0.5" stop-color="#CA064D" stop-opacity="0.52"/>
<stop offset="0.825" stop-color="#DCE6F9"/>
</linearGradient>
<linearGradient id="paint20_linear_57_3659" x1="52.9334" y1="481.978" x2="813.054" y2="104.792" gradientUnits="userSpaceOnUse">
<stop offset="0.26" stop-color="#DCE6F9"/>
<stop offset="0.5" stop-color="#CA064D" stop-opacity="0.52"/>
<stop offset="0.825" stop-color="#DCE6F9"/>
</linearGradient>
<linearGradient id="paint21_linear_57_3659" x1="49.0205" y1="482.004" x2="811.841" y2="103.479" gradientUnits="userSpaceOnUse">
<stop offset="0.26" stop-color="#DCE6F9"/>
<stop offset="0.5" stop-color="#CA064D" stop-opacity="0.52"/>
<stop offset="0.825" stop-color="#DCE6F9"/>
</linearGradient>
</defs>
</svg>
