<svg width="1494" height="915" viewBox="0 0 1494 915" fill="none" xmlns="http://www.w3.org/2000/svg">
<path d="M-143.768 828.319C123.688 604.793 187.421 473.023 194.719 393.429C202.861 304.601 144.352 240.964 187.294 213.901C214.789 196.57 264.207 206.653 360.855 234.55C653.935 319.143 682.82 365.895 774.978 336.019C904.085 294.18 936.584 173.492 1122.33 83.5741C1258.76 17.5358 1391.8 9.7355 1486.45 14.517" stroke="url(#paint0_linear_56_3393)" stroke-opacity="0.45" stroke-width="4" stroke-miterlimit="10"/>
<path d="M-154.694 824.612C104.992 606.897 175.791 474.422 187.967 397.178C201.571 310.857 145.191 250.951 188.298 225.404C216.011 208.978 264.523 218.918 357.873 245.853C641.555 327.678 672.231 374.302 763.417 344.126C892.773 301.037 919.029 175.883 1105.23 81.9601C1109.29 79.9124 1113.3 77.9227 1117.34 75.9841C1250.78 12.0218 1385.4 3.46669 1481.51 7.20702" stroke="url(#paint1_linear_56_3393)" stroke-opacity="0.45" stroke-width="4" stroke-miterlimit="10"/>
<path d="M-165.596 820.893C86.3007 609.007 164.147 476.002 181.236 400.922C200.282 317.235 146.067 260.931 189.324 236.903C217.265 221.379 264.876 231.176 354.91 257.154C629.148 336.224 661.659 382.897 751.889 352.216C881.492 308.148 901.522 178.197 1088.16 80.3277C1092.26 78.1797 1096.34 76.0385 1100.47 74.0016C1235.39 7.50779 1376.28 -2.95649 1476.59 -0.116855" stroke="url(#paint2_linear_56_3393)" stroke-opacity="0.45" stroke-width="4" stroke-miterlimit="10"/>
<path d="M-176.515 817.182C67.6234 611.085 152.425 477.822 174.493 404.671C198.893 323.784 146.952 270.915 190.334 248.412C218.519 233.79 265.185 243.453 351.933 268.46C616.76 344.782 651.085 391.383 740.349 360.312C870.198 315.115 884.006 180.467 1071.08 78.7015C1075.23 76.442 1079.38 74.1914 1083.57 72.0341C1219.42 1.95042 1367.12 -9.36457 1471.64 -7.42784" stroke="url(#paint3_linear_56_3393)" stroke-opacity="0.45" stroke-width="4" stroke-miterlimit="10"/>
<path d="M-187.431 813.47C48.9402 613.19 140.587 479.913 167.748 408.422C197.341 330.533 147.862 280.898 191.351 259.917C219.787 246.197 265.516 255.723 348.964 279.764C604.37 353.331 640.514 399.858 728.81 368.405C858.938 322.052 866.492 182.69 1054 77.0649C1058.21 74.6983 1062.43 72.3296 1066.7 70.0384C1203.76 -3.06708 1357.99 -15.7942 1466.73 -14.7583" stroke="url(#paint4_linear_56_3393)" stroke-opacity="0.45" stroke-width="4" stroke-miterlimit="10"/>
<path d="M-198.347 809.758C30.2605 615.292 128.578 482.319 161.018 412.168C195.535 337.519 148.775 290.887 192.376 271.416C221.075 258.602 265.849 267.988 346 291.066C591.994 361.872 629.957 408.315 717.282 376.496C847.673 328.981 848.973 184.87 1036.93 75.4396C1041.2 72.9527 1045.47 70.4613 1049.83 68.0608C1188.1 -8.04655 1348.88 -22.2192 1461.82 -22.075" stroke="url(#paint5_linear_56_3393)" stroke-opacity="0.45" stroke-width="4" stroke-miterlimit="10"/>
<path d="M-209.258 806.044C11.5734 617.388 116.316 485.077 154.269 415.921C193.314 344.772 149.721 300.873 193.385 282.926C222.358 271.016 266.174 280.269 343.018 302.375C579.595 370.423 619.389 416.771 705.735 384.593C836.413 335.896 831.427 187.026 1019.85 73.8164C1024.19 71.2068 1028.5 68.6018 1032.93 66.092C1172.41 -12.9993 1339.73 -28.6243 1456.87 -29.3853" stroke="url(#paint6_linear_56_3393)" stroke-opacity="0.45" stroke-width="4" stroke-miterlimit="10"/>
<path d="M-220.175 802.332C-7.11313 619.487 87.0669 488.371 147.529 419.67C172.662 354.912 150.668 310.873 194.401 294.429C223.652 283.432 266.5 292.529 340.054 313.69C567.21 378.982 608.829 425.223 694.203 392.699C825.157 342.808 813.874 189.159 1002.77 72.202C1007.16 69.4832 1011.55 66.751 1016.06 64.1207C1156.77 -17.9392 1330.62 -35.0519 1451.96 -36.7002" stroke="url(#paint7_linear_56_3393)" stroke-opacity="0.45" stroke-width="4" stroke-miterlimit="10"/>
<path d="M-231.091 798.62C-25.7951 621.584 72.7331 490.559 140.788 423.418C168.349 362.099 151.621 320.884 195.418 305.935C224.954 295.853 266.823 304.794 337.076 324.985C554.792 387.531 598.265 433.643 682.664 400.781C813.894 349.683 796.292 191.244 985.685 70.5634C990.132 67.7287 994.583 64.8783 999.175 62.1297C1141.12 -22.8831 1321.46 -41.4723 1447.03 -44.0303" stroke="url(#paint8_linear_56_3393)" stroke-opacity="0.45" stroke-width="4" stroke-miterlimit="10"/>
<path d="M-242.007 794.908C-44.4815 623.683 58.3972 492.753 134.043 427.169C164.032 369.285 152.578 330.905 196.434 317.438C226.254 308.28 267.153 317.064 334.102 336.289C542.428 396.075 587.705 442.061 671.124 408.872C802.639 356.551 778.688 193.32 968.604 68.9315C973.108 65.983 977.625 63.0145 982.293 60.1476C1125.48 -27.807 1312.33 -47.895 1442.1 -51.3514" stroke="url(#paint9_linear_56_3393)" stroke-opacity="0.45" stroke-width="4" stroke-miterlimit="10"/>
<path d="M-252.921 791.195C-63.161 625.778 44.0625 494.943 127.302 430.921C159.718 376.475 153.534 340.941 197.445 328.947C227.552 320.722 267.482 329.337 331.128 347.588C530.03 404.611 577.142 450.466 659.583 416.963C791.374 363.405 761.06 195.375 951.522 67.3004C956.084 64.2316 960.664 61.1516 965.403 58.1665C1109.85 -32.7235 1303.19 -54.3169 1437.16 -58.674" stroke="url(#paint10_linear_56_3393)" stroke-opacity="0.45" stroke-width="4" stroke-miterlimit="10"/>
<path d="M-263.838 787.481C-81.8552 627.884 29.7391 497.128 120.57 434.676C155.415 383.669 154.495 350.992 198.462 340.464C228.852 333.182 267.812 341.615 328.158 358.912C517.643 413.177 566.583 458.883 648.056 425.07C780.129 370.26 743.423 197.44 934.451 65.6884C939.074 62.5014 943.696 59.3144 948.535 56.2109C1094.25 -37.6055 1294.06 -60.7153 1432.24 -65.9709" stroke="url(#paint11_linear_56_3393)" stroke-opacity="0.45" stroke-width="4" stroke-miterlimit="10"/>
<path d="M-274.754 783.769C-100.537 629.981 15.3882 499.327 113.821 438.418C151.093 390.849 155.43 361.048 199.478 351.956C230.143 345.628 268.137 353.876 325.185 370.208C505.272 421.706 556.021 467.263 636.51 433.158C768.855 377.079 725.732 199.466 917.368 64.052C922.04 60.7491 926.748 57.4394 931.659 54.2088C1078.66 -42.5186 1284.93 -67.1648 1427.32 -73.31" stroke="url(#paint12_linear_56_3393)" stroke-opacity="0.45" stroke-width="4" stroke-miterlimit="10"/>
<path d="M-285.656 780.05C-119.223 632.079 1.05316 501.521 107.083 442.17C146.78 398.042 156.364 371.121 200.496 363.461C231.435 358.092 268.468 366.143 322.216 381.509C492.869 430.261 545.459 475.651 624.973 441.253C757.594 383.89 708.021 201.484 900.286 62.4264C905.017 59.0032 909.792 55.5775 914.766 52.2353C1063.05 -47.4096 1275.79 -73.5699 1422.41 -80.6359" stroke="url(#paint13_linear_56_3393)" stroke-opacity="0.45" stroke-width="4" stroke-miterlimit="10"/>
<path d="M-296.582 776.343C-137.91 634.179 -13.2801 503.711 100.341 445.916C142.465 405.227 157.288 381.202 201.515 374.971C232.714 370.571 268.798 378.414 319.226 392.829C480.463 438.822 534.87 484.033 613.418 449.359C746.304 390.7 690.28 203.534 883.19 60.81C887.976 57.2708 892.819 53.7313 897.864 50.271C1047.46 -52.2873 1266.64 -79.975 1417.44 -87.9305" stroke="url(#paint14_linear_56_3393)" stroke-opacity="0.45" stroke-width="4" stroke-miterlimit="10"/>
<path d="M-307.498 772.631C-156.596 636.278 -27.6171 505.903 93.5965 449.667C138.153 412.414 158.197 391.295 202.529 386.47C233.982 383.048 269.122 390.682 316.274 404.12C468.088 447.355 524.312 492.386 601.901 457.439C735.045 397.468 672.537 205.533 866.133 59.1803C870.974 55.523 875.884 51.8698 881.028 48.28C1031.92 -57.1848 1257.52 -86.4087 1412.52 -95.2716" stroke="url(#paint15_linear_56_3393)" stroke-opacity="0.45" stroke-width="4" stroke-miterlimit="10"/>
<path d="M-318.414 768.919C-175.277 638.377 -41.95 508.103 86.8559 453.416C133.81 419.608 159.094 401.4 203.546 397.976C235.239 395.537 269.451 402.949 313.296 415.418C455.694 455.895 513.73 500.737 590.358 465.523C723.751 404.226 654.747 207.541 849.045 57.5327C853.938 53.755 858.917 49.9903 864.114 46.2913C1016.36 -62.0671 1248.39 -92.834 1407.6 -102.582" stroke="url(#paint16_linear_56_3393)" stroke-opacity="0.45" stroke-width="4" stroke-miterlimit="10"/>
<path d="M-329.335 765.198C-193.968 640.467 -56.2949 510.28 80.1075 457.16C129.515 426.783 159.972 411.501 204.549 409.475C236.477 408.012 269.771 415.21 310.317 426.724C443.297 464.441 503.144 509.09 578.815 473.621C712.46 410.987 636.942 209.565 831.973 55.9187C836.915 52.0229 841.967 48.1444 847.235 44.3271C1000.83 -66.9469 1239.25 -99.243 1402.68 -109.89" stroke="url(#paint17_linear_56_3393)" stroke-opacity="0.45" stroke-width="4" stroke-miterlimit="10"/>
<path d="M-340.247 761.487C-212.648 642.584 -58.519 541.195 73.374 460.916C122.728 430.875 160.854 421.624 205.573 420.988C237.729 420.518 270.109 427.487 307.355 438.036C430.916 473.002 492.561 517.444 567.285 481.723C701.15 417.727 619.108 211.578 814.889 54.2851C819.882 50.2756 825.015 46.2765 830.35 42.3433C985.298 -71.8309 1230.1 -105.659 1397.74 -117.221" stroke="url(#paint18_linear_56_3393)" stroke-opacity="0.45" stroke-width="4" stroke-miterlimit="10"/>
<path d="M-351.162 757.778C-231.327 644.664 -84.9806 522.465 66.6314 464.66C121.324 443.809 161.712 431.741 206.588 432.489C238.963 433.017 270.431 439.752 304.38 449.338C418.529 481.544 481.961 525.78 555.744 489.812C689.823 424.452 601.247 213.591 797.804 52.6556C802.855 48.5236 808.06 44.4197 813.468 40.3615C969.99 -76.6071 1220.97 -112.086 1392.83 -124.547" stroke="url(#paint19_linear_56_3393)" stroke-opacity="0.45" stroke-width="4" stroke-miterlimit="10"/>
<path d="M-362.077 754.068C-250.022 646.769 -99.7591 520.96 59.892 468.411C116.523 449.773 162.564 441.868 207.605 443.995C240.19 445.524 270.763 452.024 301.407 460.644C406.14 490.094 471.437 534.27 544.208 497.909C678.345 430.883 583.132 215.534 780.727 51.0301C785.817 46.7785 791.103 42.5637 796.584 38.3859C954.389 -81.5426 1211.84 -118.506 1387.89 -131.862" stroke="url(#paint20_linear_56_3393)" stroke-opacity="0.45" stroke-width="4" stroke-miterlimit="10"/>
<path d="M-372.993 750.358C-268.706 648.873 -113.633 519.061 53.149 472.166C304.578 401.478 411.661 567.323 532.674 506.002C670.624 436.099 560.025 206.099 779.704 36.4083C938.784 -86.4734 1202.72 -124.934 1382.96 -139.176" stroke="url(#paint21_linear_56_3393)" stroke-opacity="0.45" stroke-width="4" stroke-miterlimit="10"/>
<defs>
<linearGradient id="paint0_linear_56_3393" x1="-233.438" y1="647.612" x2="1398.72" y2="-162.293" gradientUnits="userSpaceOnUse">
<stop offset="0.132213" stop-color="#DCE6F9"/>
<stop offset="0.722213" stop-color="#CA064D" stop-opacity="0.52"/>
<stop offset="1" stop-color="white" stop-opacity="0.5"/>
</linearGradient>
<linearGradient id="paint1_linear_56_3393" x1="-240.134" y1="652.431" x2="1398.26" y2="-160.569" gradientUnits="userSpaceOnUse">
<stop offset="0.132213" stop-color="#DCE6F9"/>
<stop offset="0.722213" stop-color="#CA064D" stop-opacity="0.52"/>
<stop offset="1" stop-color="white" stop-opacity="0.5"/>
</linearGradient>
<linearGradient id="paint2_linear_56_3393" x1="-246.81" y1="657.227" x2="1397.82" y2="-158.868" gradientUnits="userSpaceOnUse">
<stop offset="0.132213" stop-color="#DCE6F9"/>
<stop offset="0.722213" stop-color="#CA064D" stop-opacity="0.52"/>
<stop offset="1" stop-color="white" stop-opacity="0.5"/>
</linearGradient>
<linearGradient id="paint3_linear_56_3393" x1="-253.497" y1="662.043" x2="1397.35" y2="-157.137" gradientUnits="userSpaceOnUse">
<stop offset="0.132213" stop-color="#DCE6F9"/>
<stop offset="0.722213" stop-color="#CA064D" stop-opacity="0.52"/>
<stop offset="1" stop-color="white" stop-opacity="0.5"/>
</linearGradient>
<linearGradient id="paint4_linear_56_3393" x1="-257.973" y1="671.311" x2="1399.14" y2="-150.977" gradientUnits="userSpaceOnUse">
<stop offset="0.132213" stop-color="#DCE6F9"/>
<stop offset="0.722213" stop-color="#CA064D" stop-opacity="0.52"/>
<stop offset="1" stop-color="white" stop-opacity="0.5"/>
</linearGradient>
<linearGradient id="paint5_linear_56_3393" x1="-262.451" y1="680.572" x2="1400.91" y2="-144.817" gradientUnits="userSpaceOnUse">
<stop offset="0.132213" stop-color="#DCE6F9"/>
<stop offset="0.722213" stop-color="#CA064D" stop-opacity="0.52"/>
<stop offset="1" stop-color="white" stop-opacity="0.5"/>
</linearGradient>
<linearGradient id="paint6_linear_56_3393" x1="-266.93" y1="689.821" x2="1402.65" y2="-138.654" gradientUnits="userSpaceOnUse">
<stop offset="0.132213" stop-color="#DCE6F9"/>
<stop offset="0.722213" stop-color="#CA064D" stop-opacity="0.52"/>
<stop offset="1" stop-color="white" stop-opacity="0.5"/>
</linearGradient>
<linearGradient id="paint7_linear_56_3393" x1="-271.425" y1="699.049" x2="1404.41" y2="-132.529" gradientUnits="userSpaceOnUse">
<stop offset="0.132213" stop-color="#DCE6F9"/>
<stop offset="0.722213" stop-color="#CA064D" stop-opacity="0.52"/>
<stop offset="1" stop-color="white" stop-opacity="0.5"/>
</linearGradient>
<linearGradient id="paint8_linear_56_3393" x1="-275.936" y1="708.246" x2="1406.14" y2="-126.429" gradientUnits="userSpaceOnUse">
<stop offset="0.132213" stop-color="#DCE6F9"/>
<stop offset="0.722213" stop-color="#CA064D" stop-opacity="0.52"/>
<stop offset="1" stop-color="white" stop-opacity="0.5"/>
</linearGradient>
<linearGradient id="paint9_linear_56_3393" x1="-280.463" y1="717.409" x2="1407.85" y2="-120.363" gradientUnits="userSpaceOnUse">
<stop offset="0.132213" stop-color="#DCE6F9"/>
<stop offset="0.722213" stop-color="#CA064D" stop-opacity="0.52"/>
<stop offset="1" stop-color="white" stop-opacity="0.5"/>
</linearGradient>
<linearGradient id="paint10_linear_56_3393" x1="-285.012" y1="726.523" x2="1409.54" y2="-114.343" gradientUnits="userSpaceOnUse">
<stop offset="0.132213" stop-color="#DCE6F9"/>
<stop offset="0.722213" stop-color="#CA064D" stop-opacity="0.52"/>
<stop offset="1" stop-color="white" stop-opacity="0.5"/>
</linearGradient>
<linearGradient id="paint11_linear_56_3393" x1="-289.589" y1="735.586" x2="1411.2" y2="-108.377" gradientUnits="userSpaceOnUse">
<stop offset="0.132213" stop-color="#DCE6F9"/>
<stop offset="0.722213" stop-color="#CA064D" stop-opacity="0.52"/>
<stop offset="1" stop-color="white" stop-opacity="0.5"/>
</linearGradient>
<linearGradient id="paint12_linear_56_3393" x1="-294.221" y1="744.539" x2="1412.82" y2="-102.527" gradientUnits="userSpaceOnUse">
<stop offset="0.132213" stop-color="#DCE6F9"/>
<stop offset="0.722213" stop-color="#CA064D" stop-opacity="0.52"/>
<stop offset="1" stop-color="white" stop-opacity="0.5"/>
</linearGradient>
<linearGradient id="paint13_linear_56_3393" x1="-298.896" y1="753.368" x2="1414.39" y2="-96.7947" gradientUnits="userSpaceOnUse">
<stop offset="0.132213" stop-color="#DCE6F9"/>
<stop offset="0.722213" stop-color="#CA064D" stop-opacity="0.52"/>
<stop offset="1" stop-color="white" stop-opacity="0.5"/>
</linearGradient>
<linearGradient id="paint14_linear_56_3393" x1="-303.685" y1="762.028" x2="1415.81" y2="-91.2163" gradientUnits="userSpaceOnUse">
<stop offset="0.132213" stop-color="#DCE6F9"/>
<stop offset="0.722213" stop-color="#CA064D" stop-opacity="0.52"/>
<stop offset="1" stop-color="white" stop-opacity="0.5"/>
</linearGradient>
<linearGradient id="paint15_linear_56_3393" x1="-308.602" y1="770.404" x2="1417.15" y2="-85.9456" gradientUnits="userSpaceOnUse">
<stop offset="0.132213" stop-color="#DCE6F9"/>
<stop offset="0.722213" stop-color="#CA064D" stop-opacity="0.52"/>
<stop offset="1" stop-color="white" stop-opacity="0.5"/>
</linearGradient>
<linearGradient id="paint16_linear_56_3393" x1="-317.52" y1="770.72" x2="1414.47" y2="-88.7267" gradientUnits="userSpaceOnUse">
<stop offset="0.132213" stop-color="#DCE6F9"/>
<stop offset="0.722213" stop-color="#CA064D" stop-opacity="0.52"/>
<stop offset="1" stop-color="white" stop-opacity="0.5"/>
</linearGradient>
<linearGradient id="paint17_linear_56_3393" x1="-326.551" y1="770.807" x2="1411.68" y2="-91.7366" gradientUnits="userSpaceOnUse">
<stop offset="0.132213" stop-color="#DCE6F9"/>
<stop offset="0.722213" stop-color="#CA064D" stop-opacity="0.52"/>
<stop offset="1" stop-color="white" stop-opacity="0.5"/>
</linearGradient>
<linearGradient id="paint18_linear_56_3393" x1="-335.583" y1="770.887" x2="1408.89" y2="-94.7535" gradientUnits="userSpaceOnUse">
<stop offset="0.132213" stop-color="#DCE6F9"/>
<stop offset="0.722213" stop-color="#CA064D" stop-opacity="0.52"/>
<stop offset="1" stop-color="white" stop-opacity="0.5"/>
</linearGradient>
<linearGradient id="paint19_linear_56_3393" x1="-344.606" y1="770.99" x2="1406.12" y2="-97.7539" gradientUnits="userSpaceOnUse">
<stop offset="0.132213" stop-color="#DCE6F9"/>
<stop offset="0.722213" stop-color="#CA064D" stop-opacity="0.52"/>
<stop offset="1" stop-color="white" stop-opacity="0.5"/>
</linearGradient>
<linearGradient id="paint20_linear_56_3393" x1="-353.649" y1="771.053" x2="1403.31" y2="-100.78" gradientUnits="userSpaceOnUse">
<stop offset="0.132213" stop-color="#DCE6F9"/>
<stop offset="0.722213" stop-color="#CA064D" stop-opacity="0.52"/>
<stop offset="1" stop-color="white" stop-opacity="0.5"/>
</linearGradient>
<linearGradient id="paint21_linear_56_3393" x1="-362.693" y1="771.114" x2="1400.51" y2="-103.817" gradientUnits="userSpaceOnUse">
<stop offset="0.132213" stop-color="#DCE6F9"/>
<stop offset="0.722213" stop-color="#CA064D" stop-opacity="0.52"/>
<stop offset="1" stop-color="white" stop-opacity="0.5"/>
</linearGradient>
</defs>
</svg>
