<svg width="745" height="472" viewBox="0 0 745 472" fill="none" xmlns="http://www.w3.org/2000/svg">
<path d="M122.941 438.336C225.174 354.757 250.1 306.163 253.418 277.035C257.12 244.527 235.565 221.701 251.915 211.506C262.385 204.977 280.904 208.305 317.065 217.801C426.722 246.594 437.253 263.466 472.141 251.889C521.015 235.676 534.11 191.355 604.641 157.172C656.444 132.066 706.554 128.26 742.131 129.326" stroke="url(#paint0_linear_57_3796)" stroke-opacity="0.45" stroke-width="4" stroke-miterlimit="10"/>
<path d="M118.857 437.06C218.125 355.66 245.714 306.757 250.85 278.453C256.59 246.821 235.808 225.343 252.21 215.701C262.755 209.501 280.935 212.783 315.862 221.951C422.003 249.802 433.209 266.613 467.733 254.934C516.71 238.263 527.489 192.355 598.219 156.705C599.761 155.928 601.284 155.172 602.818 154.435C653.482 130.11 704.192 126.016 740.324 126.691" stroke="url(#paint1_linear_57_3796)" stroke-opacity="0.45" stroke-width="4" stroke-miterlimit="10"/>
<path d="M114.782 435.78C211.077 356.565 241.322 307.419 248.291 279.869C256.059 249.161 236.066 228.983 252.514 219.894C263.137 214.022 280.98 217.258 314.666 226.101C417.274 253.013 429.17 269.829 463.337 257.972C512.415 240.941 520.885 193.326 591.809 156.232C593.365 155.417 594.916 154.606 596.485 153.832C647.722 128.571 700.805 123.735 738.526 124.051" stroke="url(#paint2_linear_57_3796)" stroke-opacity="0.45" stroke-width="4" stroke-miterlimit="10"/>
<path d="M110.701 434.503C204.035 357.459 236.899 308.168 245.727 281.287C255.489 251.563 236.327 232.623 252.811 224.091C263.52 218.546 281.008 221.741 313.465 230.252C412.552 256.228 425.13 273.004 458.938 261.012C508.116 243.568 514.279 194.281 585.394 155.76C586.972 154.905 588.55 154.053 590.139 153.235C641.754 126.656 697.404 121.46 736.714 121.416" stroke="url(#paint3_linear_57_3796)" stroke-opacity="0.45" stroke-width="4" stroke-miterlimit="10"/>
<path d="M106.621 433.225C196.991 358.362 232.43 309.017 243.163 282.705C254.857 254.04 236.598 236.263 253.111 228.286C263.908 223.07 281.044 226.221 312.267 234.403C407.829 259.44 421.092 276.177 454.538 264.052C503.829 246.183 507.673 195.219 578.979 155.285C580.581 154.391 582.184 153.495 583.807 152.627C635.899 124.936 694.016 119.177 734.921 118.774" stroke="url(#paint4_linear_57_3796)" stroke-opacity="0.45" stroke-width="4" stroke-miterlimit="10"/>
<path d="M102.541 431.948C189.948 359.264 227.894 309.982 240.604 284.122C254.127 256.605 236.87 239.906 253.414 232.48C264.303 227.592 281.081 230.699 311.07 238.553C403.111 262.649 417.06 279.342 450.143 267.09C499.541 248.795 501.067 196.141 572.57 154.814C574.194 153.875 575.818 152.934 577.475 152.026C630.044 123.229 690.635 116.896 733.124 116.136" stroke="url(#paint5_linear_57_3796)" stroke-opacity="0.45" stroke-width="4" stroke-miterlimit="10"/>
<path d="M98.4623 430.669C182.902 360.165 223.261 311.078 238.038 285.542C253.239 259.27 237.154 243.547 253.711 236.677C264.697 232.118 281.115 235.183 309.867 242.705C398.384 265.862 413.023 282.507 445.74 270.131C495.255 251.402 494.45 197.055 566.153 154.344C567.806 153.36 569.448 152.377 571.132 151.428C624.178 121.533 687.239 114.622 731.316 113.501" stroke="url(#paint6_linear_57_3796)" stroke-opacity="0.45" stroke-width="4" stroke-miterlimit="10"/>
<path d="M94.3819 429.392C175.857 361.066 212.233 312.491 235.475 286.96C245.396 263.123 237.438 247.193 254.01 240.872C265.094 236.644 281.15 239.659 308.671 246.86C393.663 269.078 408.989 285.671 441.343 273.175C490.971 254.008 487.831 197.961 559.739 153.877C561.412 152.853 563.083 151.823 564.799 150.83C618.328 119.841 683.859 112.339 729.521 110.864" stroke="url(#paint7_linear_57_3796)" stroke-opacity="0.45" stroke-width="4" stroke-miterlimit="10"/>
<path d="M90.3016 428.115C168.813 361.966 206.825 313.394 232.912 288.377C243.722 265.779 237.725 250.844 254.31 245.068C265.495 241.172 281.183 244.137 307.469 251.008C388.93 272.29 404.954 288.822 436.944 276.211C486.684 256.601 481.201 198.849 553.324 153.402C555.017 152.334 556.713 151.261 558.46 150.224C612.476 118.147 680.46 110.06 727.717 108.222" stroke="url(#paint8_linear_57_3796)" stroke-opacity="0.45" stroke-width="4" stroke-miterlimit="10"/>
<path d="M86.2214 426.837C161.768 362.867 201.415 314.298 230.347 289.796C242.046 268.435 238.013 254.497 254.61 249.262C265.894 245.703 281.219 248.617 306.268 255.159C384.217 275.5 400.921 291.973 432.544 279.249C482.4 259.191 474.563 199.734 546.909 152.928C548.625 151.819 550.346 150.702 552.123 149.621C606.627 116.461 677.068 107.779 725.915 105.583" stroke="url(#paint9_linear_57_3796)" stroke-opacity="0.45" stroke-width="4" stroke-miterlimit="10"/>
<path d="M82.142 425.559C154.725 363.767 196.006 315.202 227.784 291.215C240.371 271.093 238.3 258.157 254.907 253.459C266.293 250.238 281.254 253.098 305.068 259.307C379.491 278.708 396.886 295.12 428.143 282.288C478.112 261.775 467.916 200.611 540.494 152.455C542.233 151.302 543.978 150.144 545.783 149.019C600.782 114.778 673.676 105.499 724.112 102.944" stroke="url(#paint10_linear_57_3796)" stroke-opacity="0.45" stroke-width="4" stroke-miterlimit="10"/>
<path d="M78.0614 424.281C147.676 364.671 190.602 316.103 225.224 292.635C238.701 273.752 238.59 261.821 255.207 257.659C266.693 254.781 281.29 257.581 303.869 263.466C374.769 281.926 392.853 298.27 423.749 285.332C473.832 264.36 461.265 201.493 534.083 151.989C535.845 150.792 537.607 149.594 539.45 148.426C594.947 113.106 670.289 103.227 722.314 100.313" stroke="url(#paint11_linear_57_3796)" stroke-opacity="0.45" stroke-width="4" stroke-miterlimit="10"/>
<path d="M73.981 423.003C140.632 365.571 185.187 317.009 222.658 294.051C237.023 276.406 238.869 265.488 255.507 261.85C267.089 259.318 281.324 262.057 302.67 267.613C370.053 285.13 388.819 301.408 419.346 288.37C469.542 266.932 454.595 202.36 527.668 151.514C529.449 150.274 531.245 149.031 533.115 147.816C589.117 111.424 666.899 100.937 720.515 97.6679" stroke="url(#paint12_linear_57_3796)" stroke-opacity="0.45" stroke-width="4" stroke-miterlimit="10"/>
<path d="M69.9063 421.723C133.587 366.472 179.778 317.914 220.096 295.47C235.348 279.064 239.148 269.161 255.807 266.046C267.485 263.862 281.36 266.536 301.471 271.763C365.325 288.345 384.785 304.548 414.948 291.41C465.256 269.501 447.917 203.224 521.253 151.043C523.057 149.759 524.878 148.473 526.774 147.216C583.281 109.749 663.505 98.6628 718.719 95.027" stroke="url(#paint13_linear_57_3796)" stroke-opacity="0.45" stroke-width="4" stroke-miterlimit="10"/>
<path d="M65.8223 420.448C126.542 367.373 174.369 318.817 217.533 296.887C233.674 281.72 239.423 272.837 256.107 270.243C267.877 268.411 281.396 271.017 300.265 275.92C360.596 291.562 380.74 307.686 410.542 294.455C460.959 272.07 441.228 204.101 514.833 150.576C516.659 149.249 518.506 147.921 520.429 146.62C577.451 108.08 660.108 96.3888 716.903 92.398" stroke="url(#paint14_linear_57_3796)" stroke-opacity="0.45" stroke-width="4" stroke-miterlimit="10"/>
<path d="M61.7421 419.17C119.496 368.275 168.96 319.72 214.968 298.306C232 284.376 239.692 276.518 256.406 274.436C268.264 272.96 281.43 275.496 299.073 280.066C355.879 294.768 376.708 310.813 406.151 297.489C456.675 274.624 434.538 204.959 508.427 150.103C510.274 148.732 512.148 147.363 514.109 146.014C571.636 106.402 656.723 94.1041 715.106 89.7516" stroke="url(#paint15_linear_57_3796)" stroke-opacity="0.45" stroke-width="4" stroke-miterlimit="10"/>
<path d="M57.6618 417.893C112.453 369.176 163.551 320.628 212.405 299.724C230.314 287.036 239.957 280.203 256.706 278.632C268.647 277.513 281.466 279.975 297.872 284.214C351.155 297.976 372.667 313.94 401.75 300.525C452.377 277.173 427.83 205.82 502.01 149.624C503.878 148.209 505.778 146.798 507.76 145.409C565.82 104.731 653.338 91.8227 713.305 87.1166" stroke="url(#paint16_linear_57_3796)" stroke-opacity="0.45" stroke-width="4" stroke-miterlimit="10"/>
<path d="M53.5799 416.612C105.406 370.074 158.139 321.526 209.839 301.14C228.646 289.688 240.215 283.886 257.001 282.825C269.024 282.061 281.498 284.451 296.67 288.366C346.429 301.188 368.624 317.068 397.349 303.566C448.08 279.725 421.117 206.688 495.598 149.157C497.486 147.699 499.414 146.246 501.424 144.813C560.011 103.06 649.943 89.5472 711.506 84.4825" stroke="url(#paint17_linear_57_3796)" stroke-opacity="0.45" stroke-width="4" stroke-miterlimit="10"/>
<path d="M49.5009 415.335C98.3627 370.982 157.08 332.835 207.279 302.56C226.063 291.231 240.474 287.578 257.303 287.024C269.405 286.621 281.537 288.934 295.474 292.519C341.71 304.404 364.583 320.195 392.953 306.609C443.777 282.268 414.393 207.551 489.183 148.684C491.09 147.183 493.05 145.685 495.085 144.21C554.202 101.387 646.545 87.2694 709.703 81.8396" stroke="url(#paint18_linear_57_3796)" stroke-opacity="0.45" stroke-width="4" stroke-miterlimit="10"/>
<path d="M45.4211 414.058C91.32 371.875 147.259 326.183 204.715 303.977C225.442 295.966 240.724 291.267 257.602 291.218C269.779 291.178 281.57 293.412 294.273 296.67C336.988 307.613 360.534 323.317 388.552 309.647C439.467 284.806 407.659 208.415 482.767 148.211C484.696 146.665 486.684 145.129 488.748 143.608C548.477 99.7527 643.16 84.9872 707.906 79.199" stroke="url(#paint19_linear_57_3796)" stroke-opacity="0.45" stroke-width="4" stroke-miterlimit="10"/>
<path d="M41.3412 412.781C84.2715 372.779 141.709 325.74 202.153 305.395C223.593 298.179 240.972 294.961 257.902 295.414C270.151 295.738 281.606 297.892 293.073 300.821C332.265 310.826 356.514 326.494 384.154 312.688C435.102 287.238 400.829 209.255 476.353 147.74C478.299 146.15 480.318 144.573 482.41 143.007C542.643 98.0619 639.769 82.7073 706.099 76.5624" stroke="url(#paint20_linear_57_3796)" stroke-opacity="0.45" stroke-width="4" stroke-miterlimit="10"/>
<path d="M37.2613 411.505C77.2268 373.682 136.503 325.146 199.589 306.815C294.692 279.184 333.787 338.998 379.757 315.727C432.16 289.199 392.203 205.975 476.073 142.406C536.808 96.373 636.385 80.425 704.298 73.9258" stroke="url(#paint21_linear_57_3796)" stroke-opacity="0.45" stroke-width="4" stroke-miterlimit="10"/>
<defs>
<linearGradient id="paint0_linear_57_3796" x1="90.5046" y1="372.968" x2="710.394" y2="65.3678" gradientUnits="userSpaceOnUse">
<stop stop-color="white" stop-opacity="0.5"/>
<stop offset="0.262213" stop-color="#CA064D" stop-opacity="0.52"/>
<stop offset="0.812213" stop-color="#DCE6F9"/>
</linearGradient>
<linearGradient id="paint1_linear_57_3796" x1="87.951" y1="374.776" x2="710.208" y2="66.0009" gradientUnits="userSpaceOnUse">
<stop stop-color="white" stop-opacity="0.5"/>
<stop offset="0.262213" stop-color="#CA064D" stop-opacity="0.52"/>
<stop offset="0.812213" stop-color="#DCE6F9"/>
</linearGradient>
<linearGradient id="paint2_linear_57_3796" x1="85.4046" y1="376.576" x2="710.031" y2="66.6256" gradientUnits="userSpaceOnUse">
<stop stop-color="white" stop-opacity="0.5"/>
<stop offset="0.262213" stop-color="#CA064D" stop-opacity="0.52"/>
<stop offset="0.812213" stop-color="#DCE6F9"/>
</linearGradient>
<linearGradient id="paint3_linear_57_3796" x1="82.854" y1="378.384" x2="709.841" y2="67.2613" gradientUnits="userSpaceOnUse">
<stop stop-color="white" stop-opacity="0.5"/>
<stop offset="0.262213" stop-color="#CA064D" stop-opacity="0.52"/>
<stop offset="0.812213" stop-color="#DCE6F9"/>
</linearGradient>
<linearGradient id="paint4_linear_57_3796" x1="81.1035" y1="381.802" x2="710.47" y2="69.4986" gradientUnits="userSpaceOnUse">
<stop stop-color="white" stop-opacity="0.5"/>
<stop offset="0.262213" stop-color="#CA064D" stop-opacity="0.52"/>
<stop offset="0.812213" stop-color="#DCE6F9"/>
</linearGradient>
<linearGradient id="paint5_linear_57_3796" x1="79.3519" y1="385.217" x2="711.092" y2="71.7362" gradientUnits="userSpaceOnUse">
<stop stop-color="white" stop-opacity="0.5"/>
<stop offset="0.262213" stop-color="#CA064D" stop-opacity="0.52"/>
<stop offset="0.812213" stop-color="#DCE6F9"/>
</linearGradient>
<linearGradient id="paint6_linear_57_3796" x1="77.6004" y1="388.628" x2="711.702" y2="73.975" gradientUnits="userSpaceOnUse">
<stop stop-color="white" stop-opacity="0.5"/>
<stop offset="0.262213" stop-color="#CA064D" stop-opacity="0.52"/>
<stop offset="0.812213" stop-color="#DCE6F9"/>
</linearGradient>
<linearGradient id="paint7_linear_57_3796" x1="75.8428" y1="392.031" x2="712.32" y2="76.1998" gradientUnits="userSpaceOnUse">
<stop stop-color="white" stop-opacity="0.5"/>
<stop offset="0.262213" stop-color="#CA064D" stop-opacity="0.52"/>
<stop offset="0.812213" stop-color="#DCE6F9"/>
</linearGradient>
<linearGradient id="paint8_linear_57_3796" x1="74.0796" y1="395.423" x2="712.927" y2="78.4157" gradientUnits="userSpaceOnUse">
<stop stop-color="white" stop-opacity="0.5"/>
<stop offset="0.262213" stop-color="#CA064D" stop-opacity="0.52"/>
<stop offset="0.812213" stop-color="#DCE6F9"/>
</linearGradient>
<linearGradient id="paint9_linear_57_3796" x1="72.3104" y1="398.803" x2="713.528" y2="80.6194" gradientUnits="userSpaceOnUse">
<stop stop-color="white" stop-opacity="0.5"/>
<stop offset="0.262213" stop-color="#CA064D" stop-opacity="0.52"/>
<stop offset="0.812213" stop-color="#DCE6F9"/>
</linearGradient>
<linearGradient id="paint10_linear_57_3796" x1="70.5335" y1="402.165" x2="714.12" y2="82.8064" gradientUnits="userSpaceOnUse">
<stop stop-color="white" stop-opacity="0.5"/>
<stop offset="0.262213" stop-color="#CA064D" stop-opacity="0.52"/>
<stop offset="0.812213" stop-color="#DCE6F9"/>
</linearGradient>
<linearGradient id="paint11_linear_57_3796" x1="68.7464" y1="405.509" x2="714.703" y2="84.9738" gradientUnits="userSpaceOnUse">
<stop stop-color="white" stop-opacity="0.5"/>
<stop offset="0.262213" stop-color="#CA064D" stop-opacity="0.52"/>
<stop offset="0.812213" stop-color="#DCE6F9"/>
</linearGradient>
<linearGradient id="paint12_linear_57_3796" x1="66.9393" y1="408.813" x2="715.271" y2="87.099" gradientUnits="userSpaceOnUse">
<stop stop-color="white" stop-opacity="0.5"/>
<stop offset="0.262213" stop-color="#CA064D" stop-opacity="0.52"/>
<stop offset="0.812213" stop-color="#DCE6F9"/>
</linearGradient>
<linearGradient id="paint13_linear_57_3796" x1="65.117" y1="412.072" x2="715.819" y2="89.1818" gradientUnits="userSpaceOnUse">
<stop stop-color="white" stop-opacity="0.5"/>
<stop offset="0.262213" stop-color="#CA064D" stop-opacity="0.52"/>
<stop offset="0.812213" stop-color="#DCE6F9"/>
</linearGradient>
<linearGradient id="paint14_linear_57_3796" x1="63.2529" y1="415.27" x2="716.313" y2="91.2094" gradientUnits="userSpaceOnUse">
<stop stop-color="white" stop-opacity="0.5"/>
<stop offset="0.262213" stop-color="#CA064D" stop-opacity="0.52"/>
<stop offset="0.812213" stop-color="#DCE6F9"/>
</linearGradient>
<linearGradient id="paint15_linear_57_3796" x1="61.3425" y1="418.365" x2="716.78" y2="93.1252" gradientUnits="userSpaceOnUse">
<stop stop-color="white" stop-opacity="0.5"/>
<stop offset="0.262213" stop-color="#CA064D" stop-opacity="0.52"/>
<stop offset="0.812213" stop-color="#DCE6F9"/>
</linearGradient>
<linearGradient id="paint16_linear_57_3796" x1="57.9851" y1="418.544" x2="715.792" y2="92.1285" gradientUnits="userSpaceOnUse">
<stop stop-color="white" stop-opacity="0.5"/>
<stop offset="0.262213" stop-color="#CA064D" stop-opacity="0.52"/>
<stop offset="0.812213" stop-color="#DCE6F9"/>
</linearGradient>
<linearGradient id="paint17_linear_57_3796" x1="54.5866" y1="418.641" x2="714.764" y2="91.0491" gradientUnits="userSpaceOnUse">
<stop stop-color="white" stop-opacity="0.5"/>
<stop offset="0.262213" stop-color="#CA064D" stop-opacity="0.52"/>
<stop offset="0.812213" stop-color="#DCE6F9"/>
</linearGradient>
<linearGradient id="paint18_linear_57_3796" x1="51.1882" y1="418.735" x2="713.736" y2="89.9671" gradientUnits="userSpaceOnUse">
<stop stop-color="white" stop-opacity="0.5"/>
<stop offset="0.262213" stop-color="#CA064D" stop-opacity="0.52"/>
<stop offset="0.812213" stop-color="#DCE6F9"/>
</linearGradient>
<linearGradient id="paint19_linear_57_3796" x1="47.7927" y1="418.838" x2="712.716" y2="88.8909" gradientUnits="userSpaceOnUse">
<stop stop-color="white" stop-opacity="0.5"/>
<stop offset="0.262213" stop-color="#CA064D" stop-opacity="0.52"/>
<stop offset="0.812213" stop-color="#DCE6F9"/>
</linearGradient>
<linearGradient id="paint20_linear_57_3796" x1="44.3901" y1="418.926" x2="711.678" y2="87.8055" gradientUnits="userSpaceOnUse">
<stop stop-color="white" stop-opacity="0.5"/>
<stop offset="0.262213" stop-color="#CA064D" stop-opacity="0.52"/>
<stop offset="0.812213" stop-color="#DCE6F9"/>
</linearGradient>
<linearGradient id="paint21_linear_57_3796" x1="40.9869" y1="419.013" x2="710.645" y2="86.7165" gradientUnits="userSpaceOnUse">
<stop stop-color="white" stop-opacity="0.5"/>
<stop offset="0.262213" stop-color="#CA064D" stop-opacity="0.52"/>
<stop offset="0.812213" stop-color="#DCE6F9"/>
</linearGradient>
</defs>
</svg>
