<svg width="1512" height="981" viewBox="0 0 1512 981" fill="none" xmlns="http://www.w3.org/2000/svg">
<path d="M-68.5508 815.382C0.832051 803.206 68.5107 803.17 130.265 815.277C221.66 833.777 237.273 868.423 313.045 865.388C386.677 862.415 468.956 825.806 525.416 778.273C602.448 713.401 582.295 669.525 654.29 540.036C696.649 463.919 776.032 321.099 923.262 245.488C997.647 207.294 1083.2 189.412 1162.71 172.775C1260.17 152.386 1279.92 159.417 1327.81 140.26C1384.69 117.518 1462.78 65.2555 1540.44 -69.8825" stroke="url(#paint0_linear_60_6257)" stroke-opacity="0.45" stroke-width="4" stroke-miterlimit="10"/>
<path d="M-65.7324 823.966C-3.48456 812.523 57.5784 810.774 114.406 818.808C119.863 819.617 125.368 820.507 130.948 821.463C221.993 837.926 237.627 870.595 312.23 867.224C344.778 865.805 378.471 858.725 411.35 846.395C434.892 837.549 457.788 826.313 479.449 812.976C495.643 802.996 510.933 791.741 525.031 779.423C540.842 765.874 554.56 750.721 565.63 734.576C585.97 704.812 595.135 675.191 612.226 634.796C625.109 604.383 640.851 574.283 659.273 544.832C668.97 529.13 680.132 510.508 693.725 490.181C730.056 435.73 779.345 370.902 851.947 316.425C876.529 297.848 902.801 281.215 930.262 266.841C934.466 264.632 938.689 262.522 942.878 260.485C984.349 240.283 1026.61 225.798 1071.09 213.279C1104.31 203.817 1137 197.068 1169.14 189.895C1182.65 186.96 1194.75 184.396 1205.75 182.195C1272.22 168.966 1292.5 170.747 1333.02 153.251C1363.8 139.955 1400.78 117.816 1441.24 78.5106C1474.42 46.299 1510.23 2.11701 1547.23 -58.128" stroke="url(#paint1_linear_60_6257)" stroke-opacity="0.45" stroke-width="4" stroke-miterlimit="10"/>
<path d="M-62.7783 832.527C-1.46614 820.698 58.8233 818.272 115.153 825.367C120.561 826.067 126.008 826.836 131.495 827.673C222.341 842.039 238.029 872.656 311.442 869.044C344.148 867.761 378.035 860.808 411.151 848.585C434.833 839.689 457.842 828.315 479.549 814.775C495.688 804.642 510.826 793.151 524.633 780.554C540.129 766.661 553.63 751.344 564.674 735.128C585.902 704.304 596.48 674.66 614.108 635.976C627.678 606.505 644.431 577.494 664.114 549.382C674.308 534.541 685.624 517.03 699.718 498.026C737.268 447.376 785.178 389.324 858.139 337.288C883.283 319.203 909.749 302.753 937.198 288.148C941.458 285.907 945.685 283.74 949.892 281.666C991.907 260.849 1032.59 245.851 1077.23 231.792C1110.87 221.22 1143.21 214.453 1175.51 207.027C1188.92 203.928 1201.05 201.156 1212.19 198.682C1278.12 184.126 1298.43 184.796 1338.15 166.235C1368.41 152.095 1404.65 129.34 1445.28 89.7447C1478.46 57.3777 1515.04 13.1821 1554.04 -46.3322" stroke="url(#paint2_linear_60_6257)" stroke-opacity="0.45" stroke-width="4" stroke-miterlimit="10"/>
<path d="M-60.1768 841.129C0.331082 828.871 59.9741 825.761 115.912 831.946C121.263 832.57 126.666 833.219 132.076 833.946C222.769 846.161 238.394 874.848 310.598 870.897C344.785 869.017 376.414 863.616 410.879 850.845C434.723 841.894 457.866 830.371 479.633 816.61C495.72 806.315 510.703 794.581 524.207 781.701C539.398 767.463 552.705 751.969 563.745 735.665C585.806 703.814 597.792 674.203 615.998 637.233C630.27 608.684 648.075 580.782 669.05 554.096C679.881 540.033 691.239 523.7 705.805 506.034C744.709 458.835 791.07 407.848 864.366 358.213C890.079 340.627 916.771 324.349 944.238 309.505C948.514 307.227 952.87 304.958 956.952 302.929C998.083 282.342 1040.41 264.77 1083.36 250.456C1117.39 238.753 1149.46 232.034 1181.96 224.189C1195.3 220.967 1207.42 217.981 1218.74 215.218C1284.09 199.332 1304.44 198.833 1343.36 179.284C1373.14 164.325 1408.71 140.844 1449.42 101.008C1482.68 68.5921 1519.84 24.2269 1560.78 -34.6592" stroke="url(#paint3_linear_60_6257)" stroke-opacity="0.45" stroke-width="4" stroke-miterlimit="10"/>
<path d="M-57.3994 849.71C2.23682 837.074 61.1615 833.281 116.659 838.505C121.963 839.047 127.323 839.557 132.646 840.197C223.092 850.425 238.744 876.885 309.793 872.754C344.654 870.676 375.564 866.046 410.663 853.072C434.653 844.085 457.909 832.414 479.705 818.426C495.797 807.967 510.67 795.97 523.893 782.784C538.76 768.256 551.879 752.636 562.943 736.292C585.825 703.393 599.395 673.797 617.959 638.422C631.068 613.488 648.894 588.014 674.057 558.741C685.474 545.433 697.003 530.175 711.969 513.917C752.461 469.923 797.062 426.287 870.552 379.134C896.785 362.051 923.693 345.942 951.169 330.87C955.489 328.539 959.777 326.282 963.92 324.164C1004.85 303.065 1046.91 284.593 1089.64 268.945C1124.13 256.079 1155.77 249.526 1188.39 241.232C1201.51 237.968 1213.86 234.718 1225.29 231.64C1290.09 214.542 1310.42 212.772 1348.59 192.182C1377.89 176.383 1412.74 152.25 1453.58 112.177C1486.75 79.6183 1524.66 35.2353 1567.53 -22.9654" stroke="url(#paint4_linear_60_6257)" stroke-opacity="0.45" stroke-width="4" stroke-miterlimit="10"/>
<path d="M-54.5928 858.274C4.16671 845.278 62.3615 840.808 117.407 845.063C122.651 845.503 127.94 845.89 133.192 846.407C223.37 854.415 239.126 879.04 308.91 874.602C344.456 872.347 374.648 868.486 410.352 855.326C434.506 846.286 457.894 834.458 479.738 820.236C495.761 809.648 510.452 797.44 523.327 784.011C537.872 769.167 550.797 753.378 561.858 736.945C585.613 703.024 600.83 673.487 619.696 639.74C633.661 614.857 652.873 590.55 678.829 563.495C690.887 550.908 702.611 536.767 717.833 521.862C760.236 480.724 802.84 444.741 876.641 399.947C902.286 384.377 930.606 367.071 958.042 352.132C962.407 349.748 966.627 347.503 970.83 345.295C1011.5 323.719 1053.2 304.388 1095.6 287.457C1130.48 273.46 1161.89 266.96 1194.73 258.322C1207.92 254.855 1220.08 251.412 1231.71 248.085C1296.02 229.878 1316.67 227.238 1353.71 205.279C1382.34 188.313 1416.68 163.818 1457.59 123.464C1490.68 90.7043 1529.37 46.3283 1574.19 -11.1666" stroke="url(#paint5_linear_60_6257)" stroke-opacity="0.45" stroke-width="4" stroke-miterlimit="10"/>
<path d="M-51.8271 866.835C6.07392 853.489 63.5504 848.345 118.154 851.622C123.339 851.96 128.597 852.228 133.75 852.639C223.77 858.553 239.499 881.118 308.065 876.455C344.189 874.03 373.73 870.927 410.109 857.57C434.37 848.479 457.84 836.522 479.697 822.117C495.694 811.358 510.245 798.902 522.816 785.207C536.99 770.047 549.716 754.103 560.811 737.604C585.388 702.635 602.318 673.01 621.392 641.054C636.194 616.126 656.891 593.09 683.572 568.266C696.328 556.368 711.206 545.157 723.774 530.01C774.731 498.487 806.99 460.121 882.706 421.048C909.46 407.267 937.639 388.677 964.856 373.619C969.277 371.203 973.557 368.868 977.693 366.672C1021.95 343.112 1056.17 325.679 1101.58 306.068C1136.85 290.92 1167.95 284.541 1200.96 275.479C1213.94 271.97 1226.24 268.253 1238.04 264.638C1301.65 245.165 1322.05 240.709 1358.69 218.189C1387.05 200.695 1420.51 175.204 1461.53 134.649C1494.68 101.857 1533.96 57.3318 1580.78 0.510406" stroke="url(#paint6_linear_60_6257)" stroke-opacity="0.45" stroke-width="4" stroke-miterlimit="10"/>
<path d="M-49.0488 875.416C7.98761 861.721 64.7355 855.891 118.89 858.16C124.056 858.4 129.243 858.545 134.297 858.849C224.276 862.548 239.975 883.11 307.334 878.242C344.244 875.554 372.954 873.287 409.95 859.764C434.43 850.608 458.079 838.457 480.011 823.765C497.907 811.931 510.791 799.085 522.632 786.187C536.455 770.714 549.004 754.599 560.148 738.014C585.558 702.018 604.373 672.343 623.568 642.092C639.26 617.277 661.496 595.346 688.641 572.82C702.192 561.584 717.496 551.956 730.023 537.843C783.57 510.805 814.899 481.877 889.067 441.813C915.678 427.46 944.94 409.965 972.036 394.894C976.427 392.36 980.787 390.033 984.871 387.812C1029.7 363.543 1062.3 345.537 1107.99 324.647C1143.63 308.385 1174.44 302.09 1207.63 292.624C1220.54 288.992 1232.83 285.063 1244.8 281.158C1307.92 260.498 1328.3 254.792 1364.13 231.185C1392.02 212.872 1424.77 186.728 1465.9 145.917C1499.07 113.108 1539.02 68.4221 1587.81 12.2904" stroke="url(#paint7_linear_60_6257)" stroke-opacity="0.45" stroke-width="4" stroke-miterlimit="10"/>
<path d="M-46.2549 883.96C9.90728 869.953 65.907 863.436 119.601 864.658C124.72 864.815 129.876 864.842 134.988 864.922C224.673 866.551 240.414 885.041 306.471 879.997C344.054 877.111 372.057 875.634 409.675 861.888C434.287 852.713 458.039 840.438 479.991 825.551C498.07 813.448 510.512 800.421 522.114 787.306C536.443 771.114 547.03 755.719 559.118 738.636C585.401 701.618 612.05 673.098 625.377 643.341C646.65 620.328 662.014 590.979 693.581 577.478C710.011 570.449 723.689 558.784 736.131 545.757C792.283 523.168 821.035 500.37 895.327 462.665C922.428 448.902 952.24 431.254 979.04 416.19C983.515 413.607 987.793 411.137 991.952 408.981C1037.29 384.036 1068.28 365.378 1114.19 343.185C1150.29 325.702 1180.74 319.562 1214.08 309.708C1226.92 305.953 1239.24 301.816 1251.34 297.617C1313.83 275.871 1334.29 268.673 1369.38 244.124C1396.81 224.935 1428.87 198.122 1470.05 157.086C1503.22 124.123 1543.75 79.4793 1594.63 23.9722" stroke="url(#paint8_linear_60_6257)" stroke-opacity="0.45" stroke-width="4" stroke-miterlimit="10"/>
<path d="M-43.4893 892.521C11.8432 878.214 67.127 871.04 120.372 871.258C125.431 871.313 130.469 871.135 135.586 871.157C225.286 870.538 240.759 887.135 305.666 881.854C343.94 878.734 371.208 878.063 409.443 864.152C434.206 854.912 458.08 842.485 480.075 827.387C498.336 815.014 510.3 801.745 521.728 788.457C535.601 772.256 545.829 756.63 558.173 739.209C585.265 701.123 614.277 672.795 627.315 644.489C649.997 621.836 667.448 592.593 698.565 582.082C715.58 576.326 729.922 565.616 742.21 553.688C800.968 535.547 827.194 518.903 901.558 483.533C929.139 470.34 959.27 452.725 986.044 437.486L998.905 430.06C1044.8 404.385 1074.26 385.104 1120.32 361.6C1156.83 342.949 1186.96 336.967 1220.47 326.689C1233.24 322.811 1245.55 318.462 1257.8 313.952C1319.69 291.163 1340.21 282.51 1374.55 256.977C1401.48 236.927 1432.85 209.446 1474.14 168.19C1507.27 135.107 1548.63 90.3404 1601.36 35.5674" stroke="url(#paint9_linear_60_6257)" stroke-opacity="0.45" stroke-width="4" stroke-miterlimit="10"/>
<path d="M-40.7344 901.061C13.7238 886.509 68.2342 878.682 120.983 877.84C125.965 877.694 131.003 877.516 136.013 877.354C225.463 874.614 241.007 889.122 304.771 883.681C343.723 880.306 370.408 880.381 409.137 866.349C434.054 857.085 458.049 844.515 480.068 829.193C498.539 816.535 510.068 803.162 521.222 789.595C534.569 773.261 544.55 757.532 557.161 739.794C585.114 700.664 616.436 672.504 629.029 645.765C653.136 623.437 677.558 606.333 703.313 586.794C720.519 579.809 735.907 572.536 748.166 561.663C809.549 548.068 833.158 537.55 907.615 504.42C935.745 491.919 966.447 474.384 992.884 458.821C997.443 456.189 1001.81 453.67 1005.83 451.347C1051.85 424.204 1080.06 405.079 1126.39 380.239C1163.35 360.405 1193.11 354.577 1226.83 343.878C1239.51 339.857 1251.89 335.303 1264.14 330.524C1325.43 306.69 1345.88 296.606 1379.55 270.041C1406.01 249.135 1436.67 221.002 1478.1 179.472C1511.22 146.292 1553.17 101.51 1607.94 47.3579" stroke="url(#paint10_linear_60_6257)" stroke-opacity="0.45" stroke-width="4" stroke-miterlimit="10"/>
<path d="M-37.9404 909.605C15.724 894.752 69.5392 886.229 121.859 884.297C126.813 884.168 131.796 883.83 136.735 883.545C226.093 878.564 241.549 891.102 303.999 885.465C343.665 881.896 369.463 882.839 408.949 868.56C434.087 859.229 458.265 846.463 480.354 830.857C499.12 817.866 510.246 804.315 520.937 790.661C533.933 774.174 543.547 758.33 556.309 740.203C585.067 700.063 618.756 672.039 630.959 646.835C656.476 624.867 682.178 609.072 708.267 591.28C726.284 585.246 742.098 579.229 754.288 569.406C818.212 560.214 839.338 555.99 913.859 525.116C942.505 513.247 973.632 495.603 999.913 479.965C1004.53 477.3 1008.89 474.782 1012.94 472.442C1059.45 444.582 1086.06 424.768 1132.64 398.666C1169.98 377.681 1199.46 371.995 1233.33 360.872C1245.96 356.748 1258.21 351.969 1270.85 346.885C1331.56 322.048 1352.14 310.383 1384.94 282.899C1410.91 261.133 1440.9 232.351 1482.41 190.581C1515.51 157.302 1558.28 112.377 1614.92 58.9787" stroke="url(#paint11_linear_60_6257)" stroke-opacity="0.45" stroke-width="4" stroke-miterlimit="10"/>
<path d="M-35.1855 918.145C17.6662 903.042 70.7506 893.854 122.595 890.835C127.577 890.689 132.43 890.126 137.31 889.739C226.591 882.481 241.961 893.049 303.172 887.281C343.516 883.456 368.579 885.206 408.711 870.746C433.947 861.39 458.195 848.51 480.274 832.733C498.957 819.598 509.99 805.691 520.432 791.799C532.823 775.307 542.183 759.281 555.355 740.891C584.963 699.686 620.974 671.85 632.805 648.145C659.746 626.501 686.546 611.957 713.182 596.087C731.971 591.001 748.25 586.244 760.343 577.487C826.885 572.764 845.453 574.768 920.066 546.134C949.238 534.917 980.613 516.857 1006.86 501.485C1011.53 498.788 1015.92 496.253 1019.97 493.913C1067.02 465.303 1092.55 445.759 1138.85 417.474C1176.18 394.661 1205.74 389.773 1239.83 378.287C1252.48 373.954 1265.04 369.076 1277.43 363.675C1337.57 337.854 1358.17 324.652 1390.21 296.185C1415.71 273.543 1445 244.129 1486.6 202.118C1519.81 168.66 1563.14 123.716 1621.75 71.0073" stroke="url(#paint12_linear_60_6257)" stroke-opacity="0.45" stroke-width="4" stroke-miterlimit="10"/>
<path d="M-34.9619 922.303C17.1101 906.993 69.4786 897.169 120.847 893.073C125.711 892.723 130.592 892.143 135.429 891.617C224.606 882.099 239.945 890.663 299.849 884.776C340.895 880.737 365.223 883.293 405.961 868.647C431.358 859.251 455.737 846.222 477.851 830.227C496.845 816.721 507.404 802.707 517.595 788.577C529.328 771.918 538.332 755.797 551.868 737.061C582.344 694.891 620.675 667.108 632.128 644.959C660.467 623.655 688.428 610.407 715.54 596.337C735.113 592.218 751.816 588.718 763.852 581.032C832.999 580.756 849.132 589.136 923.629 562.509C953.354 551.927 985.131 533.717 1011.24 518.234L1024.3 510.446C1072.35 481.884 1095.34 460.149 1142.33 431.379C1180.49 407.981 1209.32 402.669 1243.54 390.697C1256.25 386.177 1268.85 381.084 1281.26 375.444C1340.69 348.721 1361.42 333.861 1392.69 304.446C1417.73 280.928 1446.34 250.866 1488.02 208.614C1521.19 175.074 1565.24 130.034 1625.83 78.0157" stroke="url(#paint13_linear_60_6257)" stroke-opacity="0.45" stroke-width="4" stroke-miterlimit="10"/>
<path d="M-35.9053 924.568C15.3304 908.992 66.9275 898.455 117.762 893.189C122.607 892.74 127.417 892.038 132.183 891.389C221.42 879.569 236.607 886.311 295.309 880.161C337.061 875.852 360.638 879.251 402.021 864.423C427.571 854.947 452.06 841.735 474.18 825.493C493.317 811.714 503.588 797.592 513.37 783.207C524.762 766.609 533.517 750.25 547.166 731.256C578.468 687.982 619.145 660.428 630.237 639.798C660.001 618.819 688.263 603.102 716.723 594.617C737.121 588.547 754.296 589.307 766.031 582.531C837.757 586.721 851.426 601.492 925.979 577.043C956.227 567.171 988.449 548.758 1014.35 533.234C1019.13 530.471 1023.48 527.74 1027.46 525.335C1076.05 496.023 1097.41 473.673 1144.64 443.563C1183.18 418.994 1211.72 413.844 1246.07 401.386C1258.84 396.713 1271.47 391.41 1283.88 385.508C1342.74 357.86 1363.47 341.385 1394 311.007C1418.53 286.608 1446.47 255.898 1488.25 213.425C1521.37 179.803 1566.16 134.668 1628.65 83.2166" stroke="url(#paint14_linear_60_6257)" stroke-opacity="0.45" stroke-width="4" stroke-miterlimit="10"/>
<path d="M-36.7334 926.711C13.7217 910.922 64.5802 899.711 114.892 893.289C119.705 892.722 124.473 891.881 129.151 891.145C218.225 876.963 233.273 881.709 290.767 875.547C333.17 870.999 356.023 875.225 398.181 860.114C423.919 850.686 448.579 837.376 470.762 820.94C490.097 806.855 499.959 792.479 509.465 778.007C520.406 761.341 528.826 744.793 542.883 725.4C574.989 681.115 618.018 653.733 628.764 634.586C659.862 613.901 689.74 599.682 718.241 592.893C739.65 587.796 756.968 589.648 768.86 584.12C843.175 592.794 854.369 613.936 928.96 591.568C959.758 582.388 992.301 563.818 1018.15 548.268L1031.3 540.239C1080.42 510.214 1100.16 487.212 1147.65 455.804C1186.61 430.009 1214.89 425.177 1249.39 412.218C1262.24 407.409 1274.91 401.915 1287.33 395.776C1345.6 367.238 1366.36 349.112 1396.14 317.771C1420.17 292.512 1447.41 261.17 1489.3 218.44C1533.32 172.629 1581.1 129.253 1632.07 88.8288" stroke="url(#paint15_linear_60_6257)" stroke-opacity="0.45" stroke-width="4" stroke-miterlimit="10"/>
<path d="M-38.1289 928.063C11.583 912.104 61.7201 900.248 111.501 892.68C116.283 891.994 120.992 891.05 125.6 890.192C214.63 873.659 229.594 876.57 285.813 870.216C328.95 865.38 351.024 870.466 393.687 855.255C419.584 845.758 444.356 832.255 466.525 815.55C486.002 801.192 495.529 786.626 504.729 771.949C515.191 755.232 523.288 738.516 537.556 718.837C570.523 673.509 615.79 646.364 626.248 628.667C658.818 608.388 690.127 595.609 718.758 590.41C741.175 586.342 758.746 589.413 770.53 584.931C847.45 598.053 856.152 625.604 930.753 605.332C962.101 596.845 995.039 578.047 1020.68 562.399C1025.47 559.465 1029.91 556.685 1033.86 554.239C1083.61 523.415 1101.65 499.867 1149.34 467.172C1188.67 440.206 1216.62 435.455 1251.34 422.152C1264.24 417.16 1276.93 411.435 1289.33 405.024C1347.06 375.602 1367.78 355.8 1396.83 323.516C1420.35 297.376 1446.93 265.407 1488.9 222.416C1533.33 176.252 1582.19 132.99 1634.67 93.334" stroke="url(#paint16_linear_60_6257)" stroke-opacity="0.45" stroke-width="4" stroke-miterlimit="10"/>
<path d="M-40.4355 927.838C8.53687 911.697 57.9443 899.176 107.164 890.433C111.887 889.645 116.565 888.582 121.113 887.622C210.092 868.661 225.014 869.548 279.913 863.246C323.756 858.139 345.09 864.089 388.375 848.655C414.43 839.131 439.327 825.482 461.512 808.559C481.149 793.891 490.353 779.156 499.219 764.29C509.264 747.568 517.004 730.621 531.538 710.625C565.338 664.27 612.988 637.223 623.041 621.098C657.008 601.159 689.752 589.955 718.598 586.298C741.961 583.349 759.822 587.508 771.537 584.076C851.046 601.683 857.217 635.638 931.872 617.411C963.726 609.669 997.109 590.668 1022.58 574.925C1027.39 571.955 1031.85 569.138 1035.79 566.671C1086 535.167 1102.42 510.947 1150.34 476.969C1190.06 448.795 1217.74 444.226 1252.58 430.532C1265.54 425.356 1278.28 419.415 1290.68 412.762C1347.87 382.476 1368.53 360.994 1396.85 327.767C1419.9 300.808 1445.79 268.113 1487.86 224.901C1532.59 178.358 1582.42 135.188 1636.28 96.3114" stroke="url(#paint17_linear_60_6257)" stroke-opacity="0.45" stroke-width="4" stroke-miterlimit="10"/>
<path d="M-42.7129 927.597C5.5379 911.312 54.2124 898.139 102.84 888.206C107.532 887.299 112.127 886.093 116.616 885.03C205.608 863.687 220.116 862.819 274.013 856.276C318.523 850.894 339.146 857.691 383.048 842.092C409.276 832.548 434.31 818.737 456.501 801.568C476.285 786.569 485.19 771.707 493.738 756.614C503.296 739.764 510.72 722.726 525.522 702.412C560.218 655.075 610.188 628.082 619.823 613.508C651.046 595.84 685.217 584.98 718.398 582.181C742.691 580.388 760.888 585.583 772.517 583.237C854.632 605.292 858.254 645.688 932.992 629.488C965.363 622.513 999.145 603.227 1024.46 587.467C1029.34 584.428 1033.78 581.591 1037.73 579.067C1088.41 546.803 1103.38 522.047 1151.49 486.684C1191.55 457.354 1219.01 452.916 1254.01 438.797C1266.18 433.875 1278.19 427.264 1292.17 420.398C1350.11 391.942 1369.44 366.089 1397.02 331.9C1419.53 303.999 1444.79 270.737 1486.94 227.285C1532.03 180.333 1582.85 137.211 1638.07 99.0763" stroke="url(#paint18_linear_60_6257)" stroke-opacity="0.45" stroke-width="4" stroke-miterlimit="10"/>
<path d="M-45.0186 927.372C2.53779 910.942 50.49 897.105 98.5032 885.959C103.153 884.913 107.7 883.625 112.147 882.423C200.913 858.479 215.585 855.879 268.114 849.307C313.358 843.637 333.089 851.359 377.75 835.513C404.187 825.921 429.393 811.927 451.631 794.496C471.533 779.183 480.128 764.172 488.369 748.874C497.392 732.006 504.549 714.767 519.617 694.135C555.128 645.672 607.476 618.835 616.729 605.874C649.33 588.676 684.676 579.035 718.297 578.171C743.424 577.562 762.024 583.78 773.556 582.501C858.277 609.005 859.323 655.857 934.155 641.705C967.06 635.459 1001.22 615.926 1026.45 600.08C1031.35 597.003 1035.82 594.093 1039.74 591.585C1090.95 558.551 1104.25 533.098 1152.66 496.519C1193.15 465.964 1220.22 461.831 1255.5 447.165C1268.47 441.332 1281.25 434.976 1293.78 428.125C1351.17 398.514 1370.45 371.272 1397.32 336.123C1419.29 307.358 1443.92 273.452 1486.05 229.824C1531.46 182.517 1583.28 139.517 1639.78 102.238" stroke="url(#paint19_linear_60_6257)" stroke-opacity="0.45" stroke-width="4" stroke-miterlimit="10"/>
<path d="M-47.3252 927.147C-0.43205 910.581 46.8086 896.069 94.1823 883.675C98.7726 882.526 103.273 881.157 107.637 879.811C196.376 853.48 210.916 848.963 262.373 842.354C308.141 836.354 327.144 844.961 372.41 828.929C398.983 819.34 424.293 805.212 446.506 787.57C466.555 771.926 474.867 756.751 482.746 741.28C491.413 724.316 498.152 706.937 513.515 685.971C549.831 636.498 604.638 609.824 613.362 598.288C647.405 581.459 683.979 572.953 718.065 573.935C743.994 574.584 763.001 581.768 774.464 581.54C861.774 612.528 860.315 665.96 935.215 653.68C968.637 648.201 1003.18 628.419 1028.23 612.536C1033.18 609.406 1037.67 606.459 1041.57 603.91C1093.34 570.09 1104.99 544.059 1153.66 506.18C1194.52 474.397 1221.32 470.504 1256.71 455.426C1269.75 449.459 1282.56 442.892 1295.07 435.76C1351.91 404.995 1371.14 376.362 1397.27 340.251C1418.76 310.609 1442.75 276.039 1485.01 232.252C1530.78 184.551 1583.6 141.634 1641.37 105.195" stroke="url(#paint20_linear_60_6257)" stroke-opacity="0.45" stroke-width="4" stroke-miterlimit="10"/>
<path d="M-49.5752 926.89C3.77684 907.965 52.2703 892.063 89.8853 881.432C94.4728 880.149 98.8902 878.636 103.191 877.245C191.836 848.347 206.299 842.072 256.294 835.27C302.916 828.995 321.292 838.401 367.091 822.252C393.827 812.639 419.263 798.355 441.475 780.481C461.659 764.486 469.712 749.188 477.244 733.507C485.433 716.493 491.849 698.944 507.479 677.661C544.655 627.144 601.829 600.606 610.184 590.704C645.659 574.28 683.4 566.921 717.874 569.705C744.575 571.628 764.796 578.248 775.452 580.587C874.386 602.462 861.296 676.043 936.315 665.661C970.239 660.984 1005.24 640.885 1030.12 624.965C1035.11 621.782 1039.58 618.794 1043.49 616.208C1095.7 581.666 1105.73 555.04 1154.71 515.867C1195.96 482.855 1222.46 479.181 1258.02 463.622C1271.25 457.777 1284.13 450.99 1296.49 443.352C1351.66 409.641 1371.94 381.389 1397.37 344.339C1418.32 313.812 1441.62 278.631 1484.04 234.476C1530.21 186.371 1584.04 143.523 1643.05 107.911" stroke="url(#paint21_linear_60_6257)" stroke-opacity="0.45" stroke-width="4" stroke-miterlimit="10"/>
<path d="M-51.9092 926.681C1.82387 907.181 49.5275 890.561 85.5207 879.201C90.0654 877.778 94.4237 876.163 98.665 874.67C187.273 843.172 201.615 835.192 250.402 828.377C297.746 821.795 315.378 832.121 361.783 815.787C388.703 806.144 414.287 791.691 436.511 773.572C456.79 757.222 464.556 741.816 471.742 725.926C479.507 708.828 485.46 691.192 501.469 669.525C539.467 617.961 598.851 591.676 607.001 583.175C648.034 564.946 686.894 562.06 717.721 565.67C745.163 568.94 765.841 576.743 776.439 579.826C876.739 608.94 862.303 686.301 937.426 677.852C971.839 673.958 1007.29 653.542 1032 637.584C1037.03 634.328 1041.55 631.308 1045.42 628.718C1098.15 593.384 1106.57 566.107 1155.81 525.693C1197.41 491.488 1223.65 488.055 1259.35 472.03C1272.65 466.008 1285.56 459.002 1297.89 451.114C1352.63 416.589 1372.77 386.611 1397.5 348.581C1417.91 317.191 1440.57 281.365 1483.14 236.937C1516.13 202.514 1566.55 156.725 1644.78 110.843" stroke="url(#paint22_linear_60_6257)" stroke-opacity="0.45" stroke-width="4" stroke-miterlimit="10"/>
<path d="M-54.2158 926.456C-0.0944276 906.459 46.7602 889.019 81.1952 876.975C85.6853 875.392 89.9845 873.675 94.2258 872.182C182.544 838.038 196.946 828.276 244.501 821.409C292.056 814.541 309.433 825.725 356.472 809.188C383.563 799.546 409.284 784.94 431.498 766.581C451.861 749.856 459.42 734.351 466.272 718.272C473.597 701.127 479.3 683.253 495.463 661.334C534.381 608.829 596.045 582.593 603.806 575.627C646.264 557.722 686.146 556.54 717.561 561.558C745.632 566.048 766.714 575.202 777.371 578.906C878.655 615.315 863.211 696.454 938.498 689.849C973.395 686.794 1009.27 666.057 1033.86 650.029C1038.9 646.736 1043.43 643.659 1047.4 640.983C1100.59 604.813 1107.47 577.028 1156.93 535.311C1198.93 499.898 1224.92 496.688 1260.76 480.198C1274.13 474.005 1287.08 466.787 1299.4 458.657C1353.69 423.296 1373.64 391.626 1397.69 352.621C1417.57 320.366 1439.59 283.896 1482.3 239.195C1515.31 204.657 1566.38 158.785 1646.62 113.634" stroke="url(#paint23_linear_60_6257)" stroke-opacity="0.45" stroke-width="4" stroke-miterlimit="10"/>
<path d="M-56.4932 926.215C-2.03523 905.695 43.9941 887.476 76.8828 874.768C81.33 873.047 85.5819 871.247 89.6931 869.529C177.862 832.851 192.278 821.36 238.614 814.459C287.356 807.178 303.46 819.343 351.145 802.625C378.42 792.981 404.288 778.206 426.487 759.59C446.921 742.468 454.273 726.865 460.802 710.616C467.664 693.384 473.028 675.379 489.475 653.105C529.138 599.487 591.924 570.254 600.6 568.058C645.354 556.664 685.346 550.995 717.401 557.445C746.109 563.233 767.717 573.558 778.438 578.153C880.388 621.824 864.21 706.827 939.689 702.049C975.059 699.814 1011.36 678.719 1035.79 662.674C1040.91 659.312 1045.42 656.213 1049.3 653.566C1103.05 616.687 1108.24 588.242 1157.97 545.226C1200.31 508.6 1226.04 505.651 1262.06 488.679C1275.5 482.311 1288.48 474.881 1300.78 466.513C1354.64 430.338 1374.42 396.938 1397.74 356.99C1417.15 323.936 1438.48 286.72 1481.31 241.762C1514.29 207.126 1566.11 161.178 1648.29 116.713" stroke="url(#paint24_linear_60_6257)" stroke-opacity="0.45" stroke-width="4" stroke-miterlimit="10"/>
<path d="M-58.8008 925.99C-3.91903 905.035 41.1623 885.888 72.5209 872.48C76.9135 870.599 81.1181 868.718 85.1983 866.881C173.153 827.623 187.637 814.428 232.7 807.469C282.33 799.84 297.418 812.974 345.797 795.964C373.249 786.297 399.257 771.356 421.455 752.501C441.892 734.995 449.089 719.317 455.279 702.937C461.694 685.581 466.731 667.464 483.456 644.892C523.981 590.231 590.114 563.872 597.38 560.469C641.711 539.762 684.505 545.446 717.115 553.377C739.418 559.169 760.259 567.207 779.292 577.36C881.796 628.164 865.023 717.142 940.807 714.128C976.622 712.727 1013.42 691.319 1037.7 675.2C1042.83 671.801 1047.37 668.63 1051.15 666.011C1105.34 628.312 1108.95 599.276 1159 555.006C1201.65 517.164 1227.21 514.505 1263.35 497.026C1276.86 490.481 1289.87 482.831 1302.15 474.215C1355.61 437.208 1375.09 402.066 1397.8 361.188C1416.58 327.163 1437.34 289.426 1480.35 244.199C1513.34 209.449 1565.8 163.434 1649.98 119.642" stroke="url(#paint25_linear_60_6257)" stroke-opacity="0.45" stroke-width="4" stroke-miterlimit="10"/>
<path d="M-61.1064 925.765C-6.00356 904.218 38.2806 884.276 68.1846 870.232C167.131 823.755 180.982 807.84 226.801 800.499C276.958 792.484 291.569 806.548 340.505 789.463C368.141 779.793 394.299 764.691 416.491 745.592C458.276 708.907 444.176 681.496 477.439 636.68C518.785 580.971 587.525 555.291 594.174 552.9C682.714 520.895 757.163 563.404 780.384 576.456C883.279 634.243 866.007 727.36 941.899 726.222C985.944 725.558 1031.45 693.632 1053.12 678.39C1107.83 639.978 1109.84 610.311 1160.11 564.738C1216.76 513.359 1242.66 525.273 1303.64 481.872C1400.88 412.544 1384.8 346.546 1479.29 246.664C1512.27 211.815 1565.43 165.721 1651.58 122.619" stroke="url(#paint26_linear_60_6257)" stroke-opacity="0.45" stroke-width="4" stroke-miterlimit="10"/>
<path d="M-58.1084 927.447C-3.90608 906.421 39.8873 887.253 69.8622 873.333C166.564 828.752 181.275 812.831 226.881 805.642C276.195 797.922 291.029 811.201 338.903 794.811C366.004 785.417 391.749 770.873 413.856 752.466C455.837 717.551 442.623 690.503 475.636 646.814C516.32 592.688 582.63 567.156 590.151 563.933C660.458 533.69 724.015 559.933 756.429 574.805C763.055 577.833 768.255 580.729 772.238 582.689C873.748 635.023 857.856 724.093 931.874 721.661C976.039 720.164 1021.78 687.723 1044.46 672.032C1065.27 657.692 1083.65 640.684 1098.58 621.944C1114.13 603.382 1127.88 584.63 1155.08 561.744C1163.43 554.744 1171.18 549.066 1178.16 543.998C1220.46 513.27 1244.55 514.898 1294.75 476.547C1314.2 461.746 1331.37 444.82 1345.56 426.492C1384.14 376.912 1394.37 321.852 1456.88 249.886C1460.54 245.659 1464.43 241.354 1468.56 236.971C1501.72 201.604 1555.47 154.437 1642.69 110.276" stroke="url(#paint27_linear_60_6257)" stroke-opacity="0.45" stroke-width="4" stroke-miterlimit="10"/>
<path d="M-55.1104 929.13C-1.92118 908.688 41.3876 890.045 71.5562 876.396C165.945 833.723 181.456 817.888 226.972 810.804C275.366 803.179 290.596 816.039 337.177 800.204C363.769 791.087 389.128 777.101 411.176 759.392C453.211 726.194 441.128 699.612 473.792 656.944C513.925 604.529 577.189 577.424 586.071 574.999C656.135 555.709 716.339 568.734 748.448 581.843C754.981 584.515 760.018 587.259 763.855 589.03C863.955 636.062 849.556 720.83 921.681 717.198C965.784 714.944 1011.9 681.929 1035.59 665.767C1056.63 651.429 1075.52 634.655 1091.43 616.188C1107.69 598.143 1122.35 580.314 1149.9 558.869C1158.46 552.18 1166.5 546.879 1173.48 541.811C1215.64 511.164 1237.55 510.773 1285.65 471.315C1304.39 455.856 1320.9 438.552 1334.55 420.039C1371.25 371.548 1382.31 314.288 1445.87 240.511C1449.6 236.233 1453.51 231.841 1457.65 227.376C1490.98 191.507 1545.3 143.267 1633.62 98.0099" stroke="url(#paint28_linear_60_6257)" stroke-opacity="0.45" stroke-width="4" stroke-miterlimit="10"/>
<path d="M-52.1133 930.812C0.050918 910.935 42.9061 892.937 73.2239 879.61C165.293 838.769 181.694 823.047 227.042 816.061C274.534 808.628 290.093 820.889 335.637 805.598C361.693 796.737 386.62 783.279 408.528 766.245C450.423 734.821 439.613 708.623 471.976 667.057C511.511 616.271 571.908 588.555 582.023 585.992C638.524 572.176 693.91 573.166 740.47 588.824C746.911 591.14 751.813 593.716 755.487 595.336C854.026 636.934 841.306 717.592 911.453 712.808C955.619 709.754 1002.01 676.171 1026.73 659.58C1047.99 645.208 1067.38 628.661 1084.25 610.505C1101.28 592.946 1116.89 576.044 1144.67 556.046C1153.52 549.677 1161.82 544.749 1168.8 539.681C1210.89 509.046 1230.52 506.779 1276.47 466.189C1294.45 450.075 1310.28 432.405 1323.47 413.713C1358.19 366.167 1370.35 306.831 1434.75 231.258C1438.48 226.923 1442.43 222.464 1446.62 217.882C1480.12 181.531 1535.05 132.202 1624.45 85.8868" stroke="url(#paint29_linear_60_6257)" stroke-opacity="0.45" stroke-width="4" stroke-miterlimit="10"/>
<path d="M-49.127 932.474C2.03593 913.202 44.4539 895.811 74.958 882.678C164.707 843.667 182.027 828.043 227.106 821.239C273.68 814.037 289.657 825.592 333.951 810.995C359.53 802.441 384.103 789.558 405.963 773.242C447.98 743.522 438.182 717.778 470.26 677.277C509.102 627.956 568.475 604.381 578.011 597.046C642.582 571.425 700.975 586.124 732.557 595.85C738.893 597.79 743.62 600.194 747.341 601.568C844.411 637.762 833.288 714.167 901.405 708.207C945.69 704.319 992.281 670.238 1018.03 653.16C1039.53 638.751 1059.44 622.429 1077.24 604.611C1095.07 587.52 1111.55 571.614 1139.64 552.995C1148.75 546.942 1157.32 542.407 1164.35 537.307C1206.39 506.705 1223.68 502.479 1267.69 460.742C1286.33 443.045 1299.79 425.338 1312.78 407.025C1345.65 360.494 1358.6 298.953 1424.06 221.648C1427.79 217.26 1431.77 212.728 1436.03 208.051C1469.7 171.161 1525.22 120.76 1615.69 73.3851" stroke="url(#paint30_linear_60_6257)" stroke-opacity="0.45" stroke-width="4" stroke-miterlimit="10"/>
<path d="M-46.1582 934.173C3.89528 915.514 45.9603 898.682 76.6761 885.59C164.037 848.423 182.195 833.079 227.226 826.194C272.906 819.262 289.092 830.204 332.377 816.136C357.422 807.886 381.568 795.564 403.272 779.956C445.06 751.789 436.625 726.65 468.4 687.252C506.723 639.76 563.684 616.622 574.019 608.006C636.356 582.61 693.267 594.806 724.636 602.799C730.878 604.383 735.471 606.619 739.142 607.776C834.691 638.541 825.261 710.664 891.327 703.621C935.731 698.9 982.539 664.285 1009.29 646.793C1036.53 628.989 1053.93 613.294 1070.22 598.753C1088.84 582.131 1104.85 564.368 1134.56 549.977C1143.37 545.772 1151.81 540.757 1159.71 535.046C1201.71 504.46 1216.68 498.412 1258.65 455.421C1276.23 437.438 1289 419.275 1301.93 400.397C1332.99 354.943 1346.77 291.259 1413.19 212.114C1416.95 207.653 1420.96 203.041 1425.24 198.277C1459.09 160.905 1515.19 109.43 1606.75 60.9603" stroke="url(#paint31_linear_60_6257)" stroke-opacity="0.45" stroke-width="4" stroke-miterlimit="10"/>
<path d="M-43.1494 935.876C6.0035 917.737 47.5187 901.578 78.2519 888.776C163.33 853.309 182.443 838.124 227.329 831.377C272.215 824.631 288.627 834.924 330.77 821.542C367.486 809.874 393.757 792.658 400.784 786.826C438.213 755.66 435.23 735.674 466.732 697.363C504.428 651.516 559.069 628.843 570.131 619.016C630.217 593.882 685.57 603.51 716.834 609.761C722.956 611.005 727.414 613.073 731.018 614.05C825.046 639.385 817.358 707.117 881.421 699.074C926.001 693.487 972.941 658.386 1000.73 640.428C1028.53 622.47 1046.37 607.035 1063.35 592.892C1082.74 576.755 1099.91 559.442 1129.65 546.996C1138.65 543.296 1147.29 538.504 1155.22 532.803C1197.17 502.25 1209.84 494.362 1249.76 450.153C1266.29 431.869 1278.3 413.278 1291.04 394.015C1320.39 349.765 1334.93 283.758 1402.29 202.789C1406.06 198.266 1410.11 193.58 1414.44 188.731C1448.47 150.841 1505.15 98.2938 1597.79 48.7445" stroke="url(#paint32_linear_60_6257)" stroke-opacity="0.45" stroke-width="4" stroke-miterlimit="10"/>
<path d="M-40.1865 937.497C7.98871 920.005 49.0503 904.489 79.8944 891.815C162.581 858.056 182.656 843.107 227.373 836.458C271.273 829.953 288.111 839.619 329.144 826.85C364.96 815.701 390.849 799.58 398.024 793.744C434.968 763.622 433.547 744.783 464.804 707.541C501.862 663.319 554.094 641.218 565.948 630.033C623.8 605.123 677.428 612.088 708.722 616.766C713.489 617.714 718.127 618.891 722.616 620.294C815.066 640.232 809.194 703.503 871.096 694.578C915.868 688.088 962.928 652.481 991.761 634.114C1019.48 616.417 1038.37 600.842 1056.07 587.103C1076.25 571.435 1094.66 554.715 1124.32 544.067C1133.55 540.87 1142.45 536.273 1150.5 530.534C1192.41 499.976 1202.77 490.306 1240.64 444.824C1256.17 426.221 1267.37 407.275 1279.99 387.481C1307.57 344.254 1322.94 276.125 1391.24 193.332C1395.02 188.746 1399.11 183.987 1403.49 179.054C1437.63 140.695 1494.94 87.0417 1588.68 36.4173" stroke="url(#paint33_linear_60_6257)" stroke-opacity="0.45" stroke-width="4" stroke-miterlimit="10"/>
<path d="M-37.2129 939.139C9.92556 922.19 50.4862 907.237 81.5759 894.858C161.867 862.864 182.892 848.131 227.581 841.498C270.591 835.207 287.722 844.211 327.607 832.051C362.69 821.325 388.058 806.379 395.494 800.475C432.016 771.443 432.234 753.623 463.094 717.512C499.525 674.935 549.505 653.288 562.052 640.964C617.642 616.297 669.607 620.836 700.889 623.609C705.553 624.31 710.094 625.253 714.49 626.433C805.407 640.921 801.326 699.69 861.091 689.923C906.066 682.551 953.242 646.495 983.092 627.678C1011.14 609.958 1030.71 594.476 1049.1 581.156C1071.01 565.406 1094.65 551.879 1119.31 540.98C1129.74 536.182 1139.11 533.174 1146.07 528.258C1187.91 497.712 1195.99 486.301 1231.8 439.523C1246.22 420.688 1256.72 401.245 1269.28 380.944C1295.23 338.872 1311.25 268.485 1380.6 183.803C1384.39 179.186 1388.52 174.316 1392.96 169.268C1427.29 130.333 1485.24 75.6319 1579.97 23.9973" stroke="url(#paint34_linear_60_6257)" stroke-opacity="0.45" stroke-width="4" stroke-miterlimit="10"/>
<path d="M-33.5183 941.702C12.5952 925.318 52.7422 911.013 83.9382 898.818C161.714 868.577 183.69 854.06 228.076 847.684C270.224 841.589 287.633 849.969 326.408 838.423C360.478 828.282 385.537 814.36 393.245 808.408C429.438 780.495 431.051 763.726 461.721 728.653C497.499 687.736 545.17 666.576 558.444 653.041C611.856 628.566 661.838 630.645 693.375 631.715C697.934 632.166 702.383 632.862 706.698 633.798C795.857 642.967 793.837 697.051 851.421 686.495C896.656 678.209 943.891 641.736 974.785 622.452C1003.11 604.762 1023.41 589.356 1042.49 576.455C1064.24 561.741 1086.17 550.911 1114.73 539.091C1125.54 534.621 1135.08 531.978 1141.95 526.975C1183.74 496.462 1189.57 483.294 1223.29 435.18C1236.65 416.079 1246.39 396.229 1258.83 375.396C1283.22 334.504 1299.89 261.859 1370.04 175.398C1373.85 170.687 1378 165.781 1382.49 160.622C1417.02 121.246 1475.44 65.4802 1571.35 12.7013" stroke="url(#paint35_linear_60_6257)" stroke-opacity="0.45" stroke-width="4" stroke-miterlimit="10"/>
<path d="M-27.0199 949.774C18.0804 933.974 57.7265 920.232 89.1162 908.307C164.618 879.652 187.603 865.453 231.762 859.072C273.02 853.191 290.746 860.951 328.4 849.997C361.57 840.376 386.207 827.545 394.215 821.528C430.102 794.775 433.115 779 463.512 745.013C498.575 705.655 544.009 685.104 558.014 670.301C609.179 646.222 656.365 650.544 689.056 644.967C694.238 645.689 698.634 646.154 702.033 646.322C789.507 650.101 789.571 699.541 844.917 688.23C890.416 678.972 937.712 642.082 969.633 622.369C998.236 604.708 1019.25 589.378 1039 576.856C1061.55 562.611 1084.65 552.905 1113.11 542.4C1124.3 538.259 1134.02 535.98 1140.85 530.973C1182.6 500.476 1186.21 485.669 1217.77 436.154C1230.13 416.812 1239.1 396.534 1251.41 375.149C1274.26 335.441 1291.53 260.513 1362.62 172.229C1366.46 167.482 1370.64 162.483 1375.17 157.233C1409.94 117.441 1469.03 60.5528 1565.98 6.84578" stroke="url(#paint36_linear_60_6257)" stroke-opacity="0.45" stroke-width="4" stroke-miterlimit="10"/>
<path d="M-20.9725 956.931C23.1991 941.668 62.3561 928.509 93.9158 916.813C167.02 889.789 191.138 875.864 235.034 869.743C275.391 864.055 293.434 871.195 329.951 860.871C362.208 851.749 386.376 839.925 394.761 833.91C430.393 808.341 434.766 793.557 465.002 760.59C499.531 722.907 542.524 702.808 557.284 686.778C606.127 662.838 651.734 665.204 684.384 657.412C688.528 657.846 692.769 658.051 697.084 658.026C782.812 656.506 784.926 701.049 838.101 689.162C883.893 678.915 931.192 641.641 964.153 621.519C993.052 603.851 1014.79 588.598 1035.23 576.552C1058.57 562.776 1082.9 554.218 1111.31 544.94C1122.87 541.164 1132.77 539.213 1139.54 534.103C1181.2 503.635 1182.59 487.074 1212.04 436.239C1223.29 416.722 1231.61 395.972 1243.7 374.083C1265.05 335.6 1282.86 258.364 1354.88 168.236C1358.65 163.328 1362.94 158.341 1367.52 153.019C1402.38 112.602 1462.02 54.7724 1560.06 -0.22226" stroke="url(#paint37_linear_60_6257)" stroke-opacity="0.45" stroke-width="4" stroke-miterlimit="10"/>
<path d="M-14.7859 964.008C28.3444 949.346 67.0405 936.753 98.7376 925.361C169.408 899.905 194.367 886.396 238.247 880.312C277.713 874.838 296.074 881.357 331.469 871.626C362.882 862.992 385.627 850.652 395.258 846.211C434.252 828.285 436.356 808.011 466.218 776.217C500.072 740.288 540.778 720.582 556.28 703.303C602.89 679.588 646.814 679.95 679.564 669.861C683.616 670.07 687.756 670.033 691.958 669.75C775.899 662.927 780.132 702.561 831.237 690.012C877.282 678.773 924.635 641.14 958.64 620.551C987.847 602.896 1010.29 587.756 1031.41 576.109C1055.54 562.802 1081.07 555.466 1109.48 547.418C1121.42 543.991 1131.45 542.38 1138.29 537.393C1179.91 506.92 1179.12 488.668 1206.37 436.485C1216.73 416.662 1224.19 395.532 1236.21 373.059C1256 335.853 1274.43 256.242 1347.32 164.187C1351.2 159.329 1355.43 154.156 1360.02 148.668C1395.04 107.749 1455.24 48.748 1554.39 -7.24411" stroke="url(#paint38_linear_60_6257)" stroke-opacity="0.45" stroke-width="4" stroke-miterlimit="10"/>
<path d="M-8.64319 971.138C33.5213 957.143 71.641 945.046 103.548 933.888C171.784 910.001 197.748 896.868 241.471 890.902C280.036 885.62 298.667 891.438 333.031 882.52C363.572 874.389 385.828 862.959 395.798 858.65C434.242 841.916 437.99 822.604 467.606 791.88C500.735 757.49 539.231 738.376 555.449 719.866C599.807 696.413 642.194 694.631 674.718 682.461C678.681 682.451 682.722 682.172 686.806 681.626C768.917 669.552 775.438 704.179 824.106 691.18C870.521 678.827 917.817 640.898 952.833 619.917C982.337 602.255 1005.51 587.211 1027.32 575.984C1052.25 563.145 1078.99 557.073 1107.31 550.092C1119.63 547.07 1129.84 545.766 1136.64 540.776C1178.2 510.335 1175.31 490.379 1200.42 436.778C1209.78 416.714 1216.48 395.178 1228.32 372.147C1246.83 336.094 1265.61 254.232 1339.53 160.497C1343.4 155.549 1347.69 150.343 1352.39 144.88C1387.61 103.463 1448.36 43.4057 1548.62 -13.6615" stroke="url(#paint39_linear_60_6257)" stroke-opacity="0.45" stroke-width="4" stroke-miterlimit="10"/>
<path d="M-2.51215 978.247C38.4956 964.784 76.258 953.303 108.359 942.415C174.222 920.007 201.142 907.36 244.684 901.471C282.387 896.386 301.366 901.702 334.55 893.275C364.19 885.664 385.959 875.144 396.296 870.951C434.22 855.526 439.569 837.038 468.924 807.42C501.386 774.671 537.586 756.064 554.547 736.306C596.671 713.077 637.291 709.34 669.914 694.874C673.792 694.632 677.729 694.103 681.685 693.293C761.844 676.148 770.662 705.461 817.118 692.074C863.573 678.687 911.172 640.503 947.209 619.014C976.98 601.361 1000.87 586.394 1023.43 575.553C1049.13 563.199 1077.02 558.268 1105.38 552.541C1118.09 549.926 1128.45 548.888 1135.23 543.934C1176.73 513.506 1171.78 491.87 1194.51 436.941C1202.93 416.624 1208.88 394.68 1220.54 371.073C1237.68 336.299 1256.9 252.079 1331.67 156.434C1335.55 151.462 1339.91 146.213 1344.59 140.536C1379.87 98.5676 1441.23 37.4208 1542.62 -20.6233" stroke="url(#paint40_linear_60_6257)" stroke-opacity="0.45" stroke-width="4" stroke-miterlimit="10"/>
<path d="M3.60728 985.336C43.6863 972.409 80.8915 961.523 113.174 950.885C176.495 930.054 204.5 917.79 247.885 912.019C284.698 907.148 304.039 911.791 335.982 903.944C364.778 896.821 386.059 887.21 396.735 883.149C434.109 868.916 441.073 851.406 470.211 822.842C501.967 791.729 535.894 773.67 553.541 752.696C593.391 729.689 632.356 723.93 664.967 707.232C668.782 706.745 672.632 705.975 676.472 704.931C754.984 682.594 765.88 706.666 810.106 692.928C857.157 678.296 904.409 639.902 941.561 618.07C971.588 600.406 996.211 585.535 1019.41 575.146C1045.9 563.261 1075.01 559.728 1103.31 554.994C1116.45 552.867 1126.9 552.05 1133.67 547.076C1175.15 516.684 1168.13 493.349 1188.57 437.042C1196.03 416.489 1201.34 394.171 1212.66 369.97C1228.5 336.441 1248.1 249.898 1323.79 152.409C1327.7 147.363 1332.04 141.983 1336.8 136.27C1372.37 93.8893 1434.29 31.6492 1536.73 -27.5724" stroke="url(#paint41_linear_60_6257)" stroke-opacity="0.45" stroke-width="4" stroke-miterlimit="10"/>
<path d="M9.76183 992.486C48.8278 980.144 85.5202 969.8 118.008 959.452C178.877 940.093 207.933 928.286 251.145 922.67C287.045 917.971 306.659 922.047 337.536 914.76C357.6 909.73 377.585 903.289 397.268 895.51C434.08 882.449 442.66 865.918 471.564 838.444C502.614 808.967 534.377 791.257 552.73 769.165C590.342 746.44 627.657 738.603 660.267 719.694C664.005 718.961 667.75 717.941 671.454 716.648C747.913 689.324 761.189 707.9 803.142 693.863C850.531 677.999 898.052 639.94 935.92 617.204C966.019 599.143 991.581 584.795 1015.49 574.789C1042.69 563.421 1073.07 561.176 1101.34 557.497C1114.8 555.73 1125.48 555.245 1132.22 550.287C1173.63 519.907 1164.63 494.881 1182.73 437.193C1189.23 416.424 1193.74 393.674 1204.91 368.9C1219.43 336.654 1239.4 247.765 1316.01 148.432C1319.98 143.411 1324.3 137.888 1329.09 132.089C1364.83 89.1494 1427.35 25.8568 1530.86 -34.4237" stroke="url(#paint42_linear_60_6257)" stroke-opacity="0.45" stroke-width="4" stroke-miterlimit="10"/>
<path d="M15.9041 999.616C54.0976 987.777 90.1529 978.02 122.795 967.939C181.187 950.009 211.279 938.697 254.362 933.182C289.303 928.709 309.275 932.169 339.003 925.491C358.705 920.846 378.369 914.97 397.824 907.913C434.106 895.949 444.257 880.45 472.952 854.108C503.272 826.227 532.725 809.194 551.898 785.728C587.264 763.207 622.924 753.35 655.494 732.225C659.16 731.234 662.802 729.972 666.375 728.454C741.009 696.15 756.549 709.159 796.224 694.881C843.945 677.705 891.407 639.545 930.354 616.403C960.761 598.356 987.014 584.1 1011.61 574.513C1039.67 563.582 1071.12 562.739 1099.44 560.065C1113.22 558.774 1124.11 558.523 1130.82 553.581C1172.19 523.197 1161.19 496.479 1176.9 437.442C1182.51 416.404 1186.3 393.271 1197.2 367.948C1210.51 336.941 1230.79 245.72 1308.34 144.506C1312.28 139.366 1316.69 133.815 1321.54 127.906C1357.47 84.4678 1420.63 20.0699 1525.15 -41.2574" stroke="url(#paint43_linear_60_6257)" stroke-opacity="0.45" stroke-width="4" stroke-miterlimit="10"/>
<path d="M22.0186 1006.76C59.0745 995.553 94.7859 986.239 127.641 976.527C183.483 960.096 214.724 949.213 257.622 943.833C291.73 939.541 311.998 942.475 340.569 936.328C359.853 931.974 379.125 926.576 398.258 920.169C434.027 909.265 445.773 894.838 474.149 869.636C503.791 843.375 530.972 826.89 550.876 802.155C583.991 779.896 617.985 767.997 650.558 744.604C654.153 743.364 657.694 741.859 661.134 740.109C733.966 702.865 751.604 710.212 789.104 695.742C837.144 677.236 884.559 638.993 924.609 615.488C955.284 597.45 982.257 583.27 1007.55 574.103C1036.4 563.64 1068.98 564.166 1097.33 562.514C1111.46 561.702 1122.49 561.64 1129.23 556.738C1170.54 526.387 1157.63 497.91 1170.92 437.539C1175.6 416.269 1178.81 392.709 1189.29 366.862C1201.5 337.064 1222.02 243.657 1300.47 140.48C1304.41 135.283 1308.85 129.659 1313.76 123.66C1349.86 79.7402 1413.54 14.2814 1519.25 -48.0919" stroke="url(#paint44_linear_60_6257)" stroke-opacity="0.45" stroke-width="4" stroke-miterlimit="10"/>
<path d="M28.1614 1013.89C64.216 1003.29 99.4637 994.406 132.475 985.095C185.958 969.972 218.129 959.726 260.858 954.443C294.092 950.327 314.638 952.637 342.084 947.14C361.002 943.151 379.932 938.267 398.779 932.51C434.035 922.668 447.307 909.325 475.575 885.168C504.487 860.503 529.435 844.57 550.093 818.608C580.974 796.574 613.302 782.633 645.886 757.049C649.374 755.463 652.8 753.713 656.144 751.809C728.963 712.853 746.954 711.258 782.247 696.67C830.536 676.709 877.766 638.082 919.077 614.613C950.164 596.965 977.752 582.485 1003.73 573.737C1033.39 563.744 1067.04 565.691 1095.47 565.009C1109.95 564.676 1121.19 564.847 1127.89 559.942C1169.18 529.607 1154.37 499.41 1165.18 437.739C1168.95 416.2 1171.47 392.278 1181.65 365.784C1192.59 337.293 1213.44 241.402 1292.72 136.545C1296.69 131.262 1301.16 125.582 1306.1 119.504C1342.35 75.0413 1406.64 8.51403 1513.4 -54.9796" stroke="url(#paint45_linear_60_6257)" stroke-opacity="0.45" stroke-width="4" stroke-miterlimit="10"/>
<path d="M34.2933 1021C69.3229 1010.96 104.062 1002.56 137.275 993.602C188.302 979.814 221.488 970.156 264.072 965.012C296.404 961.089 317.251 962.815 343.604 957.895C368.005 953.364 386.692 948.035 399.301 944.851C434.048 936.013 448.859 923.775 476.929 900.77C502.276 879.886 526.422 857.947 549.215 835.089C574.447 810.419 600.997 785.042 641.079 769.519C644.613 767.929 647.974 765.915 651.031 763.554C720.468 716.529 742.158 712.307 775.296 697.626C823.814 676.113 871.087 637.624 913.477 613.751C944.933 596.027 973.151 581.729 999.813 573.38C1030.29 563.974 1065.02 567.245 1093.51 567.532C1108.31 567.695 1119.78 568.063 1126.47 563.137C1167.66 532.83 1151.01 500.861 1159.25 437.938C1162.12 416.13 1164.05 391.838 1173.8 364.799C1183.56 337.76 1204.85 239.398 1284.85 132.597C1288.85 127.31 1293.43 121.469 1298.33 115.336C1334.78 70.3751 1399.62 2.79102 1507.5 -61.8145" stroke="url(#paint46_linear_60_6257)" stroke-opacity="0.45" stroke-width="4" stroke-miterlimit="10"/>
<path d="M40.4345 1028.13C74.451 1018.68 108.628 1010.6 142.147 1002.17C190.691 989.739 224.932 980.673 267.33 975.663C298.902 971.852 319.937 973.06 345.14 968.748C368.681 964.741 387.03 960.127 399.821 957.193C434.087 949.342 450.369 938.221 478.268 916.352C505.681 894.874 522.372 878.028 548.347 851.591C571.739 827.764 600.539 809.143 636.297 781.972C639.583 779.474 643.012 777.549 645.955 775.304C713.762 723.376 737.335 713.316 768.341 698.582C817.002 675.431 864.445 637.172 907.846 612.906C939.598 595.174 968.547 580.973 995.879 573.002C1027.11 563.983 1062.92 568.755 1091.53 570.014C1106.66 570.673 1118.46 571.173 1125.01 566.329C1166.14 536.054 1147.66 502.276 1153.42 437.975C1155.41 415.882 1156.8 391.245 1166.06 363.615C1174.8 337.602 1196.22 237.119 1277.11 128.49C1281.14 123.13 1285.64 117.281 1290.68 110.988C1327.3 65.5461 1392.75 -3.1271 1501.67 -68.7956" stroke="url(#paint47_linear_60_6257)" stroke-opacity="0.45" stroke-width="4" stroke-miterlimit="10"/>
<path d="M46.706 1035.16C79.7093 1026.29 113.446 1018.69 147.063 1010.56C193.167 999.423 228.371 990.92 270.66 986.11C301.217 982.557 322.694 983.1 346.788 979.402C369.416 975.894 387.303 972.039 400.435 969.372C434.249 962.491 452.001 952.488 479.743 931.775C506.373 911.867 521.289 895.911 547.62 868.011C569.258 844.979 596.246 824.455 631.641 794.381C634.792 791.715 638.128 789.434 641.022 786.972C707.267 730.13 734.903 717.943 761.529 699.457C806.984 668.136 854.045 638.922 902.41 612.004C934.446 594.245 964.098 580.156 992.23 572.597C1024.25 564.047 1061.1 570.273 1089.75 572.517C1105.17 573.689 1117.11 574.414 1123.75 569.541C1164.84 539.263 1144.51 503.712 1147.83 438.229C1148.95 415.871 1149.86 390.856 1158.56 362.648C1166.22 337.886 1187.76 235.07 1269.58 124.618C1273.62 119.2 1278.07 113.326 1283.25 106.895C1320.04 60.9139 1386.05 -8.816 1496.09 -75.5391" stroke="url(#paint48_linear_60_6257)" stroke-opacity="0.45" stroke-width="4" stroke-miterlimit="10"/>
<path d="M51.4078 1040.12C83.398 1031.83 116.635 1024.6 150.557 1016.87C194.226 1006.98 230.444 999.254 272.669 994.398C302.305 990.94 324.142 991.002 347.103 987.876C368.842 984.909 386.295 981.795 399.677 979.366C433.111 973.388 452.249 964.55 479.833 944.993C505.71 926.64 518.993 911.626 545.443 882.047C565.37 859.757 590.706 837.347 625.562 804.389C628.595 801.519 631.766 798.951 634.625 796.235C699.389 734.487 728.256 715.528 753.278 697.968C798.99 665.821 846.519 635.981 895.498 608.676C927.803 590.926 958.186 576.934 986.898 569.86C1019.77 561.803 1057.57 569.439 1086.42 572.473C1102.11 574.172 1114.23 575.147 1120.94 570.205C1161.97 539.939 1139.87 502.567 1140.59 435.828C1140.82 413.165 1141.35 387.764 1149.42 359.027C1156.04 335.462 1177.68 230.349 1260.42 118.053C1264.47 112.578 1269.06 106.566 1274.19 100.11C1311.15 53.6268 1377.77 -17.1922 1488.87 -84.9946" stroke="url(#paint49_linear_60_6257)" stroke-opacity="0.45" stroke-width="4" stroke-miterlimit="10"/>
<path d="M54.6283 1042.38C85.6054 1034.68 118.364 1027.73 152.333 1020.6C193.567 1011.94 230.867 1004.8 272.734 1000.23C301.532 997.011 323.619 996.465 345.446 993.911C366.325 991.468 383.319 989.056 397.051 986.972C430.105 981.895 450.617 974.203 478.026 955.839C503.138 939.02 514.984 925.026 541.417 893.792C559.708 872.309 583.442 847.903 617.606 812.123C620.561 809.052 623.594 806.181 626.364 803.244C689.735 736.484 719.572 710.821 743.166 694.168C789.114 661.769 840.138 628.542 886.722 603.094C919.298 585.296 950.397 571.437 979.829 564.766C1013.45 557.154 1052.26 566.281 1081.36 570.341C1097.36 572.573 1109.79 573.64 1116.4 568.763C1157.41 538.533 1133.49 499.315 1131.66 431.345C1131.02 408.397 1131.24 382.598 1138.55 353.339C1144.18 330.977 1165.89 223.584 1249.56 109.443C1253.65 103.915 1258.24 97.8254 1263.42 91.2593C1300.57 44.2782 1367.74 -27.5974 1479.91 -96.5363" stroke="url(#paint50_linear_60_6257)" stroke-opacity="0.45" stroke-width="4" stroke-miterlimit="10"/>
<path d="M57.9072 1044.42C87.8875 1037.27 120.196 1030.58 154.319 1024.04C194.091 1016.18 233.751 1010.07 273.135 1005.73C301.071 1002.71 323.33 1001.68 344.153 999.6C364.139 997.754 380.691 996.007 394.736 994.206C427.451 990.036 449.297 983.484 476.544 966.334C500.906 951.012 511.471 938.113 537.714 905.186C554.389 884.282 576.63 858.007 610.002 819.489C612.839 816.213 615.735 813.04 618.454 809.886C680.404 738.131 710.331 704.824 733.377 690.017C781.557 659.142 830.61 622.957 878.297 597.145C911.146 579.299 942.983 565.615 973.096 559.343C1007.51 552.199 1047.34 562.895 1076.61 567.839C1092.85 570.615 1105.57 571.846 1112.18 566.99C1153.11 536.752 1127.33 495.741 1123.01 426.507C1120.82 400.904 1122.48 374.285 1127.98 347.24C1132.61 326.023 1154.38 216.385 1238.95 100.417C1243.04 94.832 1247.66 88.6685 1252.9 82.0127C1290.21 34.5294 1358 -38.4353 1471.27 -108.392" stroke="url(#paint51_linear_60_6257)" stroke-opacity="0.45" stroke-width="4" stroke-miterlimit="10"/>
<path d="M61.0577 1046.37C132.146 1030.27 203.111 1018.5 273.379 1011.16C386.43 999.384 423.508 1006.87 474.893 976.734C512.31 954.776 514.459 938.026 602.202 826.778C668.192 743.106 701.228 701.342 723.432 685.792C803.341 630.127 890.091 568.246 966.194 553.825C1021.05 543.423 1089.29 578.544 1107.71 564.959C1162.3 524.649 1095.17 461.612 1117.25 341.009C1120.92 320.921 1142.73 209.076 1228.22 91.264C1261.41 45.5357 1332 -39.3988 1462.47 -120.436" stroke="url(#paint52_linear_60_6257)" stroke-opacity="0.45" stroke-width="4" stroke-miterlimit="10"/>
<defs>
<linearGradient id="paint0_linear_60_6257" x1="726.487" y1="356.366" x2="861.686" y2="590.538" gradientUnits="userSpaceOnUse">
<stop stop-color="#DCE6F9"/>
<stop offset="0.5" stop-color="#CA064D"/>
<stop offset="1" stop-color="#DCE6F9"/>
</linearGradient>
<linearGradient id="paint1_linear_60_6257" x1="730.107" y1="364.488" x2="861.723" y2="592.454" gradientUnits="userSpaceOnUse">
<stop stop-color="#DCE6F9"/>
<stop offset="0.5" stop-color="#CA064D"/>
<stop offset="1" stop-color="#DCE6F9"/>
</linearGradient>
<linearGradient id="paint2_linear_60_6257" x1="733.807" y1="372.619" x2="861.815" y2="594.335" gradientUnits="userSpaceOnUse">
<stop stop-color="#DCE6F9"/>
<stop offset="0.5" stop-color="#CA064D"/>
<stop offset="1" stop-color="#DCE6F9"/>
</linearGradient>
<linearGradient id="paint3_linear_60_6257" x1="737.295" y1="380.708" x2="861.784" y2="596.328" gradientUnits="userSpaceOnUse">
<stop stop-color="#DCE6F9"/>
<stop offset="0.5" stop-color="#CA064D"/>
<stop offset="1" stop-color="#DCE6F9"/>
</linearGradient>
<linearGradient id="paint4_linear_60_6257" x1="740.889" y1="388.818" x2="861.821" y2="598.28" gradientUnits="userSpaceOnUse">
<stop stop-color="#DCE6F9"/>
<stop offset="0.5" stop-color="#CA064D"/>
<stop offset="1" stop-color="#DCE6F9"/>
</linearGradient>
<linearGradient id="paint5_linear_60_6257" x1="744.441" y1="396.952" x2="861.81" y2="600.24" gradientUnits="userSpaceOnUse">
<stop stop-color="#DCE6F9"/>
<stop offset="0.5" stop-color="#CA064D"/>
<stop offset="1" stop-color="#DCE6F9"/>
</linearGradient>
<linearGradient id="paint6_linear_60_6257" x1="747.966" y1="405.074" x2="861.791" y2="602.224" gradientUnits="userSpaceOnUse">
<stop stop-color="#DCE6F9"/>
<stop offset="0.5" stop-color="#CA064D"/>
<stop offset="1" stop-color="#DCE6F9"/>
</linearGradient>
<linearGradient id="paint7_linear_60_6257" x1="751.645" y1="413.135" x2="861.924" y2="604.143" gradientUnits="userSpaceOnUse">
<stop stop-color="#DCE6F9"/>
<stop offset="0.5" stop-color="#CA064D"/>
<stop offset="1" stop-color="#DCE6F9"/>
</linearGradient>
<linearGradient id="paint8_linear_60_6257" x1="755.27" y1="421.2" x2="861.975" y2="606.02" gradientUnits="userSpaceOnUse">
<stop stop-color="#DCE6F9"/>
<stop offset="0.5" stop-color="#CA064D"/>
<stop offset="1" stop-color="#DCE6F9"/>
</linearGradient>
<linearGradient id="paint9_linear_60_6257" x1="758.865" y1="429.281" x2="862.051" y2="608.004" gradientUnits="userSpaceOnUse">
<stop stop-color="#DCE6F9"/>
<stop offset="0.5" stop-color="#CA064D"/>
<stop offset="1" stop-color="#DCE6F9"/>
</linearGradient>
<linearGradient id="paint10_linear_60_6257" x1="762.352" y1="437.398" x2="862.002" y2="609.997" gradientUnits="userSpaceOnUse">
<stop stop-color="#DCE6F9"/>
<stop offset="0.5" stop-color="#CA064D"/>
<stop offset="1" stop-color="#DCE6F9"/>
</linearGradient>
<linearGradient id="paint11_linear_60_6257" x1="766.047" y1="445.423" x2="862.175" y2="611.923" gradientUnits="userSpaceOnUse">
<stop stop-color="#DCE6F9"/>
<stop offset="0.5" stop-color="#CA064D"/>
<stop offset="1" stop-color="#DCE6F9"/>
</linearGradient>
<linearGradient id="paint12_linear_60_6257" x1="769.575" y1="453.516" x2="862.176" y2="613.904" gradientUnits="userSpaceOnUse">
<stop stop-color="#DCE6F9"/>
<stop offset="0.5" stop-color="#CA064D"/>
<stop offset="1" stop-color="#DCE6F9"/>
</linearGradient>
<linearGradient id="paint13_linear_60_6257" x1="770.629" y1="457.194" x2="864.716" y2="620.158" gradientUnits="userSpaceOnUse">
<stop stop-color="#DCE6F9"/>
<stop offset="0.5" stop-color="#CA064D"/>
<stop offset="1" stop-color="#DCE6F9"/>
</linearGradient>
<linearGradient id="paint14_linear_60_6257" x1="770.46" y1="459.013" x2="868.219" y2="628.336" gradientUnits="userSpaceOnUse">
<stop stop-color="#DCE6F9"/>
<stop offset="0.5" stop-color="#CA064D"/>
<stop offset="1" stop-color="#DCE6F9"/>
</linearGradient>
<linearGradient id="paint15_linear_60_6257" x1="770.476" y1="460.668" x2="872.36" y2="637.138" gradientUnits="userSpaceOnUse">
<stop stop-color="#DCE6F9"/>
<stop offset="0.5" stop-color="#CA064D"/>
<stop offset="1" stop-color="#DCE6F9"/>
</linearGradient>
<linearGradient id="paint16_linear_60_6257" x1="769.897" y1="461.549" x2="876.397" y2="646.014" gradientUnits="userSpaceOnUse">
<stop stop-color="#DCE6F9"/>
<stop offset="0.5" stop-color="#CA064D"/>
<stop offset="1" stop-color="#DCE6F9"/>
</linearGradient>
<linearGradient id="paint17_linear_60_6257" x1="768.364" y1="460.878" x2="881.474" y2="656.791" gradientUnits="userSpaceOnUse">
<stop stop-color="#DCE6F9"/>
<stop offset="0.5" stop-color="#CA064D"/>
<stop offset="1" stop-color="#DCE6F9"/>
</linearGradient>
<linearGradient id="paint18_linear_60_6257" x1="766.959" y1="460.132" x2="886.666" y2="667.471" gradientUnits="userSpaceOnUse">
<stop stop-color="#DCE6F9"/>
<stop offset="0.5" stop-color="#CA064D"/>
<stop offset="1" stop-color="#DCE6F9"/>
</linearGradient>
<linearGradient id="paint19_linear_60_6257" x1="765.427" y1="459.461" x2="891.796" y2="678.337" gradientUnits="userSpaceOnUse">
<stop stop-color="#DCE6F9"/>
<stop offset="0.5" stop-color="#CA064D"/>
<stop offset="1" stop-color="#DCE6F9"/>
</linearGradient>
<linearGradient id="paint20_linear_60_6257" x1="763.895" y1="458.789" x2="896.806" y2="688.998" gradientUnits="userSpaceOnUse">
<stop stop-color="#DCE6F9"/>
<stop offset="0.5" stop-color="#CA064D"/>
<stop offset="1" stop-color="#DCE6F9"/>
</linearGradient>
<linearGradient id="paint21_linear_60_6257" x1="762.475" y1="458.052" x2="901.943" y2="699.618" gradientUnits="userSpaceOnUse">
<stop stop-color="#DCE6F9"/>
<stop offset="0.5" stop-color="#CA064D"/>
<stop offset="1" stop-color="#DCE6F9"/>
</linearGradient>
<linearGradient id="paint22_linear_60_6257" x1="760.985" y1="457.356" x2="907.093" y2="710.422" gradientUnits="userSpaceOnUse">
<stop stop-color="#DCE6F9"/>
<stop offset="0.5" stop-color="#CA064D"/>
<stop offset="1" stop-color="#DCE6F9"/>
</linearGradient>
<linearGradient id="paint23_linear_60_6257" x1="759.579" y1="456.612" x2="912.245" y2="721.037" gradientUnits="userSpaceOnUse">
<stop stop-color="#DCE6F9"/>
<stop offset="0.5" stop-color="#CA064D"/>
<stop offset="1" stop-color="#DCE6F9"/>
</linearGradient>
<linearGradient id="paint24_linear_60_6257" x1="758.061" y1="455.931" x2="917.388" y2="731.893" gradientUnits="userSpaceOnUse">
<stop stop-color="#DCE6F9"/>
<stop offset="0.5" stop-color="#CA064D"/>
<stop offset="1" stop-color="#DCE6F9"/>
</linearGradient>
<linearGradient id="paint25_linear_60_6257" x1="756.57" y1="455.236" x2="922.506" y2="742.645" gradientUnits="userSpaceOnUse">
<stop stop-color="#DCE6F9"/>
<stop offset="0.5" stop-color="#CA064D"/>
<stop offset="1" stop-color="#DCE6F9"/>
</linearGradient>
<linearGradient id="paint26_linear_60_6257" x1="755.038" y1="454.564" x2="927.583" y2="753.42" gradientUnits="userSpaceOnUse">
<stop stop-color="#DCE6F9"/>
<stop offset="0.5" stop-color="#CA064D"/>
<stop offset="1" stop-color="#DCE6F9"/>
</linearGradient>
<linearGradient id="paint27_linear_60_6257" x1="756.615" y1="457.067" x2="922.794" y2="744.898" gradientUnits="userSpaceOnUse">
<stop stop-color="#DCE6F9"/>
<stop offset="0.5" stop-color="#CA064D"/>
<stop offset="1" stop-color="#DCE6F9"/>
</linearGradient>
<linearGradient id="paint28_linear_60_6257" x1="758.108" y1="459.618" x2="917.92" y2="736.421" gradientUnits="userSpaceOnUse">
<stop stop-color="#DCE6F9"/>
<stop offset="0.5" stop-color="#CA064D"/>
<stop offset="1" stop-color="#DCE6F9"/>
</linearGradient>
<linearGradient id="paint29_linear_60_6257" x1="759.529" y1="462.211" x2="913.003" y2="728.036" gradientUnits="userSpaceOnUse">
<stop stop-color="#DCE6F9"/>
<stop offset="0.5" stop-color="#CA064D"/>
<stop offset="1" stop-color="#DCE6F9"/>
</linearGradient>
<linearGradient id="paint30_linear_60_6257" x1="761.178" y1="464.644" x2="908.287" y2="719.444" gradientUnits="userSpaceOnUse">
<stop stop-color="#DCE6F9"/>
<stop offset="0.5" stop-color="#CA064D"/>
<stop offset="1" stop-color="#DCE6F9"/>
</linearGradient>
<linearGradient id="paint31_linear_60_6257" x1="762.74" y1="467.155" x2="903.475" y2="710.916" gradientUnits="userSpaceOnUse">
<stop stop-color="#DCE6F9"/>
<stop offset="0.5" stop-color="#CA064D"/>
<stop offset="1" stop-color="#DCE6F9"/>
</linearGradient>
<linearGradient id="paint32_linear_60_6257" x1="764.271" y1="469.712" x2="898.684" y2="702.522" gradientUnits="userSpaceOnUse">
<stop stop-color="#DCE6F9"/>
<stop offset="0.5" stop-color="#CA064D"/>
<stop offset="1" stop-color="#DCE6F9"/>
</linearGradient>
<linearGradient id="paint33_linear_60_6257" x1="765.728" y1="472.202" x2="893.778" y2="693.991" gradientUnits="userSpaceOnUse">
<stop stop-color="#DCE6F9"/>
<stop offset="0.5" stop-color="#CA064D"/>
<stop offset="1" stop-color="#DCE6F9"/>
</linearGradient>
<linearGradient id="paint34_linear_60_6257" x1="767.365" y1="474.616" x2="889.078" y2="685.429" gradientUnits="userSpaceOnUse">
<stop stop-color="#DCE6F9"/>
<stop offset="0.5" stop-color="#CA064D"/>
<stop offset="1" stop-color="#DCE6F9"/>
</linearGradient>
<linearGradient id="paint35_linear_60_6257" x1="768.299" y1="476.134" x2="884.862" y2="678.027" gradientUnits="userSpaceOnUse">
<stop stop-color="#DCE6F9"/>
<stop offset="0.5" stop-color="#CA064D"/>
<stop offset="1" stop-color="#DCE6F9"/>
</linearGradient>
<linearGradient id="paint36_linear_60_6257" x1="764.387" y1="469.489" x2="885.214" y2="678.767" gradientUnits="userSpaceOnUse">
<stop stop-color="#DCE6F9"/>
<stop offset="0.5" stop-color="#CA064D"/>
<stop offset="1" stop-color="#DCE6F9"/>
</linearGradient>
<linearGradient id="paint37_linear_60_6257" x1="759.909" y1="461.667" x2="886.282" y2="680.551" gradientUnits="userSpaceOnUse">
<stop stop-color="#DCE6F9"/>
<stop offset="0.5" stop-color="#CA064D"/>
<stop offset="1" stop-color="#DCE6F9"/>
</linearGradient>
<linearGradient id="paint38_linear_60_6257" x1="755.648" y1="453.864" x2="887.547" y2="682.319" gradientUnits="userSpaceOnUse">
<stop stop-color="#DCE6F9"/>
<stop offset="0.5" stop-color="#CA064D"/>
<stop offset="1" stop-color="#DCE6F9"/>
</linearGradient>
<linearGradient id="paint39_linear_60_6257" x1="751.425" y1="446.582" x2="888.583" y2="684.146" gradientUnits="userSpaceOnUse">
<stop stop-color="#DCE6F9"/>
<stop offset="0.5" stop-color="#CA064D"/>
<stop offset="1" stop-color="#DCE6F9"/>
</linearGradient>
<linearGradient id="paint40_linear_60_6257" x1="746.928" y1="438.76" x2="889.606" y2="685.886" gradientUnits="userSpaceOnUse">
<stop stop-color="#DCE6F9"/>
<stop offset="0.5" stop-color="#CA064D"/>
<stop offset="1" stop-color="#DCE6F9"/>
</linearGradient>
<linearGradient id="paint41_linear_60_6257" x1="742.506" y1="430.971" x2="890.632" y2="687.533" gradientUnits="userSpaceOnUse">
<stop stop-color="#DCE6F9"/>
<stop offset="0.5" stop-color="#CA064D"/>
<stop offset="1" stop-color="#DCE6F9"/>
</linearGradient>
<linearGradient id="paint42_linear_60_6257" x1="738.115" y1="423.267" x2="891.699" y2="689.283" gradientUnits="userSpaceOnUse">
<stop stop-color="#DCE6F9"/>
<stop offset="0.5" stop-color="#CA064D"/>
<stop offset="1" stop-color="#DCE6F9"/>
</linearGradient>
<linearGradient id="paint43_linear_60_6257" x1="733.827" y1="415.613" x2="892.87" y2="691.085" gradientUnits="userSpaceOnUse">
<stop stop-color="#DCE6F9"/>
<stop offset="0.5" stop-color="#CA064D"/>
<stop offset="1" stop-color="#DCE6F9"/>
</linearGradient>
<linearGradient id="paint44_linear_60_6257" x1="729.407" y1="407.925" x2="893.847" y2="692.744" gradientUnits="userSpaceOnUse">
<stop stop-color="#DCE6F9"/>
<stop offset="0.5" stop-color="#CA064D"/>
<stop offset="1" stop-color="#DCE6F9"/>
</linearGradient>
<linearGradient id="paint45_linear_60_6257" x1="725.017" y1="400.193" x2="894.955" y2="694.534" gradientUnits="userSpaceOnUse">
<stop stop-color="#DCE6F9"/>
<stop offset="0.5" stop-color="#CA064D"/>
<stop offset="1" stop-color="#DCE6F9"/>
</linearGradient>
<linearGradient id="paint46_linear_60_6257" x1="720.613" y1="392.497" x2="896.014" y2="696.3" gradientUnits="userSpaceOnUse">
<stop stop-color="#DCE6F9"/>
<stop offset="0.5" stop-color="#CA064D"/>
<stop offset="1" stop-color="#DCE6F9"/>
</linearGradient>
<linearGradient id="paint47_linear_60_6257" x1="716.215" y1="384.687" x2="897.111" y2="698.009" gradientUnits="userSpaceOnUse">
<stop stop-color="#DCE6F9"/>
<stop offset="0.5" stop-color="#CA064D"/>
<stop offset="1" stop-color="#DCE6F9"/>
</linearGradient>
<linearGradient id="paint48_linear_60_6257" x1="712.096" y1="377.099" x2="898.381" y2="699.753" gradientUnits="userSpaceOnUse">
<stop stop-color="#DCE6F9"/>
<stop offset="0.5" stop-color="#CA064D"/>
<stop offset="1" stop-color="#DCE6F9"/>
</linearGradient>
<linearGradient id="paint49_linear_60_6257" x1="706.225" y1="366.863" x2="900.64" y2="703.601" gradientUnits="userSpaceOnUse">
<stop stop-color="#DCE6F9"/>
<stop offset="0.5" stop-color="#CA064D"/>
<stop offset="1" stop-color="#DCE6F9"/>
</linearGradient>
<linearGradient id="paint50_linear_60_6257" x1="698.848" y1="354.411" x2="904.372" y2="710.391" gradientUnits="userSpaceOnUse">
<stop stop-color="#DCE6F9"/>
<stop offset="0.5" stop-color="#CA064D"/>
<stop offset="1" stop-color="#DCE6F9"/>
</linearGradient>
<linearGradient id="paint51_linear_60_6257" x1="691.666" y1="341.711" x2="908.442" y2="717.178" gradientUnits="userSpaceOnUse">
<stop stop-color="#DCE6F9"/>
<stop offset="0.5" stop-color="#CA064D"/>
<stop offset="1" stop-color="#DCE6F9"/>
</linearGradient>
<linearGradient id="paint52_linear_60_6257" x1="684.322" y1="328.83" x2="912.518" y2="724.077" gradientUnits="userSpaceOnUse">
<stop stop-color="#DCE6F9"/>
<stop offset="0.5" stop-color="#CA064D"/>
<stop offset="1" stop-color="#DCE6F9"/>
</linearGradient>
</defs>
</svg>
