<svg width="1511" height="1114" viewBox="0 0 1511 1114" fill="none" xmlns="http://www.w3.org/2000/svg">
<path d="M1594.64 642.43C1611.75 512.655 1385.77 347.438 1195.27 282.553C975.742 207.794 856.374 284.354 701.001 194.034C559.202 111.647 586.19 5.73231 480.094 -49.55C382.589 -100.352 198.332 -95.049 -177.079 118.88" stroke="url(#paint0_linear_60_5758)" stroke-opacity="0.45" stroke-width="4" stroke-miterlimit="10"/>
<path d="M-169.078 136.976C201.524 -73.6451 386.714 -81.3165 486.639 -32.76C560.674 3.29835 572.973 63.6128 619.734 123.751C642.86 154.376 674.793 182.07 712.664 204.345C836.691 277.377 936.58 246.668 1087.77 271.382C1126.33 277.607 1164.88 287.079 1202.63 299.603C1394.58 362.819 1621.32 516.821 1609.66 643.558" stroke="url(#paint1_linear_60_5758)" stroke-opacity="0.45" stroke-width="4" stroke-miterlimit="10"/>
<path d="M-161.03 155.041C204.756 -52.2506 390.778 -62.3016 492.899 -16.046C567.965 17.9599 582.863 76.5125 630.441 134.711C654.542 164.867 686.548 192.173 724.019 214.547C845.971 287.346 943.799 262.429 1095.07 288.485C1133.53 295.055 1171.95 304.47 1209.7 316.578C1403 378.531 1630.61 520.89 1624.39 644.588" stroke="url(#paint2_linear_60_5758)" stroke-opacity="0.45" stroke-width="4" stroke-miterlimit="10"/>
<path d="M-152.998 173.054C207.887 -30.8683 394.827 -43.2455 499.29 0.689846C575.434 32.7067 592.821 89.4124 641.303 145.724C666.316 175.376 698.364 202.293 735.404 224.76C855.406 297.369 950.902 278.126 1102.41 305.599C1140.81 312.464 1179.13 321.814 1216.92 333.533C1411.61 393.982 1640.01 524.929 1639.24 645.588" stroke="url(#paint3_linear_60_5758)" stroke-opacity="0.45" stroke-width="4" stroke-miterlimit="10"/>
<path d="M-145.003 191.171C211.088 -9.4849 398.807 -24.1899 505.705 17.4578C582.827 47.474 602.859 102.387 652.234 156.739C678.179 185.904 710.331 212.471 747.007 235.049C865.057 307.467 958.307 293.951 1110.12 322.843C1148.36 330.036 1186.51 339.321 1224.23 350.616C1420.35 409.572 1649.54 529.126 1654.24 646.758" stroke="url(#paint4_linear_60_5758)" stroke-opacity="0.45" stroke-width="4" stroke-miterlimit="10"/>
<path d="M-137.118 209.203C214.256 11.8876 403.587 -7.12669 512.126 34.2047C589.621 63.6488 612.945 115.215 663.095 167.753C689.966 196.393 722.221 222.609 758.514 245.305C874.614 317.533 965.556 309.723 1117.45 339.977C1155.57 347.452 1193.61 356.669 1231.31 367.569C1428.88 424.95 1658.83 533.174 1668.98 647.788" stroke="url(#paint5_linear_60_5758)" stroke-opacity="0.45" stroke-width="4" stroke-miterlimit="10"/>
<path d="M-128.953 227.332C217.45 33.2917 406.715 14.0671 518.554 50.8363C597.451 77.0691 623.052 128.19 673.981 178.798C701.744 206.895 734.104 232.768 770.017 255.583C884.166 327.62 972.899 325.527 1124.9 357.155C1162.91 364.938 1200.83 374.101 1238.5 384.608C1437.5 440.496 1668.26 537.244 1683.83 648.882" stroke="url(#paint6_linear_60_5758)" stroke-opacity="0.45" stroke-width="4" stroke-miterlimit="10"/>
<path d="M-120.945 245.407C220.556 54.6425 410.677 33.07 524.931 67.7085C604.773 91.8355 633.285 140.999 684.88 189.802C713.514 217.331 745.996 242.86 781.547 265.777C893.707 337.634 980.218 341.299 1132.38 374.25C1167.78 381.943 1205.41 390.606 1245.73 401.542C1446.21 455.886 1677.67 541.378 1698.7 649.935" stroke="url(#paint7_linear_60_5758)" stroke-opacity="0.45" stroke-width="4" stroke-miterlimit="10"/>
<path d="M-112.935 263.483C223.811 76.0683 414.56 52.3024 531.336 84.4028C612.089 106.623 643.542 153.84 695.849 200.807C725.357 227.759 757.975 252.979 793.156 276.045C903.365 347.712 987.613 357.051 1139.94 391.44C1175.4 399.438 1212.93 408.11 1253.06 418.583C1454.73 471.306 1687.08 545.49 1713.56 650.987" stroke="url(#paint8_linear_60_5758)" stroke-opacity="0.45" stroke-width="4" stroke-miterlimit="10"/>
<path d="M-104.887 281.548C227.012 97.4518 418.459 71.4933 537.737 101.212C619.362 121.535 653.941 166.777 706.642 211.82C736.983 238.171 769.727 263.086 804.528 286.299C912.817 357.787 994.819 372.854 1147.32 408.523C1182.7 416.771 1220.25 425.454 1260.19 435.485C1463.55 486.645 1696.54 549.477 1728.46 651.957" stroke="url(#paint9_linear_60_5758)" stroke-opacity="0.45" stroke-width="4" stroke-miterlimit="10"/>
<path d="M-96.8773 299.623C230.182 118.824 422.342 90.7258 544.066 117.927C626.556 136.373 664.151 179.554 717.465 222.844C748.642 248.561 781.543 273.172 815.975 296.534C922.282 367.821 1002.04 388.593 1154.68 425.762C1190.11 434.358 1227.58 442.987 1267.29 452.585C1472.13 502.107 1705.83 553.661 1743.25 653.124" stroke="url(#paint10_linear_60_5758)" stroke-opacity="0.45" stroke-width="4" stroke-miterlimit="10"/>
<path d="M-88.869 317.698C233.373 140.228 426.285 109.98 550.548 134.695C633.927 151.297 674.584 192.386 728.388 233.879C759.32 257.722 791.052 281.962 827.545 306.812C931.908 377.887 1009.42 404.408 1162.21 442.941C1197.63 451.84 1235.05 460.427 1274.61 469.626C1480.93 517.509 1715.37 557.795 1758.2 654.23" stroke="url(#paint11_linear_60_5758)" stroke-opacity="0.45" stroke-width="4" stroke-miterlimit="10"/>
<path d="M-80.858 335.774C236.546 161.695 430 129.2 556.933 151.453C641.207 166.189 685.035 205.177 739.282 244.904C771.291 268.351 803.234 292.289 839.055 317.069C941.446 388.016 1016.71 420.17 1169.67 460.099C1205.09 469.322 1242.48 477.877 1281.76 486.601C1489.54 532.793 1724.73 561.865 1773 655.282" stroke="url(#paint12_linear_60_5758)" stroke-opacity="0.45" stroke-width="4" stroke-miterlimit="10"/>
<path d="M-72.911 353.827C239.737 183.005 434.047 148.56 563.317 168.209C648.465 181.143 695.49 217.947 750.166 255.95C783.3 278.969 815.413 302.616 850.433 327.303C950.925 398.008 1023.86 435.93 1177.11 477.298C1212.57 486.815 1249.87 495.317 1288.95 503.64C1498.23 548.11 1734.15 565.957 1787.86 656.355" stroke="url(#paint13_linear_60_5758)" stroke-opacity="0.45" stroke-width="4" stroke-miterlimit="10"/>
<path d="M-64.8 371.914C242.938 204.389 437.863 167.887 569.74 184.957C655.8 196.078 706.001 230.665 761.037 266.943C795.3 289.515 827.633 312.934 862.074 337.582C960.554 408.076 1031.31 451.725 1184.58 494.434C1221.63 504.477 1258.89 513.199 1296.21 520.565C1506.91 563.395 1743.65 570.123 1802.73 657.408" stroke="url(#paint14_linear_60_5758)" stroke-opacity="0.45" stroke-width="4" stroke-miterlimit="10"/>
<path d="M-56.7899 389.99C246.132 225.793 441.949 187.237 576.038 201.66C663.003 210.989 716.425 243.33 771.961 277.979C807.362 300.081 839.852 323.251 873.584 347.838C970.144 418.153 1038.62 467.518 1191.98 511.57C1228.89 521.918 1266.08 530.613 1303.33 537.603C1515.62 578.555 1752.98 574.182 1817.65 658.409" stroke="url(#paint15_linear_60_5758)" stroke-opacity="0.45" stroke-width="4" stroke-miterlimit="10"/>
<path d="M-48.7817 408.065C249.3 247.165 445.982 206.733 582.552 218.44C670.345 225.997 727.047 256.017 782.828 288.972C819.375 310.585 851.999 333.567 885.061 358.084C979.639 428.197 1045.91 483.279 1199.5 528.748C1236.27 539.374 1273.41 548.024 1310.6 554.621C1524.26 593.85 1762.4 578.294 1832.48 659.566" stroke="url(#paint16_linear_60_5758)" stroke-opacity="0.45" stroke-width="4" stroke-miterlimit="10"/>
<path d="M-40.7411 426.151C252.464 268.653 449.791 226.08 588.935 235.197C677.727 240.995 737.593 268.631 793.69 299.986C831.521 321.111 864.187 343.873 896.57 368.34C989.212 438.221 1053.19 499.062 1206.96 545.927C1243.59 556.815 1280.69 565.42 1317.79 571.639C1532.92 609.061 1771.82 582.385 1847.34 660.64" stroke="url(#paint17_linear_60_5758)" stroke-opacity="0.45" stroke-width="4" stroke-miterlimit="10"/>
<path d="M-32.7313 444.226C255.539 289.899 453.77 245.534 595.328 252.027C685.041 256.086 748.086 281.296 804.539 311.136C843.414 331.759 876.385 354.347 908.035 378.722C998.712 448.454 1060.46 514.98 1214.39 563.167C1250.89 574.318 1287.94 582.88 1324.97 588.72C1541.57 624.314 1781.34 586.677 1862.17 661.797" stroke="url(#paint18_linear_60_5758)" stroke-opacity="0.45" stroke-width="4" stroke-miterlimit="10"/>
<path d="M-24.7216 462.302C258.856 311.346 457.781 264.998 601.741 268.701C692.444 271.021 758.652 293.753 815.476 322.035C855.555 342.002 888.578 364.538 919.574 388.895C1008.27 458.426 1067.77 530.658 1221.87 580.283C1258.23 591.707 1295.25 600.227 1332.19 605.675C1550.25 639.369 1790.65 590.589 1877.06 662.787" stroke="url(#paint19_linear_60_5758)" stroke-opacity="0.45" stroke-width="4" stroke-miterlimit="10"/>
<path d="M-16.6754 480.367C262.055 332.73 461.754 284.567 608.037 285.404C699.686 286.016 769.04 306.218 826.212 333.006C867.487 352.336 900.64 374.801 930.949 399.034C1017.72 468.407 1074.98 546.366 1229.22 597.355C1265.45 609.032 1302.45 617.515 1339.31 622.598C1558.74 654.17 1799.94 594.658 1891.86 663.818" stroke="url(#paint20_linear_60_5758)" stroke-opacity="0.45" stroke-width="4" stroke-miterlimit="10"/>
<path d="M-8.69582 498.431C435.807 264.177 687.243 278.033 837.229 344.073C1000.96 416.162 1028.41 543.856 1236.8 614.576C1481.26 697.514 1792.99 587.587 1906.79 664.913" stroke="url(#paint21_linear_60_5758)" stroke-opacity="0.45" stroke-width="4" stroke-miterlimit="10"/>
<defs>
<linearGradient id="paint0_linear_60_5758" x1="818.623" y1="66.5665" x2="693.817" y2="423.446" gradientUnits="userSpaceOnUse">
<stop stop-color="#DAE6FD"/>
<stop offset="0.490009" stop-color="#CA064D"/>
<stop offset="1" stop-color="#DAE6FD"/>
</linearGradient>
<linearGradient id="paint1_linear_60_5758" x1="827.123" y1="84.7783" x2="702.298" y2="441.71" gradientUnits="userSpaceOnUse">
<stop stop-color="#DAE6FD"/>
<stop offset="0.490009" stop-color="#CA064D"/>
<stop offset="1" stop-color="#DAE6FD"/>
</linearGradient>
<linearGradient id="paint2_linear_60_5758" x1="835.537" y1="102.844" x2="710.672" y2="459.89" gradientUnits="userSpaceOnUse">
<stop stop-color="#DAE6FD"/>
<stop offset="0.490009" stop-color="#CA064D"/>
<stop offset="1" stop-color="#DAE6FD"/>
</linearGradient>
<linearGradient id="paint3_linear_60_5758" x1="844.03" y1="120.781" x2="719.091" y2="478.038" gradientUnits="userSpaceOnUse">
<stop stop-color="#DAE6FD"/>
<stop offset="0.490009" stop-color="#CA064D"/>
<stop offset="1" stop-color="#DAE6FD"/>
</linearGradient>
<linearGradient id="paint4_linear_60_5758" x1="852.657" y1="138.634" x2="727.567" y2="496.323" gradientUnits="userSpaceOnUse">
<stop stop-color="#DAE6FD"/>
<stop offset="0.490009" stop-color="#CA064D"/>
<stop offset="1" stop-color="#DAE6FD"/>
</linearGradient>
<linearGradient id="paint5_linear_60_5758" x1="861.165" y1="156.174" x2="735.854" y2="514.495" gradientUnits="userSpaceOnUse">
<stop stop-color="#DAE6FD"/>
<stop offset="0.490009" stop-color="#CA064D"/>
<stop offset="1" stop-color="#DAE6FD"/>
</linearGradient>
<linearGradient id="paint6_linear_60_5758" x1="869.913" y1="173.68" x2="744.345" y2="532.739" gradientUnits="userSpaceOnUse">
<stop stop-color="#DAE6FD"/>
<stop offset="0.490009" stop-color="#CA064D"/>
<stop offset="1" stop-color="#DAE6FD"/>
</linearGradient>
<linearGradient id="paint7_linear_60_5758" x1="878.591" y1="191.133" x2="752.756" y2="550.955" gradientUnits="userSpaceOnUse">
<stop stop-color="#DAE6FD"/>
<stop offset="0.490009" stop-color="#CA064D"/>
<stop offset="1" stop-color="#DAE6FD"/>
</linearGradient>
<linearGradient id="paint8_linear_60_5758" x1="887.386" y1="208.256" x2="761.168" y2="569.171" gradientUnits="userSpaceOnUse">
<stop stop-color="#DAE6FD"/>
<stop offset="0.490009" stop-color="#CA064D"/>
<stop offset="1" stop-color="#DAE6FD"/>
</linearGradient>
<linearGradient id="paint9_linear_60_5758" x1="896.225" y1="225.304" x2="769.605" y2="587.372" gradientUnits="userSpaceOnUse">
<stop stop-color="#DAE6FD"/>
<stop offset="0.490009" stop-color="#CA064D"/>
<stop offset="1" stop-color="#DAE6FD"/>
</linearGradient>
<linearGradient id="paint10_linear_60_5758" x1="905.125" y1="242.078" x2="778.001" y2="605.582" gradientUnits="userSpaceOnUse">
<stop stop-color="#DAE6FD"/>
<stop offset="0.490009" stop-color="#CA064D"/>
<stop offset="1" stop-color="#DAE6FD"/>
</linearGradient>
<linearGradient id="paint11_linear_60_5758" x1="914.162" y1="258.653" x2="786.459" y2="623.815" gradientUnits="userSpaceOnUse">
<stop stop-color="#DAE6FD"/>
<stop offset="0.490009" stop-color="#CA064D"/>
<stop offset="1" stop-color="#DAE6FD"/>
</linearGradient>
<linearGradient id="paint12_linear_60_5758" x1="923.21" y1="274.955" x2="794.842" y2="642.02" gradientUnits="userSpaceOnUse">
<stop stop-color="#DAE6FD"/>
<stop offset="0.490009" stop-color="#CA064D"/>
<stop offset="1" stop-color="#DAE6FD"/>
</linearGradient>
<linearGradient id="paint13_linear_60_5758" x1="932.35" y1="290.992" x2="803.223" y2="660.225" gradientUnits="userSpaceOnUse">
<stop stop-color="#DAE6FD"/>
<stop offset="0.490009" stop-color="#CA064D"/>
<stop offset="1" stop-color="#DAE6FD"/>
</linearGradient>
<linearGradient id="paint14_linear_60_5758" x1="941.694" y1="306.696" x2="811.69" y2="678.437" gradientUnits="userSpaceOnUse">
<stop stop-color="#DAE6FD"/>
<stop offset="0.490009" stop-color="#CA064D"/>
<stop offset="1" stop-color="#DAE6FD"/>
</linearGradient>
<linearGradient id="paint15_linear_60_5758" x1="951.135" y1="322.023" x2="820.119" y2="696.659" gradientUnits="userSpaceOnUse">
<stop stop-color="#DAE6FD"/>
<stop offset="0.490009" stop-color="#CA064D"/>
<stop offset="1" stop-color="#DAE6FD"/>
</linearGradient>
<linearGradient id="paint16_linear_60_5758" x1="960.704" y1="336.928" x2="828.53" y2="714.875" gradientUnits="userSpaceOnUse">
<stop stop-color="#DAE6FD"/>
<stop offset="0.490009" stop-color="#CA064D"/>
<stop offset="1" stop-color="#DAE6FD"/>
</linearGradient>
<linearGradient id="paint17_linear_60_5758" x1="973.884" y1="341.561" x2="836.958" y2="733.097" gradientUnits="userSpaceOnUse">
<stop stop-color="#DAE6FD"/>
<stop offset="0.490009" stop-color="#CA064D"/>
<stop offset="1" stop-color="#DAE6FD"/>
</linearGradient>
<linearGradient id="paint18_linear_60_5758" x1="987.367" y1="345.278" x2="845.37" y2="751.313" gradientUnits="userSpaceOnUse">
<stop stop-color="#DAE6FD"/>
<stop offset="0.490009" stop-color="#CA064D"/>
<stop offset="1" stop-color="#DAE6FD"/>
</linearGradient>
<linearGradient id="paint19_linear_60_5758" x1="1001.08" y1="348.345" x2="853.783" y2="769.529" gradientUnits="userSpaceOnUse">
<stop stop-color="#DAE6FD"/>
<stop offset="0.490009" stop-color="#CA064D"/>
<stop offset="1" stop-color="#DAE6FD"/>
</linearGradient>
<linearGradient id="paint20_linear_60_5758" x1="1014.88" y1="351.099" x2="862.186" y2="787.719" gradientUnits="userSpaceOnUse">
<stop stop-color="#DAE6FD"/>
<stop offset="0.490009" stop-color="#CA064D"/>
<stop offset="1" stop-color="#DAE6FD"/>
</linearGradient>
<linearGradient id="paint21_linear_60_5758" x1="1028.82" y1="353.549" x2="870.615" y2="805.94" gradientUnits="userSpaceOnUse">
<stop stop-color="#DAE6FD"/>
<stop offset="0.490009" stop-color="#CA064D"/>
<stop offset="1" stop-color="#DAE6FD"/>
</linearGradient>
</defs>
</svg>
