<svg width="380" height="265" viewBox="0 0 380 265" fill="none" xmlns="http://www.w3.org/2000/svg">
<rect width="380" height="265" rx="20" fill="#CA064D"/>
<g clip-path="url(#clip0_2003_7)">
<path d="M338.964 112.46H236.78V86.3325H338.964V112.46Z" fill="#E669A2"/>
<path d="M325.692 112.46H236.78V47.1133H325.692V112.46Z" fill="#F3BE26"/>
<path d="M288.958 112.46H236.78V21H288.958V112.46Z" fill="#EE9C34"/>
<path d="M299.223 112.46H236.78V31.2053H299.223V112.46Z" fill="#F3BC87"/>
<path d="M236.766 31.2207V112.451H288.953V31.2207H236.766Z" fill="#E3721C"/>
<path d="M184.458 112.46H236.78V125.525H184.458V112.46Z" fill="#AD1B02"/>
<path d="M236.766 47.0991V112.451H299.254V47.0991H236.766Z" fill="#E88D14"/>
<path d="M236.766 47.0991V112.451H288.953V47.0991H236.766Z" fill="#D85604"/>
<path d="M269.41 112.46H236.78V73.2378H269.41V112.46Z" fill="#C14303"/>
<path d="M236.766 86.3511V112.451H325.722V86.3511H236.766Z" fill="#DB4E18"/>
<path d="M236.766 86.3511V112.451H299.254V86.3511H236.766Z" fill="#D1390D"/>
<path d="M236.766 86.3511V112.451H288.953V86.3511H236.766Z" fill="#C22303"/>
<path d="M236.766 86.3511V112.451H269.442V86.3511H236.766Z" fill="#AD1B02"/>
<path d="M248.157 161.668C239.255 163.249 234.507 169.968 234.507 181.628C234.507 193.486 240.837 201.391 250.135 201.391C254.686 201.391 258.642 199.81 266.951 195.66V205.344C256.862 210.087 250.927 211.273 243.013 211.273C234.111 211.273 227.779 209.099 222.834 203.763C217.69 198.624 214.92 191.905 214.92 184.197C214.92 167.399 227.582 155.739 245.981 155.739C258.049 155.739 266.556 161.47 266.556 169.573C266.556 174.909 262.599 178.664 256.861 178.664C253.894 178.664 251.52 177.676 248.157 175.897M203.644 184.197C211.755 174.118 214.723 169.968 214.723 165.027C214.723 160.086 210.766 155.738 205.227 155.738C202.061 155.738 199.094 157.517 197.709 159.098V179.849L184.454 197.636V157.32H171.792L150.821 191.905V157.32H143.699L124.509 161.668V166.609L134.994 167.597V210.483H148.249L168.428 177.281V210.483H183.266M84.3482 203.763H87.3156C97.9985 203.763 103.934 197.241 103.934 184.197C103.934 173.328 99.186 167.399 90.2828 167.399C89.0959 167.399 87.3154 167.596 84.3479 168.189V203.763L84.3482 203.763ZM84.3482 227.083L93.0527 229.059V234H58.8273V229.059L66.7404 227.083V167.399H58.0359V162.458L78.8086 156.134H84.3485V163.249C94.0422 157.32 97.4054 156.332 102.549 156.332C114.024 156.332 122.728 167.004 122.728 181.826C122.728 198.822 111.056 210.483 93.2505 210.483C91.2722 210.483 87.909 210.285 84.3482 210.087" fill="white"/>
</g>
<defs>
<clipPath id="clip0_2003_7">
<rect width="281" height="213" fill="white" transform="translate(58 21)"/>
</clipPath>
</defs>
</svg>
