<svg width="380" height="265" viewBox="0 0 380 265" fill="none" xmlns="http://www.w3.org/2000/svg">
<rect width="380" height="265" rx="20" fill="#CA064D"/>
<path fill-rule="evenodd" clip-rule="evenodd" d="M334.429 137.765H338.547V147.469H334.73C334.429 145.502 333.273 144.805 332.184 143.79C330.304 141.95 326.186 140.429 322.733 140.429C318.255 140.429 314.491 141.887 314.491 143.977C314.491 149.942 340 145.184 340 156.408C340 162.242 334.541 165.475 324.729 165.475C321.336 165.475 316.189 164.396 313.157 162.684C312.194 162.115 311.829 163.254 311.644 164.651H307.403V154.633H311.22C312.067 157.169 313.216 157.742 314.249 158.754C316.129 160.466 320.485 161.796 324.488 161.736C330.546 161.672 332.668 160.279 332.668 158.312C332.668 156.281 330.609 155.775 323.941 154.696L318.307 153.745C311.948 152.729 307.344 151.208 307.344 145.944C307.344 140.426 313.156 136.941 322.432 136.941C326.372 136.941 329.642 137.511 332.731 139.35C333.645 139.92 334.429 139.983 334.429 137.765ZM131.821 147.777H135.673V137.946H131.821V140.482C128.407 137.762 123.771 136 118.403 136C108.042 136 99.3961 142.7 99.3961 151.236C99.3961 160.303 108.108 167 118.469 167C128.743 167 133.961 161.97 135.855 156.61H131.772C129.871 159.769 126.313 162.224 121.029 162.224C113.753 162.224 108.651 157.328 108.651 151.332C108.651 144.519 114.866 140.436 120.921 140.436C126.04 140.44 131.821 142.718 131.821 147.777ZM221.057 137.751H248.968C253.863 137.751 258.275 140.797 258.275 145.594C258.275 148.919 255.964 150.975 252.9 152.17C255.033 152.917 255.908 154.732 255.908 156.61V160.392C255.908 161.874 258.275 161.793 258.275 160.392V156.61H261.742V161.057C261.742 164.771 258.275 166.225 255.908 166.225C252.823 166.225 248.968 164.771 248.968 161.057V156.61C248.968 153.384 246.902 153.6 244.16 153.6H234.272V161.053H240.018V164.768H221.06V161.053H226.75V142.184H221.06L221.057 137.751ZM234.272 142.187H245.838C247.56 142.187 248.972 143.609 248.972 145.353V146.362C248.97 147.201 248.639 148.005 248.052 148.598C247.464 149.192 246.668 149.526 245.838 149.528H234.272V142.187ZM39 137.751H66.908C71.8103 137.751 76.2153 140.797 76.2153 145.594C76.2153 151.838 71.5441 153.603 65.5598 153.603H52.2187V161.057H57.9578V164.771H39V161.057H44.6936V142.187H39V137.751ZM52.2187 142.187H63.7775C65.5003 142.187 66.9115 143.609 66.9115 145.353V146.362C66.9096 147.201 66.5788 148.005 65.9915 148.598C65.4042 149.192 64.6081 149.526 63.7775 149.528H52.2187V142.187ZM179.244 137.751H197.729V142.187H191.881V157.898C191.881 160.933 195.785 161.931 199.753 162.008C203.916 162.093 207.996 161.184 207.996 157.898V142.187H202.628V137.751H217.891V142.187H213.185V157.618C213.122 163.798 205.916 166.537 198.769 166.519C191.52 166.498 184.318 163.622 184.36 157.618V142.187H179.244V137.751ZM264.61 137.751H301.713V149.528H296.531V142.191H277.724V149.528H286.408V145.598H290.69V157.392H286.408V152.892H277.724V161.06H296.531V154.767H301.713V164.771H264.61V161.057H270.199V142.187H264.61V137.751ZM139.707 149.524V137.751H176.411V149.528H171.221V142.191H161.497V161.06H167.331V164.775H148.394V161.06H153.976V142.191H144.893V149.528L139.707 149.524ZM79.0026 137.751H97.6803V142.187H92.2282V161.057H97.6803V164.771H79.0026V161.057H84.7068V142.187H79.0026V137.751Z" fill="white"/>
<path fill-rule="evenodd" clip-rule="evenodd" d="M252.32 108.186L257.38 102.869C257.694 102.438 257.816 102.19 257.816 101.941C257.816 101.572 257.506 101.386 256.443 101.386H255.132V98.0483H269V101.386H267.125C265.062 101.386 264.689 101.697 261.751 105.341L253.752 113.931V119.124C253.752 120.486 254.439 120.917 256.377 120.917H259.374V124.193H240.069V120.917H243.07C245.004 120.917 245.691 120.486 245.691 119.124V113.931L236.256 103.607C234.695 101.752 234.946 101.383 230.572 101.383V98.0448H248.064V101.383H246.817C245.569 101.383 245.067 101.631 245.067 102.124C245.067 102.493 245.443 102.803 245.691 103.114L250.438 108.245C251.006 108.866 251.696 108.931 252.32 108.186ZM134.927 97.9896H139.176V107.448H135.241C134.931 105.531 133.742 104.852 132.616 103.862C130.679 102.069 126.43 100.586 122.872 100.586C118.25 100.586 114.375 102.007 114.375 104.045C114.375 109.859 140.678 105.221 140.678 116.162C140.678 121.848 135.053 125 124.931 125C121.432 125 116.121 123.948 112.998 122.279C111.998 121.724 111.621 122.835 111.437 124.197H107.063V114.431H110.998C111.872 116.903 113.061 117.462 114.124 118.448C116.058 120.117 120.558 121.414 124.681 121.355C130.93 121.293 133.115 119.935 133.115 118.017C133.115 116.038 130.992 115.545 124.119 114.493L118.31 113.566C111.75 112.576 107 111.093 107 105.962C107 100.583 112.998 97.1862 122.558 97.1862C126.618 97.1862 129.992 97.7414 133.177 99.5345C134.115 100.09 134.927 100.152 134.927 97.9896ZM163.903 121.414C157.156 121.414 153.221 117.521 153.221 110.783C153.221 104.231 157.285 100.397 164.28 100.397C170.964 100.397 174.899 104.352 174.899 111.093C174.899 117.641 170.898 121.414 163.903 121.414ZM164.217 97C151.911 97 144.226 102.379 144.226 111.031C144.226 119.5 151.851 124.817 163.844 124.817C176.589 124.817 184.023 119.566 184.023 110.6C184.02 102.5 176.025 97 164.217 97ZM215.704 113.748L215.767 103.303C215.767 101.941 215.017 101.448 212.954 101.448H210.581V98.2345H225.951V101.448H223.95C221.887 101.448 221.2 101.945 221.2 103.303V124.379L215.139 124.317L195.584 106.021V119.31C195.584 120.672 196.333 121.166 198.396 121.166H201.084V124.379H185.027V121.166H187.714C189.777 121.166 190.464 120.669 190.464 119.31V103.3C190.464 101.938 189.777 101.445 187.714 101.445H185.027V98.231H198.895L215.704 113.748Z" fill="white"/>
</svg>
