<svg width="71" height="71" viewBox="0 0 71 71" fill="none" xmlns="http://www.w3.org/2000/svg">
<g clip-path="url(#clip0_56_3534)">
<path d="M13.3125 0C5.94556 0 0 5.94556 0 13.3125V44.375C0 51.7419 5.94556 57.6875 13.3125 57.6875H57.6875C65.0544 57.6875 71 51.7419 71 44.375V13.3125C71 5.94556 65.0544 0 57.6875 0H13.3125ZM13.3125 8.875H57.6875C60.1489 8.875 62.125 10.8511 62.125 13.3125V44.375C62.125 46.8364 60.1489 48.8125 57.6875 48.8125H13.3125C10.8511 48.8125 8.875 46.8364 8.875 44.375V13.3125C8.875 10.8511 10.8511 8.875 13.3125 8.875ZM22.1875 62.125C17.282 62.125 13.3125 66.0945 13.3125 71H57.6875C57.6875 66.0945 53.718 62.125 48.8125 62.125H22.1875Z" fill="white"/>
</g>
<defs>
<clipPath id="clip0_56_3534">
<rect width="71" height="71" fill="white"/>
</clipPath>
</defs>
</svg>
