<svg width="79" height="79" viewBox="0 0 79 79" fill="none" xmlns="http://www.w3.org/2000/svg">
<path d="M23.0417 46.0833L30.5892 38.5358C31.8747 37.2504 33.9589 37.2504 35.2443 38.5358L40.4642 43.7558C41.7496 45.0412 43.8339 45.0412 45.1193 43.7558L55.9584 32.9166M55.9584 32.9166V41.1458M55.9584 32.9166H47.7292" stroke="white" stroke-width="5" stroke-linecap="round" stroke-linejoin="round"/>
<path d="M72.4166 39.5C72.4166 55.017 72.4166 62.7757 67.5959 67.5961C62.7756 72.4167 55.0168 72.4167 39.4999 72.4167C23.9828 72.4167 16.2243 72.4167 11.4038 67.5961C6.58325 62.7757 6.58325 55.017 6.58325 39.5C6.58325 23.983 6.58325 16.2244 11.4038 11.4039C16.2243 6.58337 23.9828 6.58337 39.4999 6.58337C55.0168 6.58337 62.7756 6.58337 67.5959 11.4039C70.8014 14.6091 71.8754 19.1133 72.2352 26.3334" stroke="white" stroke-width="8" stroke-linecap="round"/>
</svg>
