<svg width="111" height="63" viewBox="0 0 111 63" fill="none" xmlns="http://www.w3.org/2000/svg">
<path d="M31.6364 60V55.25C31.6364 48.9511 34.1506 42.9102 38.6259 38.4562C43.1012 34.0022 49.171 31.5 55.5 31.5M55.5 31.5C61.829 31.5 67.8988 34.0022 72.3741 38.4562C76.8494 42.9102 79.3636 48.9511 79.3636 55.25V60M55.5 31.5C59.2974 31.5 62.9393 29.9987 65.6245 27.3263C68.3097 24.6539 69.8182 21.0293 69.8182 17.25C69.8182 13.4707 68.3097 9.84612 65.6245 7.17373C62.9393 4.50134 59.2974 3 55.5 3C51.7026 3 48.0607 4.50134 45.3755 7.17373C42.6903 9.84612 41.1818 13.4707 41.1818 17.25C41.1818 21.0293 42.6903 24.6539 45.3755 27.3263C48.0607 29.9987 51.7026 31.5 55.5 31.5ZM3 60V55.25C3 51.4707 4.50852 47.8461 7.1937 45.1737C9.87888 42.5013 13.5208 41 17.3182 41M17.3182 41C19.8498 41 22.2777 39.9991 24.0678 38.2175C25.858 36.4359 26.8636 34.0196 26.8636 31.5C26.8636 28.9804 25.858 26.5641 24.0678 24.7825C22.2777 23.0009 19.8498 22 17.3182 22C14.7866 22 12.3586 23.0009 10.5685 24.7825C8.77841 26.5641 7.77273 28.9804 7.77273 31.5C7.77273 34.0196 8.77841 36.4359 10.5685 38.2175C12.3586 39.9991 14.7866 41 17.3182 41ZM108 60V55.25C108 51.4707 106.491 47.8461 103.806 45.1737C101.121 42.5013 97.4792 41 93.6818 41M93.6818 41C96.2134 41 98.6414 39.9991 100.431 38.2175C102.222 36.4359 103.227 34.0196 103.227 31.5C103.227 28.9804 102.222 26.5641 100.431 24.7825C98.6414 23.0009 96.2134 22 93.6818 22C91.1502 22 88.7223 23.0009 86.9322 24.7825C85.142 26.5641 84.1364 28.9804 84.1364 31.5C84.1364 34.0196 85.142 36.4359 86.9322 38.2175C88.7223 39.9991 91.1502 41 93.6818 41Z" stroke="white" stroke-width="5" stroke-linecap="round" stroke-linejoin="round"/>
</svg>
